SplineFontDB: 1.0
FontName: DejaVuSansCondensed
FullName: DejaVu Sans Condensed
FamilyName: DejaVu Sans Condensed
Weight: Book
Copyright: Copyright (c) 2003 by Bitstream, Inc. All Rights Reserved.\nDejaVu changes are in public domain\n
Version: 1.11
ItalicAngle: 0
UnderlinePosition: -213
UnderlineWidth: 143
Ascent: 1556
Descent: 492
Order2: 1
NeedsXUIDChange: 1
FSType: 4
PfmFamily: 17
TTFWeight: 400
TTFWidth: 5
Panose: 2 11 6 6 3 8 4 2 2 4
LineGap: 410
VLineGap: 0
OS2TypoAscent: 1556
OS2TypoDescent: -492
OS2TypoLinegap: 0
OS2WinAscent: 1901
OS2WinAOffset: 0
OS2WinDescent: 483
OS2WinDOffset: 0
HheadAscent: 1901
HheadAOffset: 0
HheadDescent: -483
HheadDOffset: 0
ScriptLang: 2
 1 latn 1 dflt 
 1 DFLT 1 dflt 
TtfTable: prep 1384
\,q1Gs82ctq@j&-,m3ot"8A)`p'q2trWDfl"7mf@ndYclQ36V&"7M+5"n2EmmZmtBQ36LM"7,dc
lM^nM3WnS4"6]Xcjt[&#jAQ6DQ363*5m?=J"68Ao"loF]i\(DmrWD*X"5bj9h@p(JQ35qA"5=Fj
g3j(V]*$^b"4i>q"kJ)(e^R(meU7PL7g%5g)[4^i"4A+jdJa6prWCLG"4$lJc'AIUb8pi2rWC=b
"3NA$ao2C^Kb4L.*!=.q"2t0@_u9bTrWC"9"2Om<^]">LrWBk5"2+U8]D_oD&HfRu,mCjY"1YhP
"h=O6\$fQG\%;aOJ-<<g,mC__5lUqp5QnJ@"18%0Z^(^!rWBG)"0hb,YPnX,A-8qD"0AOL"fu5:
X/Zd9X!IkJ&d,+j5m=7a"/u2$Vu?dqrWAu0"/PnuUS85%UG;qG%KiD8"/(N;"e_.`TDeqaSI>[n
rWA]"".Yhu"e9**S!jllRi)<s&-J=-".9&iQ^/'aQi7)Q%0MlQ5m<O>"-euZ"dCD;P7@\Xq?)kA
]*4>r"-ARL"d$=uOFRIpN[4ji>m$-Q"HFc1NW'$=M_50lrWA'2",_gZ"c>SJM22NCM%g&J$Nl0=
,mB'7",;LA"bn<*Kb4E?rW@e)&I!gd"+h*eJc5b%rW@ZL"$lm8I=29JrW@Rs"+4V]HW1^`HR/c?
rW@HF"*b:XG74Rs$3PGM"*FAAF8>uZq?(a6"*"5ADuKiVrW?s[")Il<C(Wc9C/Y4KrW?h^"(r34
"_R`9Ac;dBrW?[0"(M63@6+Kuq?(%4"'tm.>Q+_.rW?;*$3aT/"'>m4<u)YW=#'kYrW?/"'a7T(
"&p!;;ZRF5;]#U7'E_3)'*V84"&K@-:]:Gk9b7J'rW>k+"&/[r91fj$9E##c8Iu%t'*CfH%0]<7
"%Wk'8,`T[Q30RA"%<+j6NShC6i$mO])t>l"$lhf5Q1aK4V@o^'E^K\%g>*/"$AXS"[#'M%g+m&
"$6D`3W9+?2\ZETq?&Z7&-Y!,"#`"E"Z?no2%'LC*Wn2-"#;S="Z$&Z0ae(;0+.q;%0J6k""l/3
"YL>g/I;M11'9$V,m>f0""G`4"Y(f#.1u_2-RApE5m&J\""#<%"XX`^,msf#rW=DE"!S6X+TW,X
+VFl"A-3qM"!/Hl"Wh1V*=W)j&OHX@rW=,9!uaK.)%f1=)?'^TA-3V`)$LiU!u:nK"VqsX(&e:L

StartChar: .notdef
Encoding: 0 -1 0
Width: 1167
Flags: HW
Fore
153.2 -362 m 1,0,-1
 153.2 1444 l 1,1,-1
 1074.8 1444 l 1,2,-1
 1074.8 -362 l 1,3,-1
 153.2 -362 l 1,0,-1
256.7 -248 m 1,4,-1
 972.2 -248 l 1,5,-1
 972.2 1329 l 1,6,-1
 256.7 1329 l 1,7,-1
 256.7 -248 l 1,4,-1
EndSplineSet
EndChar
StartChar: exclam
Encoding: 33 33 4
Width: 779
Flags: HW
Fore
319.15 254 m 1,0,-1
 501.85 254 l 1,1,-1
 501.85 0 l 1,2,-1
 319.15 0 l 1,3,-1
 319.15 254 l 1,0,-1
319.15 1493 m 1,4,-1
 501.85 1493 l 1,5,-1
 501.85 838 l 1,6,-1
 483.85 481 l 1,7,-1
 338.05 481 l 1,8,-1
 319.15 838 l 1,9,-1
 319.15 1493 l 1,4,-1
EndSplineSet
EndChar
StartChar: quotedbl
Encoding: 34 34 5
Width: 894
Flags: HW
Fore
377.4 1493 m 1,0,-1
 377.4 938 l 1,1,-1
 224.4 938 l 1,2,-1
 224.4 1493 l 1,3,-1
 377.4 1493 l 1,0,-1
717.6 1493 m 1,4,-1
 717.6 938 l 1,5,-1
 564.6 938 l 1,6,-1
 564.6 1493 l 1,7,-1
 717.6 1493 l 1,4,-1
EndSplineSet
EndChar
StartChar: numbersign
Encoding: 35 35 6
Width: 1630
Flags: HW
Fore
1028.15 901 m 1,0,-1
 766.25 901 l 1,1,-1
 690.65 567 l 1,2,-1
 954.35 567 l 1,3,-1
 1028.15 901 l 1,0,-1
893.15 1470 m 1,4,-1
 799.55 1055 l 1,5,-1
 1062.35 1055 l 1,6,-1
 1156.85 1470 l 1,7,-1
 1300.85 1470 l 1,8,-1
 1208.15 1055 l 1,9,-1
 1488.95 1055 l 1,10,-1
 1488.95 901 l 1,11,-1
 1173.05 901 l 1,12,-1
 1099.25 567 l 1,13,-1
 1385.45 567 l 1,14,-1
 1385.45 414 l 1,15,-1
 1064.15 414 l 1,16,-1
 970.55 0 l 1,17,-1
 826.55 0 l 1,18,-1
 919.25 414 l 1,19,-1
 655.55 414 l 1,20,-1
 562.85 0 l 1,21,-1
 417.95 0 l 1,22,-1
 511.55 414 l 1,23,-1
 228.05 414 l 1,24,-1
 228.05 567 l 1,25,-1
 544.85 567 l 1,26,-1
 620.45 901 l 1,27,-1
 330.65 901 l 1,28,-1
 330.65 1055 l 1,29,-1
 655.55 1055 l 1,30,-1
 747.35 1470 l 1,31,-1
 893.15 1470 l 1,4,-1
EndSplineSet
EndChar
StartChar: dollar
Encoding: 36 36 7
Width: 1237
Flags: HW
Fore
687.95 -301 m 1,0,-1
 597.95 -301 l 1,1,-1
 597.05 0 l 1,2,3
 502.55 2 502.55 2 408.05 24.5 c 128,-1,4
 313.55 47 313.55 47 218.15 92 c 1,5,-1
 218.15 272 l 1,6,7
 309.95 208 309.95 208 404 175.5 c 128,-1,8
 498.05 143 498.05 143 597.95 142 c 1,9,-1
 597.95 598 l 1,10,11
 399.05 634 399.05 634 308.6 720 c 128,-1,12
 218.15 806 218.15 806 218.15 956 c 0,13,14
 218.15 1119 218.15 1119 316.25 1213 c 128,-1,15
 414.35 1307 414.35 1307 597.95 1321 c 1,16,-1
 597.95 1556 l 1,17,-1
 687.95 1556 l 1,18,-1
 687.95 1324 l 1,19,20
 771.65 1320 771.65 1320 849.95 1304.5 c 128,-1,21
 928.25 1289 928.25 1289 1002.95 1262 c 1,22,-1
 1002.95 1087 l 1,23,24
 928.25 1129 928.25 1129 849.5 1152 c 128,-1,25
 770.75 1175 770.75 1175 687.95 1179 c 1,26,-1
 687.95 752 l 1,27,28
 892.25 717 892.25 717 988.55 627 c 128,-1,29
 1084.85 537 1084.85 537 1084.85 381 c 0,30,31
 1084.85 212 1084.85 212 982.7 114.5 c 128,-1,32
 880.55 17 880.55 17 687.95 2 c 1,33,-1
 687.95 -301 l 1,0,-1
597.95 770 m 1,34,-1
 597.95 1180 l 1,35,36
 493.55 1167 493.55 1167 438.65 1114 c 128,-1,37
 383.75 1061 383.75 1061 383.75 973 c 0,38,39
 383.75 887 383.75 887 434.6 839 c 128,-1,40
 485.45 791 485.45 791 597.95 770 c 1,34,-1
687.95 578 m 1,41,-1
 687.95 145 l 1,42,43
 802.25 162 802.25 162 860.3 217 c 128,-1,44
 918.35 272 918.35 272 918.35 362 c 0,45,46
 918.35 450 918.35 450 863 502 c 128,-1,47
 807.65 554 807.65 554 687.95 578 c 1,41,-1
EndSplineSet
EndChar
StartChar: percent
Encoding: 37 37 8
Width: 1848
Flags: HW
Fore
1437.4 657 m 0,0,1
 1359.1 657 1359.1 657 1314.55 583 c 128,-1,2
 1270 509 1270 509 1270 377 c 0,3,4
 1270 247 1270 247 1314.55 172.5 c 128,-1,5
 1359.1 98 1359.1 98 1437.4 98 c 0,6,7
 1513.9 98 1513.9 98 1558.45 172.5 c 128,-1,8
 1603 247 1603 247 1603 377 c 0,9,10
 1603 508 1603 508 1558.45 582.5 c 128,-1,11
 1513.9 657 1513.9 657 1437.4 657 c 0,0,1
1437.4 784 m 0,12,13
 1579.6 784 1579.6 784 1663.3 674 c 128,-1,14
 1747 564 1747 564 1747 377 c 0,15,16
 1747 190 1747 190 1662.85 80.5 c 128,-1,17
 1578.7 -29 1578.7 -29 1437.4 -29 c 0,18,19
 1293.4 -29 1293.4 -29 1209.7 80.5 c 128,-1,20
 1126 190 1126 190 1126 377 c 0,21,22
 1126 565 1126 565 1210.15 674.5 c 128,-1,23
 1294.3 784 1294.3 784 1437.4 784 c 0,12,13
508.6 1393 m 0,24,25
 431.2 1393 431.2 1393 386.65 1318.5 c 128,-1,26
 342.1 1244 342.1 1244 342.1 1114 c 0,27,28
 342.1 982 342.1 982 386.2 908 c 128,-1,29
 430.3 834 430.3 834 508.6 834 c 0,30,31
 586.9 834 586.9 834 631.45 908 c 128,-1,32
 676 982 676 982 676 1114 c 0,33,34
 676 1243 676 1243 631 1318 c 128,-1,35
 586 1393 586 1393 508.6 1393 c 0,24,25
1321.3 1520 m 1,36,-1
 1465.3 1520 l 1,37,-1
 624.7 -29 l 1,38,-1
 480.7 -29 l 1,39,-1
 1321.3 1520 l 1,36,-1
508.6 1520 m 0,40,41
 650.8 1520 650.8 1520 735.4 1410.5 c 128,-1,42
 820 1301 820 1301 820 1114 c 0,43,44
 820 925 820 925 735.85 816 c 128,-1,45
 651.7 707 651.7 707 508.6 707 c 0,46,47
 365.5 707 365.5 707 282.25 816.5 c 128,-1,48
 199 926 199 926 199 1114 c 0,49,50
 199 1300 199 1300 282.7 1410 c 128,-1,51
 366.4 1520 366.4 1520 508.6 1520 c 0,40,41
EndSplineSet
EndChar
StartChar: ampersand
Encoding: 38 38 9
Width: 1520
Flags: HW
Fore
531.35 803 m 1,0,1
 449.45 722 449.45 722 411.2 641.5 c 128,-1,2
 372.95 561 372.95 561 372.95 473 c 0,3,4
 372.95 327 372.95 327 468.35 230 c 128,-1,5
 563.75 133 563.75 133 707.75 133 c 0,6,7
 793.25 133 793.25 133 867.95 164.5 c 128,-1,8
 942.65 196 942.65 196 1008.35 260 c 1,9,-1
 531.35 803 l 1,0,1
658.25 915 m 2,10,-1
 1115.45 395 l 1,11,12
 1168.55 484 1168.55 484 1198.25 585.5 c 128,-1,13
 1227.95 687 1227.95 687 1233.35 801 c 1,14,-1
 1400.75 801 l 1,15,16
 1389.95 669 1389.95 669 1343.15 540 c 128,-1,17
 1296.35 411 1296.35 411 1212.65 285 c 1,18,-1
 1463.75 0 l 1,19,-1
 1236.95 0 l 1,20,-1
 1108.25 147 l 1,21,22
 1014.65 58 1014.65 58 912.05 14.5 c 128,-1,23
 809.45 -29 809.45 -29 691.55 -29 c 0,24,25
 474.65 -29 474.65 -29 336.95 108.5 c 128,-1,26
 199.25 246 199.25 246 199.25 461 c 0,27,28
 199.25 589 199.25 589 259.55 701.5 c 128,-1,29
 319.85 814 319.85 814 440.45 913 c 1,30,31
 397.25 976 397.25 976 374.75 1038.5 c 128,-1,32
 352.25 1101 352.25 1101 352.25 1161 c 0,33,34
 352.25 1323 352.25 1323 452.15 1421.5 c 128,-1,35
 552.05 1520 552.05 1520 717.65 1520 c 0,36,37
 792.35 1520 792.35 1520 866.6 1502 c 128,-1,38
 940.85 1484 940.85 1484 1017.35 1448 c 1,39,-1
 1017.35 1266 l 1,40,41
 939.05 1313 939.05 1313 867.95 1337.5 c 128,-1,42
 796.85 1362 796.85 1362 735.65 1362 c 0,43,44
 641.15 1362 641.15 1362 582.2 1306.5 c 128,-1,45
 523.25 1251 523.25 1251 523.25 1163 c 0,46,47
 523.25 1112 523.25 1112 549.8 1060.5 c 128,-1,48
 576.35 1009 576.35 1009 658.25 915 c 2,10,-1
EndSplineSet
EndChar
StartChar: quotesingle
Encoding: 39 39 10
Width: 534
Flags: HW
Fore
358.5 1493 m 1,0,-1
 358.5 938 l 1,1,-1
 205.5 938 l 1,2,-1
 205.5 1493 l 1,3,-1
 358.5 1493 l 1,0,-1
EndSplineSet
EndChar
StartChar: parenleft
Encoding: 40 40 11
Width: 759
Flags: HW
Fore
612.05 1554 m 1,0,1
 491.45 1324 491.45 1324 432.95 1099 c 128,-1,2
 374.45 874 374.45 874 374.45 643 c 0,3,4
 374.45 412 374.45 412 433.4 185.5 c 128,-1,5
 492.35 -41 492.35 -41 612.05 -270 c 1,6,-1
 468.05 -270 l 1,7,8
 333.05 -35 333.05 -35 266 192 c 128,-1,9
 198.95 419 198.95 419 198.95 643 c 0,10,11
 198.95 866 198.95 866 265.55 1092 c 128,-1,12
 332.15 1318 332.15 1318 468.05 1554 c 1,13,-1
 612.05 1554 l 1,0,1
EndSplineSet
EndChar
StartChar: parenright
Encoding: 41 41 12
Width: 758
Flags: HW
Fore
186.95 1554 m 1,0,-1
 330.95 1554 l 1,1,2
 465.95 1318 465.95 1318 533 1092 c 128,-1,3
 600.05 866 600.05 866 600.05 643 c 0,4,5
 600.05 419 600.05 419 533 192 c 128,-1,6
 465.95 -35 465.95 -35 330.95 -270 c 1,7,-1
 186.95 -270 l 1,8,9
 306.65 -41 306.65 -41 365.6 185.5 c 128,-1,10
 424.55 412 424.55 412 424.55 643 c 0,11,12
 424.55 874 424.55 874 365.6 1099 c 128,-1,13
 306.65 1324 306.65 1324 186.95 1554 c 1,0,-1
EndSplineSet
EndChar
StartChar: asterisk
Encoding: 42 42 13
Width: 972
Flags: HW
Fore
917.9 1247 m 1,0,-1
 594.8 1053 l 1,1,-1
 917.9 858 l 1,2,-1
 865.7 760 l 1,3,-1
 563.3 963 l 1,4,-1
 563.3 586 l 1,5,-1
 460.7 586 l 1,6,-1
 460.7 963 l 1,7,-1
 158.3 760 l 1,8,-1
 106.1 858 l 1,9,-1
 429.2 1053 l 1,10,-1
 106.1 1247 l 1,11,-1
 158.3 1346 l 1,12,-1
 460.7 1143 l 1,13,-1
 460.7 1520 l 1,14,-1
 563.3 1520 l 1,15,-1
 563.3 1143 l 1,16,-1
 865.7 1346 l 1,17,-1
 917.9 1247 l 1,0,-1
EndSplineSet
EndChar
StartChar: plus
Encoding: 43 43 14
Width: 1630
Flags: HW
Fore
933.6 1284 m 1,0,-1
 933.6 727 l 1,1,-1
 1434.9 727 l 1,2,-1
 1434.9 557 l 1,3,-1
 933.6 557 l 1,4,-1
 933.6 0 l 1,5,-1
 782.4 0 l 1,6,-1
 782.4 557 l 1,7,-1
 281.1 557 l 1,8,-1
 281.1 727 l 1,9,-1
 782.4 727 l 1,10,-1
 782.4 1284 l 1,11,-1
 933.6 1284 l 1,0,-1
EndSplineSet
EndChar
StartChar: comma
Encoding: 44 44 15
Width: 616
Flags: HW
Fore
246.45 254 m 1,0,-1
 436.35 254 l 1,1,-1
 436.35 82 l 1,2,-1
 288.75 -238 l 1,3,-1
 172.65 -238 l 1,4,-1
 246.45 82 l 1,5,-1
 246.45 254 l 1,0,-1
EndSplineSet
EndChar
StartChar: hyphen
Encoding: 45 45 16
Width: 702
Flags: HW
Fore
126.95 643 m 1,0,-1
 612.05 643 l 1,1,-1
 612.05 479 l 1,2,-1
 126.95 479 l 1,3,-1
 126.95 643 l 1,0,-1
EndSplineSet
KernsSLIF: 256 -45 0 0 258 -45 0 0 260 -45 0 0 356 -188 0 0 286 75 0 0 253 -36 0 0 221 -243 0 0 210 57 0 0 212 57 0 0 211 57 0 0 193 -45 0 0 194 -45 0 0 376 -243 0 0 255 -36 0 0 213 57 0 0 195 -45 0 0 192 -45 0 0 245 38 0 0 246 38 0 0 244 38 0 0 242 38 0 0 243 38 0 0 214 57 0 0 196 -45 0 0 121 -36 0 0 118 -55 0 0 111 38 0 0 89 -243 0 0 88 -102 0 0 87 -83 0 0 86 -120 0 0 84 -188 0 0 81 75 0 0 79 57 0 0 74 114 0 0 71 75 0 0 66 -73 0 0 65 -45 0 0
EndChar
StartChar: period
Encoding: 46 46 17
Width: 618
Flags: HW
Fore
229.55 254 m 1,0,-1
 419.45 254 l 1,1,-1
 419.45 0 l 1,2,-1
 229.55 0 l 1,3,-1
 229.55 254 l 1,0,-1
EndSplineSet
EndChar
StartChar: slash
Encoding: 47 47 18
Width: 655
Flags: HW
Fore
502.5 1493 m 1,0,-1
 655.5 1493 l 1,1,-1
 187.5 -190 l 1,2,-1
 34.5 -190 l 1,3,-1
 502.5 1493 l 1,0,-1
EndSplineSet
EndChar
StartChar: zero
Encoding: 48 48 19
Width: 1237
Flags: HW
Fore
651 1360 m 0,0,1
 510.6 1360 510.6 1360 439.95 1206.5 c 128,-1,2
 369.3 1053 369.3 1053 369.3 745 c 0,3,4
 369.3 438 369.3 438 439.95 284.5 c 128,-1,5
 510.6 131 510.6 131 651 131 c 0,6,7
 792.3 131 792.3 131 862.95 284.5 c 128,-1,8
 933.6 438 933.6 438 933.6 745 c 0,9,10
 933.6 1053 933.6 1053 862.95 1206.5 c 128,-1,11
 792.3 1360 792.3 1360 651 1360 c 0,0,1
651 1520 m 0,12,13
 876.9 1520 876.9 1520 996.15 1321.5 c 128,-1,14
 1115.4 1123 1115.4 1123 1115.4 745 c 0,15,16
 1115.4 368 1115.4 368 996.15 169.5 c 128,-1,17
 876.9 -29 876.9 -29 651 -29 c 0,18,19
 425.1 -29 425.1 -29 305.85 169.5 c 128,-1,20
 186.6 368 186.6 368 186.6 745 c 0,21,22
 186.6 1123 186.6 1123 305.85 1321.5 c 128,-1,23
 425.1 1520 425.1 1520 651 1520 c 0,12,13
EndSplineSet
EndChar
StartChar: one
Encoding: 49 49 20
Width: 1239
Flags: HW
Fore
295.55 170 m 1,0,-1
 592.55 170 l 1,1,-1
 592.55 1309 l 1,2,-1
 269.45 1237 l 1,3,-1
 269.45 1421 l 1,4,-1
 590.75 1493 l 1,5,-1
 772.55 1493 l 1,6,-1
 772.55 170 l 1,7,-1
 1069.55 170 l 1,8,-1
 1069.55 0 l 1,9,-1
 295.55 0 l 1,10,-1
 295.55 170 l 1,0,-1
EndSplineSet
EndChar
StartChar: two
Encoding: 50 50 21
Width: 1235
Flags: HW
Fore
416.1 170 m 1,0,-1
 1050.6 170 l 1,1,-1
 1050.6 0 l 1,2,-1
 197.4 0 l 1,3,-1
 197.4 170 l 1,4,5
 300.9 289 300.9 289 479.55 489.5 c 128,-1,6
 658.2 690 658.2 690 704.1 748 c 0,7,8
 791.4 857 791.4 857 826.05 932.5 c 128,-1,9
 860.7 1008 860.7 1008 860.7 1081 c 0,10,11
 860.7 1200 860.7 1200 785.55 1275 c 128,-1,12
 710.4 1350 710.4 1350 589.8 1350 c 0,13,14
 504.3 1350 504.3 1350 409.35 1317 c 128,-1,15
 314.4 1284 314.4 1284 206.4 1217 c 1,16,-1
 206.4 1421 l 1,17,18
 316.2 1470 316.2 1470 411.6 1495 c 128,-1,19
 507 1520 507 1520 586.2 1520 c 0,20,21
 795 1520 795 1520 919.2 1404 c 128,-1,22
 1043.4 1288 1043.4 1288 1043.4 1094 c 0,23,24
 1043.4 1002 1043.4 1002 1012.35 919.5 c 128,-1,25
 981.3 837 981.3 837 899.4 725 c 1,26,27
 876.9 696 876.9 696 756.3 557.5 c 128,-1,28
 635.7 419 635.7 419 416.1 170 c 1,0,-1
EndSplineSet
EndChar
StartChar: three
Encoding: 51 51 22
Width: 1237
Flags: HW
Fore
812.65 805 m 1,0,1
 943.15 774 943.15 774 1016.5 676 c 128,-1,2
 1089.85 578 1089.85 578 1089.85 434 c 0,3,4
 1089.85 213 1089.85 213 953.05 92 c 128,-1,5
 816.25 -29 816.25 -29 564.25 -29 c 0,6,7
 479.65 -29 479.65 -29 390.1 -10.5 c 128,-1,8
 300.55 8 300.55 8 205.15 45 c 1,9,-1
 205.15 240 l 1,10,11
 280.75 191 280.75 191 370.75 166 c 128,-1,12
 460.75 141 460.75 141 558.85 141 c 0,13,14
 729.85 141 729.85 141 819.4 216 c 128,-1,15
 908.95 291 908.95 291 908.95 434 c 0,16,17
 908.95 566 908.95 566 825.7 640.5 c 128,-1,18
 742.45 715 742.45 715 593.95 715 c 2,19,-1
 437.35 715 l 1,20,-1
 437.35 881 l 1,21,-1
 601.15 881 l 2,22,23
 735.25 881 735.25 881 806.35 940.5 c 128,-1,24
 877.45 1000 877.45 1000 877.45 1112 c 0,25,26
 877.45 1227 877.45 1227 804.1 1288.5 c 128,-1,27
 730.75 1350 730.75 1350 593.95 1350 c 0,28,29
 519.25 1350 519.25 1350 433.75 1332 c 128,-1,30
 348.25 1314 348.25 1314 245.65 1276 c 1,31,-1
 245.65 1456 l 1,32,33
 349.15 1488 349.15 1488 439.6 1504 c 128,-1,34
 530.05 1520 530.05 1520 610.15 1520 c 0,35,36
 817.15 1520 817.15 1520 937.75 1415.5 c 128,-1,37
 1058.35 1311 1058.35 1311 1058.35 1133 c 0,38,39
 1058.35 1009 1058.35 1009 994.45 923.5 c 128,-1,40
 930.55 838 930.55 838 812.65 805 c 1,0,1
EndSplineSet
EndChar
StartChar: four
Encoding: 52 52 23
Width: 1237
Flags: HW
Fore
761 1317 m 1,0,-1
 302 520 l 1,1,-1
 761 520 l 1,2,-1
 761 1317 l 1,0,-1
713.3 1493 m 1,3,-1
 941.9 1493 l 1,4,-1
 941.9 520 l 1,5,-1
 1133.6 520 l 1,6,-1
 1133.6 352 l 1,7,-1
 941.9 352 l 1,8,-1
 941.9 0 l 1,9,-1
 761 0 l 1,10,-1
 761 352 l 1,11,-1
 154.4 352 l 1,12,-1
 154.4 547 l 1,13,-1
 713.3 1493 l 1,3,-1
EndSplineSet
EndChar
StartChar: five
Encoding: 53 53 24
Width: 1236
Flags: HW
Fore
263 1493 m 1,0,-1
 976.7 1493 l 1,1,-1
 976.7 1323 l 1,2,-1
 429.5 1323 l 1,3,-1
 429.5 957 l 1,4,5
 469.1 972 469.1 972 508.7 979.5 c 128,-1,6
 548.3 987 548.3 987 587.9 987 c 0,7,8
 812.9 987 812.9 987 944.3 850 c 128,-1,9
 1075.7 713 1075.7 713 1075.7 479 c 0,10,11
 1075.7 238 1075.7 238 940.7 104.5 c 128,-1,12
 805.7 -29 805.7 -29 560 -29 c 0,13,14
 475.4 -29 475.4 -29 387.65 -13 c 128,-1,15
 299.9 3 299.9 3 206.3 35 c 1,16,-1
 206.3 238 l 1,17,18
 287.3 189 287.3 189 373.7 165 c 128,-1,19
 460.1 141 460.1 141 556.4 141 c 0,20,21
 712.1 141 712.1 141 803 232 c 128,-1,22
 893.9 323 893.9 323 893.9 479 c 0,23,24
 893.9 635 893.9 635 803 726 c 128,-1,25
 712.1 817 712.1 817 556.4 817 c 0,26,27
 483.5 817 483.5 817 411.05 799 c 128,-1,28
 338.6 781 338.6 781 263 743 c 1,29,-1
 263 1493 l 1,0,-1
EndSplineSet
EndChar
StartChar: six
Encoding: 54 54 25
Width: 1238
Flags: HW
Fore
674.25 827 m 0,0,1
 551.85 827 551.85 827 480.3 734 c 128,-1,2
 408.75 641 408.75 641 408.75 479 c 0,3,4
 408.75 318 408.75 318 480.3 224.5 c 128,-1,5
 551.85 131 551.85 131 674.25 131 c 0,6,7
 796.65 131 796.65 131 868.2 224.5 c 128,-1,8
 939.75 318 939.75 318 939.75 479 c 0,9,10
 939.75 641 939.75 641 868.2 734 c 128,-1,11
 796.65 827 796.65 827 674.25 827 c 0,0,1
1035.15 1460 m 1,12,-1
 1035.15 1276 l 1,13,14
 966.75 1312 966.75 1312 897 1331 c 128,-1,15
 827.25 1350 827.25 1350 758.85 1350 c 0,16,17
 578.85 1350 578.85 1350 483.9 1215 c 128,-1,18
 388.95 1080 388.95 1080 375.45 807 c 1,19,20
 428.55 894 428.55 894 508.65 940.5 c 128,-1,21
 588.75 987 588.75 987 685.05 987 c 0,22,23
 887.55 987 887.55 987 1005 850.5 c 128,-1,24
 1122.45 714 1122.45 714 1122.45 479 c 0,25,26
 1122.45 249 1122.45 249 1000.05 110 c 128,-1,27
 877.65 -29 877.65 -29 674.25 -29 c 0,28,29
 441.15 -29 441.15 -29 317.85 169.5 c 128,-1,30
 194.55 368 194.55 368 194.55 745 c 0,31,32
 194.55 1099 194.55 1099 345.75 1309.5 c 128,-1,33
 496.95 1520 496.95 1520 751.65 1520 c 0,34,35
 820.05 1520 820.05 1520 889.8 1505 c 128,-1,36
 959.55 1490 959.55 1490 1035.15 1460 c 1,12,-1
EndSplineSet
EndChar
StartChar: seven
Encoding: 55 55 26
Width: 1237
Flags: HW
Fore
216 1493 m 1,0,-1
 1080 1493 l 1,1,-1
 1080 1407 l 1,2,-1
 592.2 0 l 1,3,-1
 402.3 0 l 1,4,-1
 861.3 1323 l 1,5,-1
 216 1323 l 1,6,-1
 216 1493 l 1,0,-1
EndSplineSet
EndChar
StartChar: eight
Encoding: 56 56 27
Width: 1237
Flags: HW
Fore
651 709 m 0,0,1
 521.4 709 521.4 709 447.15 632 c 128,-1,2
 372.9 555 372.9 555 372.9 420 c 0,3,4
 372.9 285 372.9 285 447.15 208 c 128,-1,5
 521.4 131 521.4 131 651 131 c 0,6,7
 780.6 131 780.6 131 855.3 208.5 c 128,-1,8
 930 286 930 286 930 420 c 0,9,10
 930 555 930 555 855.75 632 c 128,-1,11
 781.5 709 781.5 709 651 709 c 0,0,1
469.2 795 m 1,12,13
 352.2 827 352.2 827 286.95 916 c 128,-1,14
 221.7 1005 221.7 1005 221.7 1133 c 0,15,16
 221.7 1312 221.7 1312 336.45 1416 c 128,-1,17
 451.2 1520 451.2 1520 651 1520 c 0,18,19
 851.7 1520 851.7 1520 966 1416 c 128,-1,20
 1080.3 1312 1080.3 1312 1080.3 1133 c 0,21,22
 1080.3 1005 1080.3 1005 1015.05 916 c 128,-1,23
 949.8 827 949.8 827 833.7 795 c 1,24,25
 965.1 761 965.1 761 1038.45 662 c 128,-1,26
 1111.8 563 1111.8 563 1111.8 420 c 0,27,28
 1111.8 203 1111.8 203 992.55 87 c 128,-1,29
 873.3 -29 873.3 -29 651 -29 c 0,30,31
 428.7 -29 428.7 -29 309.45 87 c 128,-1,32
 190.2 203 190.2 203 190.2 420 c 0,33,34
 190.2 563 190.2 563 264 662 c 128,-1,35
 337.8 761 337.8 761 469.2 795 c 1,12,13
402.6 1114 m 0,36,37
 402.6 998 402.6 998 467.85 933 c 128,-1,38
 533.1 868 533.1 868 651 868 c 0,39,40
 768 868 768 868 834.15 933 c 128,-1,41
 900.3 998 900.3 998 900.3 1114 c 0,42,43
 900.3 1230 900.3 1230 834.15 1295 c 128,-1,44
 768 1360 768 1360 651 1360 c 0,45,46
 533.1 1360 533.1 1360 467.85 1295 c 128,-1,47
 402.6 1230 402.6 1230 402.6 1114 c 0,36,37
EndSplineSet
EndChar
StartChar: nine
Encoding: 57 57 28
Width: 1237
Flags: HW
Fore
266.9 31 m 1,0,-1
 266.9 215 l 1,1,2
 335.3 179 335.3 179 405.5 160 c 128,-1,3
 475.7 141 475.7 141 543.2 141 c 0,4,5
 723.2 141 723.2 141 818.15 275.5 c 128,-1,6
 913.1 410 913.1 410 926.6 684 c 1,7,8
 874.4 598 874.4 598 794.3 552 c 128,-1,9
 714.2 506 714.2 506 617 506 c 0,10,11
 415.4 506 415.4 506 297.95 641.5 c 128,-1,12
 180.5 777 180.5 777 180.5 1012 c 0,13,14
 180.5 1242 180.5 1242 302.9 1381 c 128,-1,15
 425.3 1520 425.3 1520 628.7 1520 c 0,16,17
 861.8 1520 861.8 1520 984.65 1321.5 c 128,-1,18
 1107.5 1123 1107.5 1123 1107.5 745 c 0,19,20
 1107.5 392 1107.5 392 956.75 181.5 c 128,-1,21
 806 -29 806 -29 551.3 -29 c 0,22,23
 482.9 -29 482.9 -29 412.7 -14 c 128,-1,24
 342.5 1 342.5 1 266.9 31 c 1,0,-1
628.7 664 m 0,25,26
 751.1 664 751.1 664 822.65 757 c 128,-1,27
 894.2 850 894.2 850 894.2 1012 c 0,28,29
 894.2 1173 894.2 1173 822.65 1266.5 c 128,-1,30
 751.1 1360 751.1 1360 628.7 1360 c 0,31,32
 506.3 1360 506.3 1360 434.75 1266.5 c 128,-1,33
 363.2 1173 363.2 1173 363.2 1012 c 0,34,35
 363.2 850 363.2 850 434.75 757 c 128,-1,36
 506.3 664 506.3 664 628.7 664 c 0,25,26
EndSplineSet
EndChar
StartChar: colon
Encoding: 58 58 29
Width: 655
Flags: HW
Fore
250.55 254 m 1,0,-1
 440.45 254 l 1,1,-1
 440.45 0 l 1,2,-1
 250.55 0 l 1,3,-1
 250.55 254 l 1,0,-1
250.55 1059 m 1,4,-1
 440.45 1059 l 1,5,-1
 440.45 805 l 1,6,-1
 250.55 805 l 1,7,-1
 250.55 1059 l 1,4,-1
EndSplineSet
EndChar
StartChar: semicolon
Encoding: 59 59 30
Width: 651
Flags: HW
Fore
246.45 1059 m 1,0,-1
 436.35 1059 l 1,1,-1
 436.35 805 l 1,2,-1
 246.45 805 l 1,3,-1
 246.45 1059 l 1,0,-1
246.45 254 m 1,4,-1
 436.35 254 l 1,5,-1
 436.35 82 l 1,6,-1
 288.75 -238 l 1,7,-1
 172.65 -238 l 1,8,-1
 246.45 82 l 1,9,-1
 246.45 254 l 1,4,-1
EndSplineSet
EndChar
StartChar: less
Encoding: 60 60 31
Width: 1630
Flags: HW
Fore
1434.9 1008 m 1,0,-1
 506.1 641 l 1,1,-1
 1434.9 276 l 1,2,-1
 1434.9 94 l 1,3,-1
 281.1 559 l 1,4,-1
 281.1 725 l 1,5,-1
 1434.9 1190 l 1,6,-1
 1434.9 1008 l 1,0,-1
EndSplineSet
EndChar
StartChar: equal
Encoding: 61 61 32
Width: 1630
Flags: HW
Fore
281.1 930 m 1,0,-1
 1434.9 930 l 1,1,-1
 1434.9 762 l 1,2,-1
 281.1 762 l 1,3,-1
 281.1 930 l 1,0,-1
281.1 522 m 1,4,-1
 1434.9 522 l 1,5,-1
 1434.9 352 l 1,6,-1
 281.1 352 l 1,7,-1
 281.1 522 l 1,4,-1
EndSplineSet
EndChar
StartChar: greater
Encoding: 62 62 33
Width: 1630
Flags: HW
Fore
281.1 1008 m 1,0,-1
 281.1 1190 l 1,1,-1
 1434.9 725 l 1,2,-1
 1434.9 559 l 1,3,-1
 281.1 94 l 1,4,-1
 281.1 276 l 1,5,-1
 1208.1 641 l 1,6,-1
 281.1 1008 l 1,0,-1
EndSplineSet
EndChar
StartChar: question
Encoding: 63 63 34
Width: 1032
Flags: HW
Fore
406.45 254 m 1,0,-1
 589.15 254 l 1,1,-1
 589.15 0 l 1,2,-1
 406.45 0 l 1,3,-1
 406.45 254 l 1,0,-1
583.75 401 m 1,4,-1
 411.85 401 l 1,5,-1
 411.85 555 l 2,6,7
 411.85 656 411.85 656 437.05 721 c 128,-1,8
 462.25 786 462.25 786 543.25 872 c 1,9,-1
 624.25 961 l 1,10,11
 675.55 1014 675.55 1014 698.5 1061 c 128,-1,12
 721.45 1108 721.45 1108 721.45 1157 c 0,13,14
 721.45 1246 721.45 1246 662.5 1301 c 128,-1,15
 603.55 1356 603.55 1356 506.35 1356 c 0,16,17
 435.25 1356 435.25 1356 354.7 1321 c 128,-1,18
 274.15 1286 274.15 1286 186.85 1219 c 1,19,-1
 186.85 1407 l 1,20,21
 271.45 1464 271.45 1464 358.3 1492 c 128,-1,22
 445.15 1520 445.15 1520 537.85 1520 c 0,23,24
 703.45 1520 703.45 1520 803.8 1423 c 128,-1,25
 904.15 1326 904.15 1326 904.15 1167 c 0,26,27
 904.15 1091 904.15 1091 871.75 1022.5 c 128,-1,28
 839.35 954 839.35 954 758.35 868 c 2,29,-1
 679.15 782 l 2,30,31
 636.85 735 636.85 735 619.3 708.5 c 128,-1,32
 601.75 682 601.75 682 594.55 657 c 0,33,34
 589.15 636 589.15 636 586.45 606 c 128,-1,35
 583.75 576 583.75 576 583.75 524 c 2,36,-1
 583.75 401 l 1,4,-1
EndSplineSet
EndChar
StartChar: at
Encoding: 64 64 35
Width: 1945
Flags: HW
Fore
787.8 537 m 0,0,1
 787.8 394 787.8 394 851.7 312.5 c 128,-1,2
 915.6 231 915.6 231 1027.2 231 c 0,3,4
 1137.9 231 1137.9 231 1201.35 313 c 128,-1,5
 1264.8 395 1264.8 395 1264.8 537 c 0,6,7
 1264.8 677 1264.8 677 1200 759.5 c 128,-1,8
 1135.2 842 1135.2 842 1025.4 842 c 0,9,10
 916.5 842 916.5 842 852.15 760 c 128,-1,11
 787.8 678 787.8 678 787.8 537 c 0,0,1
1278.3 238 m 1,12,13
 1224.3 161 1224.3 161 1154.55 124.5 c 128,-1,14
 1084.8 88 1084.8 88 992.1 88 c 0,15,16
 837.3 88 837.3 88 740.55 212.5 c 128,-1,17
 643.8 337 643.8 337 643.8 537 c 0,18,19
 643.8 737 643.8 737 741 862 c 128,-1,20
 838.2 987 838.2 987 992.1 987 c 0,21,22
 1084.8 987 1084.8 987 1155 949.5 c 128,-1,23
 1225.2 912 1225.2 912 1278.3 836 c 1,24,-1
 1278.3 967 l 1,25,-1
 1407 967 l 1,26,-1
 1407 231 l 1,27,28
 1538.4 253 1538.4 253 1612.65 364.5 c 128,-1,29
 1686.9 476 1686.9 476 1686.9 653 c 0,30,31
 1686.9 760 1686.9 760 1658.55 854 c 128,-1,32
 1630.2 948 1630.2 948 1572.6 1028 c 0,33,34
 1479 1159 1479 1159 1344.45 1228.5 c 128,-1,35
 1209.9 1298 1209.9 1298 1051.5 1298 c 0,36,37
 940.8 1298 940.8 1298 839.1 1265.5 c 128,-1,38
 737.4 1233 737.4 1233 651 1169 c 1,39,40
 509.7 1067 509.7 1067 430.05 901.5 c 128,-1,41
 350.4 736 350.4 736 350.4 543 c 0,42,43
 350.4 384 350.4 384 402.15 245 c 128,-1,44
 453.9 106 453.9 106 552 0 c 0,45,46
 646.5 -104 646.5 -104 770.7 -158.5 c 128,-1,47
 894.9 -213 894.9 -213 1036.2 -213 c 0,48,49
 1152.3 -213 1152.3 -213 1264.35 -169.5 c 128,-1,50
 1376.4 -126 1376.4 -126 1470 -45 c 1,51,-1
 1551 -156 l 1,52,53
 1438.5 -253 1438.5 -253 1305.75 -304.5 c 128,-1,54
 1173 -356 1173 -356 1036.2 -356 c 0,55,56
 869.7 -356 869.7 -356 722.1 -290.5 c 128,-1,57
 574.5 -225 574.5 -225 459.3 -100 c 0,58,59
 344.1 25 344.1 25 283.8 189.5 c 128,-1,60
 223.5 354 223.5 354 223.5 543 c 0,61,62
 223.5 725 223.5 725 284.7 890 c 128,-1,63
 345.9 1055 345.9 1055 459.3 1180 c 0,64,65
 575.4 1307 575.4 1307 727.5 1374.5 c 128,-1,66
 879.6 1442 879.6 1442 1049.7 1442 c 0,67,68
 1240.5 1442 1240.5 1442 1403.85 1355 c 128,-1,69
 1567.2 1268 1567.2 1268 1677.9 1108 c 0,70,71
 1745.4 1010 1745.4 1010 1780.95 895 c 128,-1,72
 1816.5 780 1816.5 780 1816.5 657 c 0,73,74
 1816.5 394 1816.5 394 1673.4 242 c 128,-1,75
 1530.3 90 1530.3 90 1278.3 84 c 1,76,-1
 1278.3 238 l 1,12,13
EndSplineSet
EndChar
StartChar: A
Encoding: 65 65 36
Width: 1330
Flags: HW
Fore
700 1294 m 1,0,-1
 453.4 551 l 1,1,-1
 947.5 551 l 1,2,-1
 700 1294 l 1,0,-1
597.4 1493 m 1,3,-1
 803.5 1493 l 1,4,-1
 1315.6 0 l 1,5,-1
 1126.6 0 l 1,6,-1
 1004.2 383 l 1,7,-1
 398.5 383 l 1,8,-1
 276.1 0 l 1,9,-1
 84.4004 0 l 1,10,-1
 597.4 1493 l 1,3,-1
EndSplineSet
KernsSLIF: 288 -36 0 0 284 -36 0 0 7923 -139 0 0 561 -36 0 0 562 -159 0 0 563 -139 0 0 375 -139 0 0 7813 -83 0 0 7811 -83 0 0 7809 -83 0 0 373 -83 0 0 539 -36 0 0 355 -36 0 0 493 -36 0 0 491 -36 0 0 337 -36 0 0 335 -36 0 0 333 -36 0 0 281 -36 0 0 279 -36 0 0 277 -36 0 0 275 -36 0 0 454 -36 0 0 273 -36 0 0 267 -36 0 0 265 -36 0 0 7922 -159 0 0 374 -159 0 0 7812 -112 0 0 7810 -112 0 0 7808 -112 0 0 372 -112 0 0 538 -159 0 0 354 -159 0 0 558 -36 0 0 492 -36 0 0 490 -36 0 0 336 -36 0 0 334 -36 0 0 332 -36 0 0 266 -36 0 0 264 -36 0 0 260 57 0 0 258 57 0 0 256 57 0 0 357 -36 0 0 356 -159 0 0 283 -36 0 0 271 -36 0 0 269 -36 0 0 268 -36 0 0 263 -36 0 0 262 -36 0 0 286 -36 0 0 253 -139 0 0 221 -159 0 0 210 -36 0 0 212 -36 0 0 211 -36 0 0 193 57 0 0 194 57 0 0 8222 47 0 0 376 -159 0 0 255 -139 0 0 8221 -253 0 0 8220 -264 0 0 213 -36 0 0 195 57 0 0 192 57 0 0 171 -73 0 0 245 -36 0 0 246 -36 0 0 244 -36 0 0 242 -36 0 0 243 -36 0 0 235 -36 0 0 234 -36 0 0 232 -36 0 0 233 -36 0 0 231 -36 0 0 214 -36 0 0 199 -36 0 0 196 57 0 0 121 -139 0 0 119 -83 0 0 118 -120 0 0 116 -36 0 0 113 -36 0 0 111 -36 0 0 102 -73 0 0 101 -36 0 0 100 -36 0 0 99 -36 0 0 89 -159 0 0 87 -112 0 0 86 -131 0 0 84 -159 0 0 81 -36 0 0 79 -36 0 0 71 -36 0 0 67 -36 0 0 65 57 0 0 58 -36 0 0 46 -36 0 0 45 -45 0 0
EndChar
StartChar: B
Encoding: 66 66 37
Width: 1337
Flags: HW
Fore
435.75 713 m 1,0,-1
 435.75 166 l 1,1,-1
 727.35 166 l 2,2,3
 874.05 166 874.05 166 944.7 233.5 c 128,-1,4
 1015.35 301 1015.35 301 1015.35 440 c 0,5,6
 1015.35 580 1015.35 580 944.7 646.5 c 128,-1,7
 874.05 713 874.05 713 727.35 713 c 2,8,-1
 435.75 713 l 1,0,-1
435.75 1327 m 1,9,-1
 435.75 877 l 1,10,-1
 704.85 877 l 2,11,12
 838.05 877 838.05 877 903.3 932.5 c 128,-1,13
 968.55 988 968.55 988 968.55 1102 c 0,14,15
 968.55 1215 968.55 1215 903.3 1271 c 128,-1,16
 838.05 1327 838.05 1327 704.85 1327 c 2,17,-1
 435.75 1327 l 1,9,-1
253.95 1493 m 1,18,-1
 718.35 1493 l 2,19,20
 926.25 1493 926.25 1493 1038.75 1397 c 128,-1,21
 1151.25 1301 1151.25 1301 1151.25 1124 c 0,22,23
 1151.25 987 1151.25 987 1093.65 906 c 128,-1,24
 1036.05 825 1036.05 825 924.45 805 c 1,25,26
 1058.55 773 1058.55 773 1132.8 671.5 c 128,-1,27
 1207.05 570 1207.05 570 1207.05 418 c 0,28,29
 1207.05 218 1207.05 218 1084.65 109 c 128,-1,30
 962.25 0 962.25 0 736.35 0 c 2,31,-1
 253.95 0 l 1,32,-1
 253.95 1493 l 1,18,-1
EndSplineSet
KernsSLIF: 558 -36 0 0 492 -36 0 0 490 -36 0 0 7922 -112 0 0 374 -112 0 0 7812 -73 0 0 7810 -73 0 0 7808 -73 0 0 372 -73 0 0 536 -36 0 0 348 -36 0 0 346 -36 0 0 336 -36 0 0 334 -36 0 0 332 -36 0 0 290 -36 0 0 288 -36 0 0 284 -36 0 0 266 -36 0 0 264 -36 0 0 268 -36 0 0 262 -36 0 0 350 -36 0 0 286 -36 0 0 221 -112 0 0 352 -36 0 0 210 -36 0 0 212 -36 0 0 211 -36 0 0 8222 -83 0 0 376 -112 0 0 8221 -112 0 0 8220 -112 0 0 213 -36 0 0 187 -36 0 0 171 -63 0 0 214 -36 0 0 199 -36 0 0 89 -112 0 0 87 -73 0 0 86 -63 0 0 83 -36 0 0 79 -36 0 0 71 -36 0 0 67 -36 0 0
EndChar
StartChar: C
Encoding: 67 67 38
Width: 1358
Flags: HW
Fore
1258.8 1378 m 1,0,-1
 1258.8 1165 l 1,1,2
 1167 1260 1167 1260 1063.05 1307 c 128,-1,3
 959.1 1354 959.1 1354 842.1 1354 c 0,4,5
 611.7 1354 611.7 1354 489.3 1197.5 c 128,-1,6
 366.9 1041 366.9 1041 366.9 745 c 0,7,8
 366.9 450 366.9 450 489.3 293.5 c 128,-1,9
 611.7 137 611.7 137 842.1 137 c 0,10,11
 959.1 137 959.1 137 1063.05 184 c 128,-1,12
 1167 231 1167 231 1258.8 326 c 1,13,-1
 1258.8 115 l 1,14,15
 1163.4 43 1163.4 43 1056.75 7 c 128,-1,16
 950.1 -29 950.1 -29 831.3 -29 c 0,17,18
 526.2 -29 526.2 -29 350.7 178.5 c 128,-1,19
 175.2 386 175.2 386 175.2 745 c 0,20,21
 175.2 1105 175.2 1105 350.7 1312.5 c 128,-1,22
 526.2 1520 526.2 1520 831.3 1520 c 0,23,24
 951.9 1520 951.9 1520 1058.55 1484.5 c 128,-1,25
 1165.2 1449 1165.2 1449 1258.8 1378 c 1,0,-1
EndSplineSet
KernsSLIF: 562 -36 0 0 7922 -36 0 0 374 -36 0 0 221 -36 0 0 376 -36 0 0 8221 38 0 0 187 -36 0 0 171 -36 0 0 89 -36 0 0
EndChar
StartChar: D
Encoding: 68 68 39
Width: 1502
Flags: HW
Fore
445.55 1327 m 1,0,-1
 445.55 166 l 1,1,-1
 665.15 166 l 2,2,3
 943.25 166 943.25 166 1072.4 306 c 128,-1,4
 1201.55 446 1201.55 446 1201.55 748 c 0,5,6
 1201.55 1048 1201.55 1048 1072.4 1187.5 c 128,-1,7
 943.25 1327 943.25 1327 665.15 1327 c 2,8,-1
 445.55 1327 l 1,0,-1
263.75 1493 m 1,9,-1
 637.25 1493 l 2,10,11
 1027.85 1493 1027.85 1493 1210.55 1312.5 c 128,-1,12
 1393.25 1132 1393.25 1132 1393.25 748 c 0,13,14
 1393.25 362 1393.25 362 1209.65 181 c 128,-1,15
 1026.05 0 1026.05 0 637.25 0 c 2,16,-1
 263.75 0 l 1,17,-1
 263.75 1493 l 1,9,-1
EndSplineSet
KernsSLIF: 7922 -112 0 0 562 -112 0 0 374 -112 0 0 260 -36 0 0 258 -36 0 0 256 -36 0 0 221 -112 0 0 193 -36 0 0 194 -36 0 0 8222 -188 0 0 376 -112 0 0 8221 -55 0 0 8220 -45 0 0 195 -36 0 0 192 -36 0 0 187 -36 0 0 171 -36 0 0 196 -36 0 0 89 -112 0 0 86 -36 0 0 65 -36 0 0
EndChar
StartChar: E
Encoding: 69 69 40
Width: 1232
Flags: HW
Fore
249.1 1493 m 1,0,-1
 1098.7 1493 l 1,1,-1
 1098.7 1323 l 1,2,-1
 430.9 1323 l 1,3,-1
 430.9 881 l 1,4,-1
 1070.8 881 l 1,5,-1
 1070.8 711 l 1,6,-1
 430.9 711 l 1,7,-1
 430.9 170 l 1,8,-1
 1114.9 170 l 1,9,-1
 1114.9 0 l 1,10,-1
 249.1 0 l 1,11,-1
 249.1 1493 l 1,0,-1
EndSplineSet
EndChar
StartChar: F
Encoding: 70 70 41
Width: 1123
Flags: HW
Fore
243.9 1493 m 1,0,-1
 1016.1 1493 l 1,1,-1
 1016.1 1323 l 1,2,-1
 425.7 1323 l 1,3,-1
 425.7 883 l 1,4,-1
 958.5 883 l 1,5,-1
 958.5 713 l 1,6,-1
 425.7 713 l 1,7,-1
 425.7 0 l 1,8,-1
 243.9 0 l 1,9,-1
 243.9 1493 l 1,0,-1
EndSplineSet
KernsSLIF: 252 -112 0 0 229 -188 0 0 242 -73 0 0 244 -73 0 0 8222 -376 0 0 367 -112 0 0 245 -73 0 0 235 -112 0 0 249 -112 0 0 58 -159 0 0 224 -188 0 0 195 -188 0 0 234 -112 0 0 352 -36 0 0 341 -149 0 0 232 -112 0 0 196 -188 0 0 350 -36 0 0 193 -188 0 0 345 -149 0 0 251 -112 0 0 253 -188 0 0 227 -188 0 0 194 -188 0 0 65 -188 0 0 97 -188 0 0 228 -188 0 0 8220 -45 0 0 246 -73 0 0 250 -112 0 0 225 -188 0 0 46 -329 0 0 83 -36 0 0 84 -36 0 0 226 -188 0 0 233 -112 0 0 356 -36 0 0 283 -112 0 0 101 -112 0 0 105 -149 0 0 255 -188 0 0 111 -73 0 0 114 -149 0 0 117 -112 0 0 192 -188 0 0 121 -188 0 0 243 -73 0 0
EndChar
StartChar: G
Encoding: 71 71 42
Width: 1505
Flags: HW
Fore
1173.8 213 m 1,0,-1
 1173.8 614 l 1,1,-1
 876.8 614 l 1,2,-1
 876.8 780 l 1,3,-1
 1353.8 780 l 1,4,-1
 1353.8 139 l 1,5,6
 1248.5 56 1248.5 56 1121.6 13.5 c 128,-1,7
 994.7 -29 994.7 -29 850.7 -29 c 0,8,9
 535.7 -29 535.7 -29 357.95 175.5 c 128,-1,10
 180.2 380 180.2 380 180.2 745 c 0,11,12
 180.2 1111 180.2 1111 357.95 1315.5 c 128,-1,13
 535.7 1520 535.7 1520 850.7 1520 c 0,14,15
 982.1 1520 982.1 1520 1100.45 1484 c 128,-1,16
 1218.8 1448 1218.8 1448 1318.7 1378 c 1,17,-1
 1318.7 1163 l 1,18,19
 1217.9 1258 1217.9 1258 1104.5 1306 c 128,-1,20
 991.1 1354 991.1 1354 866 1354 c 0,21,22
 619.4 1354 619.4 1354 495.65 1201 c 128,-1,23
 371.9 1048 371.9 1048 371.9 745 c 0,24,25
 371.9 443 371.9 443 495.65 290 c 128,-1,26
 619.4 137 619.4 137 866 137 c 0,27,28
 962.3 137 962.3 137 1037.9 155.5 c 128,-1,29
 1113.5 174 1113.5 174 1173.8 213 c 1,0,-1
EndSplineSet
KernsSLIF: 356 -73 0 0 221 -102 0 0 8222 -55 0 0 376 -102 0 0 8221 -45 0 0 8220 -45 0 0 187 -36 0 0 171 -36 0 0 89 -102 0 0 84 -73 0 0
EndChar
StartChar: H
Encoding: 72 72 43
Width: 1463
Flags: HW
Fore
257.9 1493 m 1,0,-1
 439.7 1493 l 1,1,-1
 439.7 881 l 1,2,-1
 1100.3 881 l 1,3,-1
 1100.3 1493 l 1,4,-1
 1282.1 1493 l 1,5,-1
 1282.1 0 l 1,6,-1
 1100.3 0 l 1,7,-1
 1100.3 711 l 1,8,-1
 439.7 711 l 1,9,-1
 439.7 0 l 1,10,-1
 257.9 0 l 1,11,-1
 257.9 1493 l 1,0,-1
EndSplineSet
KernsSLIF: 8222 -73 0 0 8221 -63 0 0 8220 -73 0 0 46 -36 0 0
EndChar
StartChar: I
Encoding: 73 73 44
Width: 573
Flags: HW
Fore
211.1 1493 m 1,0,-1
 392.9 1493 l 1,1,-1
 392.9 0 l 1,2,-1
 211.1 0 l 1,3,-1
 211.1 1493 l 1,0,-1
EndSplineSet
EndChar
StartChar: J
Encoding: 74 74 45
Width: 558
Flags: HW
Fore
195.75 1493 m 1,0,-1
 377.55 1493 l 1,1,-1
 377.55 104 l 2,2,3
 377.55 -166 377.55 -166 285.3 -288 c 128,-1,4
 193.05 -410 193.05 -410 -11.25 -410 c 2,5,-1
 -80.5498 -410 l 1,6,-1
 -80.5498 -240 l 1,7,-1
 -23.8496 -240 l 2,8,9
 96.75 -240 96.75 -240 146.25 -165 c 128,-1,10
 195.75 -90 195.75 -90 195.75 104 c 2,11,-1
 195.75 1493 l 1,0,-1
EndSplineSet
KernsSLIF: 193 -36 0 0 194 -36 0 0 8222 -112 0 0 8221 -63 0 0 8220 -73 0 0 195 -36 0 0 192 -36 0 0 187 -36 0 0 171 -36 0 0 196 -36 0 0 65 -36 0 0 45 -73 0 0
EndChar
StartChar: K
Encoding: 75 75 46
Width: 1288
Flags: HW
Fore
260.25 1493 m 1,0,-1
 442.05 1493 l 1,1,-1
 442.05 862 l 1,2,-1
 1045.05 1493 l 1,3,-1
 1279.05 1493 l 1,4,-1
 612.15 797 l 1,5,-1
 1326.75 0 l 1,6,-1
 1087.35 0 l 1,7,-1
 442.05 719 l 1,8,-1
 442.05 0 l 1,9,-1
 260.25 0 l 1,10,-1
 260.25 1493 l 1,0,-1
EndSplineSet
KernsSLIF: 367 -102 0 0 366 -55 0 0 356 -159 0 0 283 -102 0 0 268 -112 0 0 262 -112 0 0 253 -149 0 0 221 -73 0 0 217 -55 0 0 219 -55 0 0 218 -55 0 0 210 -112 0 0 212 -112 0 0 211 -112 0 0 193 -36 0 0 194 -36 0 0 376 -73 0 0 255 -149 0 0 8221 -63 0 0 8220 -63 0 0 213 -112 0 0 195 -36 0 0 192 -36 0 0 171 -131 0 0 252 -102 0 0 251 -102 0 0 249 -102 0 0 250 -102 0 0 245 -102 0 0 246 -102 0 0 244 -102 0 0 242 -102 0 0 243 -102 0 0 235 -102 0 0 234 -102 0 0 232 -102 0 0 233 -102 0 0 229 -36 0 0 227 -36 0 0 228 -36 0 0 226 -36 0 0 224 -36 0 0 225 -36 0 0 220 -55 0 0 214 -112 0 0 199 -112 0 0 196 -36 0 0 121 -149 0 0 117 -102 0 0 111 -102 0 0 101 -102 0 0 97 -36 0 0 89 -73 0 0 87 -73 0 0 85 -55 0 0 84 -159 0 0 79 -112 0 0 67 -112 0 0 65 -36 0 0 45 -215 0 0
EndChar
StartChar: L
Encoding: 76 76 47
Width: 1093
Flags: HW
Fore
247.45 1493 m 1,0,-1
 429.25 1493 l 1,1,-1
 429.25 170 l 1,2,-1
 1083.55 170 l 1,3,-1
 1083.55 0 l 1,4,-1
 247.45 0 l 1,5,-1
 247.45 1493 l 1,0,-1
EndSplineSet
KernsSLIF: 367 -36 0 0 366 -102 0 0 356 -282 0 0 283 -36 0 0 253 -188 0 0 221 -272 0 0 217 -102 0 0 219 -102 0 0 218 -102 0 0 210 -73 0 0 212 -73 0 0 211 -73 0 0 193 47 0 0 194 47 0 0 376 -272 0 0 255 -188 0 0 8221 -538 0 0 8220 -415 0 0 213 -73 0 0 195 47 0 0 192 47 0 0 252 -36 0 0 251 -36 0 0 249 -36 0 0 250 -36 0 0 245 -36 0 0 246 -36 0 0 244 -36 0 0 242 -36 0 0 243 -36 0 0 235 -36 0 0 234 -36 0 0 232 -36 0 0 233 -36 0 0 220 -102 0 0 214 -73 0 0 196 47 0 0 121 -188 0 0 117 -36 0 0 111 -36 0 0 101 -36 0 0 89 -272 0 0 87 -188 0 0 86 -225 0 0 85 -102 0 0 84 -282 0 0 79 -73 0 0 65 47 0 0 45 -36 0 0
EndChar
StartChar: M
Encoding: 77 77 48
Width: 1678
Flags: HW
Fore
269.3 1493 m 1,0,-1
 540.2 1493 l 1,1,-1
 883.1 477 l 1,2,-1
 1227.8 1493 l 1,3,-1
 1498.7 1493 l 1,4,-1
 1498.7 0 l 1,5,-1
 1321.4 0 l 1,6,-1
 1321.4 1311 l 1,7,-1
 974.9 287 l 1,8,-1
 792.2 287 l 1,9,-1
 445.7 1311 l 1,10,-1
 445.7 0 l 1,11,-1
 269.3 0 l 1,12,-1
 269.3 1493 l 1,0,-1
EndSplineSet
EndChar
StartChar: N
Encoding: 78 78 49
Width: 1455
Flags: HW
Fore
257.5 1493 m 1,0,-1
 502.3 1493 l 1,1,-1
 1098.1 244 l 1,2,-1
 1098.1 1493 l 1,3,-1
 1274.5 1493 l 1,4,-1
 1274.5 0 l 1,5,-1
 1029.7 0 l 1,6,-1
 433.9 1249 l 1,7,-1
 433.9 0 l 1,8,-1
 257.5 0 l 1,9,-1
 257.5 1493 l 1,0,-1
EndSplineSet
EndChar
StartChar: O
Encoding: 79 79 50
Width: 1531
Flags: HW
Fore
806.9 1356 m 0,0,1
 608.9 1356 608.9 1356 492.35 1192 c 128,-1,2
 375.8 1028 375.8 1028 375.8 745 c 0,3,4
 375.8 463 375.8 463 492.35 299 c 128,-1,5
 608.9 135 608.9 135 806.9 135 c 0,6,7
 1004.9 135 1004.9 135 1120.55 299 c 128,-1,8
 1236.2 463 1236.2 463 1236.2 745 c 0,9,10
 1236.2 1028 1236.2 1028 1120.55 1192 c 128,-1,11
 1004.9 1356 1004.9 1356 806.9 1356 c 0,0,1
806.9 1520 m 0,12,13
 1089.5 1520 1089.5 1520 1258.7 1309.5 c 128,-1,14
 1427.9 1099 1427.9 1099 1427.9 745 c 0,15,16
 1427.9 392 1427.9 392 1258.7 181.5 c 128,-1,17
 1089.5 -29 1089.5 -29 806.9 -29 c 0,18,19
 523.4 -29 523.4 -29 353.75 181 c 128,-1,20
 184.1 391 184.1 391 184.1 745 c 0,21,22
 184.1 1099 184.1 1099 353.75 1309.5 c 128,-1,23
 523.4 1520 523.4 1520 806.9 1520 c 0,12,13
EndSplineSet
KernsSLIF: 221 -112 0 0 193 -36 0 0 194 -36 0 0 8222 -188 0 0 376 -112 0 0 8221 -36 0 0 8220 -45 0 0 195 -36 0 0 192 -36 0 0 171 -36 0 0 196 -36 0 0 89 -112 0 0 88 -131 0 0 86 -36 0 0 65 -36 0 0 58 -36 0 0 46 -83 0 0 45 57 0 0
EndChar
StartChar: P
Encoding: 80 80 51
Width: 1179
Flags: HW
Fore
431 1327 m 1,0,-1
 431 766 l 1,1,-1
 659.6 766 l 2,2,3
 786.5 766 786.5 766 855.8 839 c 128,-1,4
 925.1 912 925.1 912 925.1 1047 c 0,5,6
 925.1 1181 925.1 1181 855.8 1254 c 128,-1,7
 786.5 1327 786.5 1327 659.6 1327 c 2,8,-1
 431 1327 l 1,0,-1
249.2 1493 m 1,9,-1
 659.6 1493 l 2,10,11
 885.5 1493 885.5 1493 1001.15 1379.5 c 128,-1,12
 1116.8 1266 1116.8 1266 1116.8 1047 c 0,13,14
 1116.8 826 1116.8 826 1001.15 713 c 128,-1,15
 885.5 600 885.5 600 659.6 600 c 2,16,-1
 431 600 l 1,17,-1
 431 0 l 1,18,-1
 249.2 0 l 1,19,-1
 249.2 1493 l 1,9,-1
EndSplineSet
KernsSLIF: 252 -36 0 0 229 -92 0 0 242 -73 0 0 45 -45 0 0 8222 -329 0 0 367 -36 0 0 245 -73 0 0 235 -73 0 0 226 -92 0 0 249 -36 0 0 221 -45 0 0 224 -92 0 0 195 -131 0 0 234 -73 0 0 341 -36 0 0 8221 38 0 0 232 -73 0 0 196 -131 0 0 241 -36 0 0 193 -131 0 0 345 -36 0 0 233 -73 0 0 251 -36 0 0 227 -92 0 0 194 -131 0 0 244 -73 0 0 353 -36 0 0 65 -131 0 0 97 -92 0 0 228 -92 0 0 8220 38 0 0 246 -73 0 0 250 -36 0 0 351 -36 0 0 376 -45 0 0 225 -92 0 0 46 -319 0 0 89 -45 0 0 101 -73 0 0 283 -73 0 0 171 -36 0 0 105 -45 0 0 111 -73 0 0 110 -36 0 0 115 -36 0 0 114 -36 0 0 117 -36 0 0 192 -131 0 0 328 -36 0 0 243 -73 0 0
EndChar
StartChar: Q
Encoding: 81 81 52
Width: 1531
Flags: HW
Fore
806.9 1356 m 0,0,1
 608.9 1356 608.9 1356 492.35 1192 c 128,-1,2
 375.8 1028 375.8 1028 375.8 745 c 0,3,4
 375.8 463 375.8 463 492.35 299 c 128,-1,5
 608.9 135 608.9 135 806.9 135 c 0,6,7
 1004.9 135 1004.9 135 1120.55 299 c 128,-1,8
 1236.2 463 1236.2 463 1236.2 745 c 0,9,10
 1236.2 1028 1236.2 1028 1120.55 1192 c 128,-1,11
 1004.9 1356 1004.9 1356 806.9 1356 c 0,0,1
1061.6 27 m 1,12,-1
 1301 -264 l 1,13,-1
 1081.4 -264 l 1,14,-1
 882.5 -25 l 1,15,16
 852.8 -27 852.8 -27 837.05 -28 c 128,-1,17
 821.3 -29 821.3 -29 806.9 -29 c 0,18,19
 523.4 -29 523.4 -29 353.75 181.5 c 128,-1,20
 184.1 392 184.1 392 184.1 745 c 0,21,22
 184.1 1099 184.1 1099 353.75 1309.5 c 128,-1,23
 523.4 1520 523.4 1520 806.9 1520 c 0,24,25
 1089.5 1520 1089.5 1520 1258.7 1309.5 c 128,-1,26
 1427.9 1099 1427.9 1099 1427.9 745 c 0,27,28
 1427.9 485 1427.9 485 1333.85 300 c 128,-1,29
 1239.8 115 1239.8 115 1061.6 27 c 1,12,-1
EndSplineSet
KernsSLIF: 8222 -131 0 0 8221 -36 0 0 8220 -45 0 0 45 57 0 0
EndChar
StartChar: R
Encoding: 82 82 53
Width: 1358
Flags: HW
Fore
896.35 700 m 1,0,1
 954.85 678 954.85 678 1010.2 606 c 128,-1,2
 1065.55 534 1065.55 534 1121.35 408 c 1,3,-1
 1305.85 0 l 1,4,-1
 1110.55 0 l 1,5,-1
 938.65 383 l 1,6,7
 872.05 533 872.05 533 809.5 582 c 128,-1,8
 746.95 631 746.95 631 638.95 631 c 2,9,-1
 440.95 631 l 1,10,-1
 440.95 0 l 1,11,-1
 259.15 0 l 1,12,-1
 259.15 1493 l 1,13,-1
 669.55 1493 l 2,14,15
 899.95 1493 899.95 1493 1013.35 1386 c 128,-1,16
 1126.75 1279 1126.75 1279 1126.75 1063 c 0,17,18
 1126.75 922 1126.75 922 1067.8 829 c 128,-1,19
 1008.85 736 1008.85 736 896.35 700 c 1,0,1
440.95 1327 m 1,20,-1
 440.95 797 l 1,21,-1
 669.55 797 l 2,22,23
 800.95 797 800.95 797 868 864.5 c 128,-1,24
 935.05 932 935.05 932 935.05 1063 c 0,25,26
 935.05 1194 935.05 1194 868 1260.5 c 128,-1,27
 800.95 1327 800.95 1327 669.55 1327 c 2,28,-1
 440.95 1327 l 1,20,-1
EndSplineSet
KernsSLIF: 367 -92 0 0 356 -149 0 0 283 -92 0 0 268 -102 0 0 262 -102 0 0 253 -112 0 0 221 -131 0 0 193 -83 0 0 194 -83 0 0 8222 -36 0 0 376 -131 0 0 255 -112 0 0 8221 -131 0 0 8220 -149 0 0 195 -83 0 0 192 -83 0 0 187 -36 0 0 171 -112 0 0 252 -92 0 0 251 -92 0 0 249 -92 0 0 250 -92 0 0 245 -92 0 0 246 -92 0 0 244 -92 0 0 242 -92 0 0 243 -92 0 0 235 -92 0 0 234 -92 0 0 232 -92 0 0 233 -92 0 0 229 -45 0 0 227 -45 0 0 228 -45 0 0 226 -45 0 0 224 -45 0 0 225 -45 0 0 199 -102 0 0 196 -83 0 0 121 -112 0 0 117 -92 0 0 111 -92 0 0 101 -92 0 0 97 -45 0 0 89 -131 0 0 87 -83 0 0 86 -112 0 0 84 -149 0 0 67 -102 0 0 65 -83 0 0 58 -63 0 0 46 -73 0 0 45 -83 0 0
EndChar
StartChar: S
Encoding: 83 83 54
Width: 1236
Flags: HW
Fore
1052.45 1444 m 1,0,-1
 1052.45 1247 l 1,1,2
 948.95 1302 948.95 1302 857.15 1329 c 128,-1,3
 765.35 1356 765.35 1356 679.85 1356 c 0,4,5
 531.35 1356 531.35 1356 450.8 1292 c 128,-1,6
 370.25 1228 370.25 1228 370.25 1110 c 0,7,8
 370.25 1011 370.25 1011 423.8 960.5 c 128,-1,9
 477.35 910 477.35 910 626.75 879 c 1,10,-1
 736.55 854 l 1,11,12
 939.95 811 939.95 811 1036.7 702.5 c 128,-1,13
 1133.45 594 1133.45 594 1133.45 412 c 0,14,15
 1133.45 195 1133.45 195 1002.5 83 c 128,-1,16
 871.55 -29 871.55 -29 618.65 -29 c 0,17,18
 523.25 -29 523.25 -29 415.7 -5 c 128,-1,19
 308.15 19 308.15 19 192.95 66 c 1,20,-1
 192.95 274 l 1,21,22
 303.65 205 303.65 205 409.85 170 c 128,-1,23
 516.05 135 516.05 135 618.65 135 c 0,24,25
 774.35 135 774.35 135 858.95 203 c 128,-1,26
 943.55 271 943.55 271 943.55 397 c 0,27,28
 943.55 507 943.55 507 882.8 569 c 128,-1,29
 822.05 631 822.05 631 683.45 662 c 2,30,-1
 572.75 686 l 2,31,32
 369.35 731 369.35 731 278.45 827 c 128,-1,33
 187.55 923 187.55 923 187.55 1094 c 0,34,35
 187.55 1292 187.55 1292 313.1 1406 c 128,-1,36
 438.65 1520 438.65 1520 659.15 1520 c 0,37,38
 753.65 1520 753.65 1520 851.75 1501 c 128,-1,39
 949.85 1482 949.85 1482 1052.45 1444 c 1,0,-1
EndSplineSet
KernsSLIF: 193 38 0 0 194 38 0 0 195 38 0 0 192 38 0 0 196 38 0 0 65 38 0 0
EndChar
StartChar: T
Encoding: 84 84 55
Width: 1188
Flags: HW
Fore
57.1504 1493 m 1,0,-1
 1193.85 1493 l 1,1,-1
 1193.85 1323 l 1,2,-1
 716.85 1323 l 1,3,-1
 716.85 0 l 1,4,-1
 534.15 0 l 1,5,-1
 534.15 1323 l 1,6,-1
 57.1504 1323 l 1,7,-1
 57.1504 1493 l 1,0,-1
EndSplineSet
KernsSLIF: 252 -311 0 0 229 -339 0 0 242 -348 0 0 45 -188 0 0 8222 -264 0 0 268 -120 0 0 245 -348 0 0 235 -348 0 0 249 -311 0 0 58 -225 0 0 224 -339 0 0 195 -159 0 0 234 -348 0 0 231 -348 0 0 341 -301 0 0 8221 -45 0 0 232 -348 0 0 196 -159 0 0 262 -120 0 0 193 -159 0 0 269 -348 0 0 345 -301 0 0 233 -348 0 0 251 -311 0 0 253 -319 0 0 227 -339 0 0 194 -159 0 0 367 -311 0 0 244 -348 0 0 353 -339 0 0 65 -159 0 0 283 -348 0 0 67 -120 0 0 351 -339 0 0 228 -339 0 0 119 -339 0 0 246 -348 0 0 250 -311 0 0 263 -348 0 0 225 -339 0 0 46 -243 0 0 187 -112 0 0 84 -36 0 0 226 -339 0 0 101 -348 0 0 356 -36 0 0 97 -339 0 0 99 -348 0 0 171 -188 0 0 105 -63 0 0 255 -319 0 0 111 -348 0 0 115 -339 0 0 114 -301 0 0 117 -311 0 0 192 -159 0 0 121 -319 0 0 199 -120 0 0 243 -348 0 0
EndChar
StartChar: U
Encoding: 85 85 56
Width: 1424
Flags: HW
Fore
235.15 1493 m 1,0,-1
 417.85 1493 l 1,1,-1
 417.85 586 l 2,2,3
 417.85 346 417.85 346 496.15 240.5 c 128,-1,4
 574.45 135 574.45 135 749.95 135 c 0,5,6
 924.55 135 924.55 135 1002.85 240.5 c 128,-1,7
 1081.15 346 1081.15 346 1081.15 586 c 2,8,-1
 1081.15 1493 l 1,9,-1
 1263.85 1493 l 1,10,-1
 1263.85 561 l 2,11,12
 1263.85 269 1263.85 269 1133.8 120 c 128,-1,13
 1003.75 -29 1003.75 -29 749.95 -29 c 0,14,15
 495.25 -29 495.25 -29 365.2 120 c 128,-1,16
 235.15 269 235.15 269 235.15 561 c 2,17,-1
 235.15 1493 l 1,0,-1
EndSplineSet
KernsSLIF: 381 -36 0 0 90 -36 0 0
EndChar
StartChar: V
Encoding: 86 86 57
Width: 1330
Flags: HW
Fore
597.4 0 m 1,0,-1
 84.4004 1493 l 1,1,-1
 274.3 1493 l 1,2,-1
 700 236 l 1,3,-1
 1126.6 1493 l 1,4,-1
 1315.6 1493 l 1,5,-1
 803.5 0 l 1,6,-1
 597.4 0 l 1,0,-1
EndSplineSet
KernsSLIF: 367 -139 0 0 283 -159 0 0 253 -55 0 0 210 -36 0 0 212 -36 0 0 211 -36 0 0 193 -131 0 0 194 -131 0 0 8222 -282 0 0 255 -55 0 0 213 -36 0 0 195 -131 0 0 192 -131 0 0 187 -112 0 0 171 -178 0 0 252 -139 0 0 251 -139 0 0 249 -139 0 0 250 -139 0 0 245 -159 0 0 246 -159 0 0 244 -159 0 0 242 -159 0 0 243 -159 0 0 235 -159 0 0 234 -159 0 0 232 -159 0 0 233 -159 0 0 229 -159 0 0 227 -159 0 0 228 -159 0 0 226 -159 0 0 224 -159 0 0 225 -159 0 0 214 -36 0 0 196 -131 0 0 121 -55 0 0 117 -139 0 0 111 -159 0 0 105 -45 0 0 101 -159 0 0 97 -159 0 0 79 -36 0 0 65 -131 0 0 58 -167 0 0 46 -264 0 0 45 -120 0 0
EndChar
StartChar: W
Encoding: 87 87 58
Width: 1923
Flags: HW
Fore
162.5 1493 m 1,0,-1
 346.1 1493 l 1,1,-1
 628.7 231 l 1,2,-1
 910.4 1493 l 1,3,-1
 1114.7 1493 l 1,4,-1
 1397.3 231 l 1,5,-1
 1679 1493 l 1,6,-1
 1863.5 1493 l 1,7,-1
 1526 0 l 1,8,-1
 1297.4 0 l 1,9,-1
 1013.9 1296 l 1,10,-1
 727.7 0 l 1,11,-1
 499.1 0 l 1,12,-1
 162.5 1493 l 1,0,-1
EndSplineSet
KernsSLIF: 252 -73 0 0 229 -131 0 0 242 -120 0 0 45 -83 0 0 8222 -264 0 0 367 -73 0 0 245 -120 0 0 235 -120 0 0 249 -73 0 0 58 -120 0 0 224 -131 0 0 195 -112 0 0 234 -120 0 0 341 -92 0 0 232 -120 0 0 196 -112 0 0 193 -112 0 0 345 -92 0 0 233 -120 0 0 251 -73 0 0 253 -36 0 0 227 -131 0 0 194 -112 0 0 244 -120 0 0 65 -112 0 0 97 -131 0 0 187 -36 0 0 228 -131 0 0 8220 -36 0 0 246 -120 0 0 250 -73 0 0 225 -131 0 0 46 -235 0 0 226 -131 0 0 101 -120 0 0 283 -120 0 0 171 -112 0 0 105 -45 0 0 255 -36 0 0 111 -120 0 0 114 -92 0 0 117 -73 0 0 192 -112 0 0 121 -36 0 0 243 -120 0 0
EndChar
StartChar: X
Encoding: 88 88 59
Width: 1332
Flags: HW
Fore
186.1 1493 m 1,0,-1
 381.4 1493 l 1,1,-1
 715.3 938 l 1,2,-1
 1051 1493 l 1,3,-1
 1246.3 1493 l 1,4,-1
 814.3 776 l 1,5,-1
 1275.1 0 l 1,6,-1
 1079.8 0 l 1,7,-1
 701.8 635 l 1,8,-1
 321.1 0 l 1,9,-1
 124.9 0 l 1,10,-1
 604.6 797 l 1,11,-1
 186.1 1493 l 1,0,-1
EndSplineSet
KernsSLIF: 356 -36 0 0 283 -92 0 0 268 -149 0 0 262 -149 0 0 210 -131 0 0 212 -131 0 0 211 -131 0 0 8222 -45 0 0 8221 -83 0 0 8220 -159 0 0 213 -131 0 0 171 -112 0 0 235 -92 0 0 234 -92 0 0 232 -92 0 0 233 -92 0 0 214 -131 0 0 199 -149 0 0 101 -92 0 0 84 -36 0 0 79 -131 0 0 67 -149 0 0 45 -102 0 0
EndChar
StartChar: Y
Encoding: 89 89 60
Width: 1188
Flags: HW
Fore
58.9502 1493 m 1,0,-1
 254.25 1493 l 1,1,-1
 626.85 879 l 1,2,-1
 996.75 1493 l 1,3,-1
 1192.05 1493 l 1,4,-1
 716.85 711 l 1,5,-1
 716.85 0 l 1,6,-1
 534.15 0 l 1,7,-1
 534.15 711 l 1,8,-1
 58.9502 1493 l 1,0,-1
EndSplineSet
KernsSLIF: 367 -235 0 0 283 -272 0 0 268 -112 0 0 262 -112 0 0 210 -112 0 0 212 -112 0 0 211 -112 0 0 193 -159 0 0 194 -159 0 0 8222 -264 0 0 8221 -36 0 0 8220 -112 0 0 213 -112 0 0 195 -159 0 0 192 -159 0 0 187 -149 0 0 171 -225 0 0 252 -235 0 0 251 -235 0 0 249 -235 0 0 250 -235 0 0 245 -272 0 0 246 -272 0 0 244 -272 0 0 242 -272 0 0 243 -272 0 0 235 -272 0 0 234 -272 0 0 232 -272 0 0 233 -272 0 0 229 -282 0 0 227 -282 0 0 228 -282 0 0 226 -282 0 0 224 -282 0 0 225 -282 0 0 214 -112 0 0 199 -112 0 0 196 -159 0 0 117 -235 0 0 111 -272 0 0 105 -73 0 0 101 -272 0 0 97 -282 0 0 79 -112 0 0 67 -112 0 0 65 -159 0 0 58 -272 0 0 46 -415 0 0 45 -243 0 0
EndChar
StartChar: Z
Encoding: 90 90 61
Width: 1332
Flags: HW
Fore
173.65 1493 m 1,0,-1
 1229.35 1493 l 1,1,-1
 1229.35 1339 l 1,2,-1
 379.75 170 l 1,3,-1
 1250.05 170 l 1,4,-1
 1250.05 0 l 1,5,-1
 152.95 0 l 1,6,-1
 152.95 154 l 1,7,-1
 1002.55 1323 l 1,8,-1
 173.65 1323 l 1,9,-1
 173.65 1493 l 1,0,-1
EndSplineSet
KernsSLIF: 8222 -36 0 0 8221 -36 0 0 8220 -36 0 0 45 -36 0 0
EndChar
StartChar: bracketleft
Encoding: 91 91 62
Width: 757
Flags: HW
Fore
197.2 1556 m 1,0,-1
 578.8 1556 l 1,1,-1
 578.8 1413 l 1,2,-1
 362.8 1413 l 1,3,-1
 362.8 -127 l 1,4,-1
 578.8 -127 l 1,5,-1
 578.8 -270 l 1,6,-1
 197.2 -270 l 1,7,-1
 197.2 1556 l 1,0,-1
EndSplineSet
EndChar
StartChar: backslash
Encoding: 92 92 63
Width: 655
Flags: HW
Fore
187.5 1493 m 1,0,-1
 655.5 -190 l 1,1,-1
 502.5 -190 l 1,2,-1
 34.5 1493 l 1,3,-1
 187.5 1493 l 1,0,-1
EndSplineSet
EndChar
StartChar: bracketright
Encoding: 93 93 64
Width: 760
Flags: HW
Fore
601.8 1556 m 1,0,-1
 601.8 -270 l 1,1,-1
 220.2 -270 l 1,2,-1
 220.2 -127 l 1,3,-1
 435.3 -127 l 1,4,-1
 435.3 1413 l 1,5,-1
 220.2 1413 l 1,6,-1
 220.2 1556 l 1,7,-1
 601.8 1556 l 1,0,-1
EndSplineSet
EndChar
StartChar: asciicircum
Encoding: 94 94 65
Width: 1630
Flags: HW
Fore
946.2 1493 m 1,0,-1
 1434.9 936 l 1,1,-1
 1254 936 l 1,2,-1
 858 1331 l 1,3,-1
 462 936 l 1,4,-1
 281.1 936 l 1,5,-1
 769.8 1493 l 1,6,-1
 946.2 1493 l 1,0,-1
EndSplineSet
EndChar
StartChar: underscore
Encoding: 95 95 66
Width: 972
Flags: HW
Fore
990.8 -340 m 1,0,-1
 990.8 -483 l 1,1,-1
 33.2002 -483 l 1,2,-1
 33.2002 -340 l 1,3,-1
 990.8 -340 l 1,0,-1
EndSplineSet
EndChar
StartChar: grave
Encoding: 96 96 67
Width: 962
Flags: HW
Fore
371.25 1638 m 1,0,-1
 625.05 1264 l 1,1,-1
 487.35 1264 l 1,2,-1
 193.95 1638 l 1,3,-1
 371.25 1638 l 1,0,-1
EndSplineSet
EndChar
StartChar: a
Encoding: 97 97 68
Width: 1189
Flags: HW
Fore
691.4 563 m 2,0,1
 490.7 563 490.7 563 413.3 512 c 128,-1,2
 335.9 461 335.9 461 335.9 338 c 0,3,4
 335.9 240 335.9 240 393.95 182.5 c 128,-1,5
 452 125 452 125 551.9 125 c 0,6,7
 689.6 125 689.6 125 772.85 233.5 c 128,-1,8
 856.1 342 856.1 342 856.1 522 c 2,9,-1
 856.1 563 l 1,10,-1
 691.4 563 l 2,0,1
1021.7 639 m 2,11,-1
 1021.7 0 l 1,12,-1
 856.1 0 l 1,13,-1
 856.1 170 l 1,14,15
 799.4 68 799.4 68 714.8 19.5 c 128,-1,16
 630.2 -29 630.2 -29 507.8 -29 c 0,17,18
 353 -29 353 -29 261.65 67.5 c 128,-1,19
 170.3 164 170.3 164 170.3 326 c 0,20,21
 170.3 515 170.3 515 284.15 611 c 128,-1,22
 398 707 398 707 623.9 707 c 2,23,-1
 856.1 707 l 1,24,-1
 856.1 725 l 2,25,26
 856.1 852 856.1 852 780.95 921.5 c 128,-1,27
 705.8 991 705.8 991 569.9 991 c 0,28,29
 483.5 991 483.5 991 401.6 968 c 128,-1,30
 319.7 945 319.7 945 244.1 899 c 1,31,-1
 244.1 1069 l 1,32,33
 335 1108 335 1108 420.5 1127.5 c 128,-1,34
 506 1147 506 1147 587 1147 c 0,35,36
 805.7 1147 805.7 1147 913.7 1021 c 128,-1,37
 1021.7 895 1021.7 895 1021.7 639 c 2,11,-1
EndSplineSet
EndChar
StartChar: b
Encoding: 98 98 69
Width: 1238
Flags: HW
Fore
966 559 m 0,0,1
 966 762 966 762 890.85 877.5 c 128,-1,2
 815.7 993 815.7 993 684.3 993 c 0,3,4
 552.9 993 552.9 993 477.75 877.5 c 128,-1,5
 402.6 762 402.6 762 402.6 559 c 0,6,7
 402.6 356 402.6 356 477.75 240.5 c 128,-1,8
 552.9 125 552.9 125 684.3 125 c 0,9,10
 815.7 125 815.7 125 890.85 240.5 c 128,-1,11
 966 356 966 356 966 559 c 0,0,1
402.6 950 m 1,12,13
 454.8 1050 454.8 1050 534.45 1098.5 c 128,-1,14
 614.1 1147 614.1 1147 724.8 1147 c 0,15,16
 908.4 1147 908.4 1147 1023.15 985 c 128,-1,17
 1137.9 823 1137.9 823 1137.9 559 c 0,18,19
 1137.9 295 1137.9 295 1023.15 133 c 128,-1,20
 908.4 -29 908.4 -29 724.8 -29 c 0,21,22
 614.1 -29 614.1 -29 534.45 19.5 c 128,-1,23
 454.8 68 454.8 68 402.6 168 c 1,24,-1
 402.6 0 l 1,25,-1
 236.1 0 l 1,26,-1
 236.1 1556 l 1,27,-1
 402.6 1556 l 1,28,-1
 402.6 950 l 1,12,13
EndSplineSet
EndChar
StartChar: c
Encoding: 99 99 70
Width: 1069
Flags: HW
Fore
954.7 1077 m 1,0,-1
 954.7 905 l 1,1,2
 884.5 948 884.5 948 813.85 969.5 c 128,-1,3
 743.2 991 743.2 991 671.2 991 c 0,4,5
 510.1 991 510.1 991 421 877.5 c 128,-1,6
 331.9 764 331.9 764 331.9 559 c 0,7,8
 331.9 354 331.9 354 421 240.5 c 128,-1,9
 510.1 127 510.1 127 671.2 127 c 0,10,11
 743.2 127 743.2 127 813.85 148.5 c 128,-1,12
 884.5 170 884.5 170 954.7 213 c 1,13,-1
 954.7 43 l 1,14,15
 885.4 7 885.4 7 811.15 -11 c 128,-1,16
 736.9 -29 736.9 -29 653.2 -29 c 0,17,18
 425.5 -29 425.5 -29 291.4 130 c 128,-1,19
 157.3 289 157.3 289 157.3 559 c 0,20,21
 157.3 833 157.3 833 292.75 990 c 128,-1,22
 428.2 1147 428.2 1147 664 1147 c 0,23,24
 740.5 1147 740.5 1147 813.4 1129.5 c 128,-1,25
 886.3 1112 886.3 1112 954.7 1077 c 1,0,-1
EndSplineSet
EndChar
StartChar: d
Encoding: 100 100 71
Width: 1231
Flags: HW
Fore
898.35 950 m 1,0,-1
 898.35 1556 l 1,1,-1
 1063.95 1556 l 1,2,-1
 1063.95 0 l 1,3,-1
 898.35 0 l 1,4,-1
 898.35 168 l 1,5,6
 846.15 68 846.15 68 766.5 19.5 c 128,-1,7
 686.85 -29 686.85 -29 575.25 -29 c 0,8,9
 392.55 -29 392.55 -29 277.8 133 c 128,-1,10
 163.05 295 163.05 295 163.05 559 c 0,11,12
 163.05 823 163.05 823 277.8 985 c 128,-1,13
 392.55 1147 392.55 1147 575.25 1147 c 0,14,15
 686.85 1147 686.85 1147 766.5 1098.5 c 128,-1,16
 846.15 1050 846.15 1050 898.35 950 c 1,0,-1
334.05 559 m 0,17,18
 334.05 356 334.05 356 409.2 240.5 c 128,-1,19
 484.35 125 484.35 125 615.75 125 c 0,20,21
 747.15 125 747.15 125 822.75 240.5 c 128,-1,22
 898.35 356 898.35 356 898.35 559 c 0,23,24
 898.35 762 898.35 762 822.75 877.5 c 128,-1,25
 747.15 993 747.15 993 615.75 993 c 0,26,27
 484.35 993 484.35 993 409.2 877.5 c 128,-1,28
 334.05 762 334.05 762 334.05 559 c 0,17,18
EndSplineSet
EndChar
StartChar: e
Encoding: 101 101 72
Width: 1197
Flags: HW
Fore
1099.1 606 m 2,0,-1
 1099.1 516 l 1,1,-1
 337.7 516 l 1,2,3
 348.5 326 348.5 326 440.75 226.5 c 128,-1,4
 533 127 533 127 697.7 127 c 0,5,6
 793.1 127 793.1 127 882.65 153 c 128,-1,7
 972.2 179 972.2 179 1060.4 231 c 1,8,-1
 1060.4 57 l 1,9,10
 971.3 15 971.3 15 877.7 -7 c 128,-1,11
 784.1 -29 784.1 -29 687.8 -29 c 0,12,13
 446.6 -29 446.6 -29 305.75 127 c 128,-1,14
 164.9 283 164.9 283 164.9 549 c 0,15,16
 164.9 824 164.9 824 298.55 985.5 c 128,-1,17
 432.2 1147 432.2 1147 659 1147 c 0,18,19
 862.4 1147 862.4 1147 980.75 1001.5 c 128,-1,20
 1099.1 856 1099.1 856 1099.1 606 c 2,0,-1
933.5 660 m 1,21,22
 931.7 811 931.7 811 857.45 901 c 128,-1,23
 783.2 991 783.2 991 660.8 991 c 0,24,25
 522.2 991 522.2 991 438.95 904 c 128,-1,26
 355.7 817 355.7 817 343.1 659 c 1,27,-1
 933.5 660 l 1,21,22
EndSplineSet
KernsSLIF: 120 -36 0 0
EndChar
StartChar: f
Encoding: 102 102 73
Width: 689
Flags: HW
Fore
724.35 1556 m 1,0,-1
 724.35 1403 l 1,1,-1
 565.95 1403 l 2,2,3
 476.85 1403 476.85 1403 442.2 1363 c 128,-1,4
 407.55 1323 407.55 1323 407.55 1219 c 2,5,-1
 407.55 1120 l 1,6,-1
 680.25 1120 l 1,7,-1
 680.25 977 l 1,8,-1
 407.55 977 l 1,9,-1
 407.55 0 l 1,10,-1
 241.05 0 l 1,11,-1
 241.05 977 l 1,12,-1
 82.6504 977 l 1,13,-1
 82.6504 1120 l 1,14,-1
 241.05 1120 l 1,15,-1
 241.05 1198 l 2,16,17
 241.05 1385 241.05 1385 319.35 1470.5 c 128,-1,18
 397.65 1556 397.65 1556 567.75 1556 c 2,19,-1
 724.35 1556 l 1,0,-1
EndSplineSet
KernsSLIF: 357 -36 0 0 253 -36 0 0 8222 -235 0 0 255 -36 0 0 8220 65 0 0 187 -36 0 0 171 -73 0 0 121 -36 0 0 119 -36 0 0 116 -36 0 0 58 -73 0 0 46 -149 0 0 45 -112 0 0
EndChar
StartChar: g
Encoding: 103 103 74
Width: 1231
Flags: HW
Fore
898.35 573 m 0,0,1
 898.35 773 898.35 773 824.1 883 c 128,-1,2
 749.85 993 749.85 993 615.75 993 c 0,3,4
 482.55 993 482.55 993 408.3 883 c 128,-1,5
 334.05 773 334.05 773 334.05 573 c 0,6,7
 334.05 374 334.05 374 408.3 264 c 128,-1,8
 482.55 154 482.55 154 615.75 154 c 0,9,10
 749.85 154 749.85 154 824.1 264 c 128,-1,11
 898.35 374 898.35 374 898.35 573 c 0,0,1
1063.95 139 m 2,12,13
 1063.95 -147 1063.95 -147 949.65 -286.5 c 128,-1,14
 835.35 -426 835.35 -426 599.55 -426 c 0,15,16
 512.25 -426 512.25 -426 434.85 -411.5 c 128,-1,17
 357.45 -397 357.45 -397 284.55 -367 c 1,18,-1
 284.55 -188 l 1,19,20
 357.45 -232 357.45 -232 428.55 -253 c 128,-1,21
 499.65 -274 499.65 -274 573.45 -274 c 0,22,23
 736.35 -274 736.35 -274 817.35 -179.5 c 128,-1,24
 898.35 -85 898.35 -85 898.35 106 c 2,25,-1
 898.35 197 l 1,26,27
 847.05 98 847.05 98 766.95 49 c 128,-1,28
 686.85 0 686.85 0 575.25 0 c 0,29,30
 389.85 0 389.85 0 276.45 157 c 128,-1,31
 163.05 314 163.05 314 163.05 573 c 0,32,33
 163.05 833 163.05 833 276.45 990 c 128,-1,34
 389.85 1147 389.85 1147 575.25 1147 c 0,35,36
 686.85 1147 686.85 1147 766.95 1098 c 128,-1,37
 847.05 1049 847.05 1049 898.35 950 c 1,38,-1
 898.35 1120 l 1,39,-1
 1063.95 1120 l 1,40,-1
 1063.95 139 l 2,12,13
EndSplineSet
EndChar
StartChar: h
Encoding: 104 104 75
Width: 1233
Flags: HW
Fore
1077.1 676 m 2,0,-1
 1077.1 0 l 1,1,-1
 911.5 0 l 1,2,-1
 911.5 670 l 2,3,4
 911.5 829 911.5 829 855.7 908 c 128,-1,5
 799.9 987 799.9 987 688.3 987 c 0,6,7
 554.2 987 554.2 987 476.8 892 c 128,-1,8
 399.4 797 399.4 797 399.4 633 c 2,9,-1
 399.4 0 l 1,10,-1
 232.9 0 l 1,11,-1
 232.9 1556 l 1,12,-1
 399.4 1556 l 1,13,-1
 399.4 946 l 1,14,15
 458.8 1047 458.8 1047 539.35 1097 c 128,-1,16
 619.9 1147 619.9 1147 725.2 1147 c 0,17,18
 898.9 1147 898.9 1147 988 1027.5 c 128,-1,19
 1077.1 908 1077.1 908 1077.1 676 c 2,0,-1
EndSplineSet
EndChar
StartChar: i
Encoding: 105 105 76
Width: 540
Flags: HW
Fore
202.2 1120 m 1,0,-1
 367.8 1120 l 1,1,-1
 367.8 0 l 1,2,-1
 202.2 0 l 1,3,-1
 202.2 1120 l 1,0,-1
202.2 1556 m 1,4,-1
 367.8 1556 l 1,5,-1
 367.8 1323 l 1,6,-1
 202.2 1323 l 1,7,-1
 202.2 1556 l 1,4,-1
EndSplineSet
EndChar
StartChar: j
Encoding: 106 106 77
Width: 529
Flags: HW
Fore
190.7 1120 m 1,0,-1
 356.3 1120 l 1,1,-1
 356.3 -20 l 2,2,3
 356.3 -234 356.3 -234 282.95 -330 c 128,-1,4
 209.6 -426 209.6 -426 46.7002 -426 c 2,5,-1
 -16.2998 -426 l 1,6,-1
 -16.2998 -270 l 1,7,-1
 27.7998 -270 l 2,8,9
 122.3 -270 122.3 -270 156.5 -221.5 c 128,-1,10
 190.7 -173 190.7 -173 190.7 -20 c 2,11,-1
 190.7 1120 l 1,0,-1
190.7 1556 m 1,12,-1
 356.3 1556 l 1,13,-1
 356.3 1323 l 1,14,-1
 190.7 1323 l 1,15,-1
 190.7 1556 l 1,12,-1
EndSplineSet
EndChar
StartChar: k
Encoding: 107 107 78
Width: 1135
Flags: HW
Fore
235.7 1556 m 1,0,-1
 402.2 1556 l 1,1,-1
 402.2 637 l 1,2,-1
 896.3 1120 l 1,3,-1
 1107.8 1120 l 1,4,-1
 573.2 596 l 1,5,-1
 1130.3 0 l 1,6,-1
 914.3 0 l 1,7,-1
 402.2 547 l 1,8,-1
 402.2 0 l 1,9,-1
 235.7 0 l 1,10,-1
 235.7 1556 l 1,0,-1
EndSplineSet
KernsSLIF: 367 -63 0 0 283 -73 0 0 253 -73 0 0 255 -73 0 0 252 -63 0 0 251 -63 0 0 249 -63 0 0 250 -63 0 0 245 -73 0 0 246 -73 0 0 244 -73 0 0 242 -73 0 0 243 -73 0 0 235 -73 0 0 234 -73 0 0 232 -73 0 0 233 -73 0 0 229 -36 0 0 227 -36 0 0 228 -36 0 0 226 -36 0 0 224 -36 0 0 225 -36 0 0 121 -73 0 0 117 -63 0 0 111 -73 0 0 101 -73 0 0 97 -36 0 0
EndChar
StartChar: l
Encoding: 108 108 79
Width: 540
Flags: HW
Fore
202.2 1556 m 1,0,-1
 367.8 1556 l 1,1,-1
 367.8 0 l 1,2,-1
 202.2 0 l 1,3,-1
 202.2 1556 l 1,0,-1
EndSplineSet
EndChar
StartChar: m
Encoding: 109 109 80
Width: 1895
Flags: HW
Fore
1058.85 905 m 1,0,1
 1120.95 1029 1120.95 1029 1207.35 1088 c 128,-1,2
 1293.75 1147 1293.75 1147 1410.75 1147 c 0,3,4
 1568.25 1147 1568.25 1147 1653.75 1024.5 c 128,-1,5
 1739.25 902 1739.25 902 1739.25 676 c 2,6,-1
 1739.25 0 l 1,7,-1
 1572.75 0 l 1,8,-1
 1572.75 670 l 2,9,10
 1572.75 831 1572.75 831 1521.45 909 c 128,-1,11
 1470.15 987 1470.15 987 1364.85 987 c 0,12,13
 1236.15 987 1236.15 987 1161.45 892 c 128,-1,14
 1086.75 797 1086.75 797 1086.75 633 c 2,15,-1
 1086.75 0 l 1,16,-1
 920.25 0 l 1,17,-1
 920.25 670 l 2,18,19
 920.25 832 920.25 832 868.95 909.5 c 128,-1,20
 817.65 987 817.65 987 710.55 987 c 0,21,22
 583.65 987 583.65 987 508.95 891.5 c 128,-1,23
 434.25 796 434.25 796 434.25 633 c 2,24,-1
 434.25 0 l 1,25,-1
 267.75 0 l 1,26,-1
 267.75 1120 l 1,27,-1
 434.25 1120 l 1,28,-1
 434.25 946 l 1,29,30
 490.95 1049 490.95 1049 570.15 1098 c 128,-1,31
 649.35 1147 649.35 1147 758.25 1147 c 0,32,33
 868.05 1147 868.05 1147 945 1085 c 128,-1,34
 1021.95 1023 1021.95 1023 1058.85 905 c 1,0,1
EndSplineSet
EndChar
StartChar: n
Encoding: 110 110 81
Width: 1233
Flags: HW
Fore
1077.1 676 m 2,0,-1
 1077.1 0 l 1,1,-1
 911.5 0 l 1,2,-1
 911.5 670 l 2,3,4
 911.5 829 911.5 829 855.7 908 c 128,-1,5
 799.9 987 799.9 987 688.3 987 c 0,6,7
 554.2 987 554.2 987 476.8 892 c 128,-1,8
 399.4 797 399.4 797 399.4 633 c 2,9,-1
 399.4 0 l 1,10,-1
 232.9 0 l 1,11,-1
 232.9 1120 l 1,12,-1
 399.4 1120 l 1,13,-1
 399.4 946 l 1,14,15
 458.8 1047 458.8 1047 539.35 1097 c 128,-1,16
 619.9 1147 619.9 1147 725.2 1147 c 0,17,18
 898.9 1147 898.9 1147 988 1027.5 c 128,-1,19
 1077.1 908 1077.1 908 1077.1 676 c 2,0,-1
EndSplineSet
KernsSLIF: 8222 -92 0 0 8221 -112 0 0 8220 -149 0 0
EndChar
StartChar: o
Encoding: 111 111 82
Width: 1190
Flags: HW
Fore
627 991 m 0,0,1
 493.8 991 493.8 991 416.4 875.5 c 128,-1,2
 339 760 339 760 339 559 c 0,3,4
 339 358 339 358 415.95 242.5 c 128,-1,5
 492.9 127 492.9 127 627 127 c 0,6,7
 759.3 127 759.3 127 836.7 243 c 128,-1,8
 914.1 359 914.1 359 914.1 559 c 0,9,10
 914.1 758 914.1 758 836.7 874.5 c 128,-1,11
 759.3 991 759.3 991 627 991 c 0,0,1
627 1147 m 0,12,13
 843 1147 843 1147 966.3 991 c 128,-1,14
 1089.6 835 1089.6 835 1089.6 559 c 0,15,16
 1089.6 284 1089.6 284 966.3 127.5 c 128,-1,17
 843 -29 843 -29 627 -29 c 0,18,19
 410.1 -29 410.1 -29 287.25 127.5 c 128,-1,20
 164.4 284 164.4 284 164.4 559 c 0,21,22
 164.4 835 164.4 835 287.25 991 c 128,-1,23
 410.1 1147 410.1 1147 627 1147 c 0,12,13
EndSplineSet
KernsSLIF: 8222 -131 0 0 8221 -73 0 0 8220 -149 0 0 120 -63 0 0 46 -36 0 0 45 38 0 0
EndChar
StartChar: p
Encoding: 112 112 83
Width: 1238
Flags: HW
Fore
402.6 168 m 1,0,-1
 402.6 -426 l 1,1,-1
 236.1 -426 l 1,2,-1
 236.1 1120 l 1,3,-1
 402.6 1120 l 1,4,-1
 402.6 950 l 1,5,6
 454.8 1050 454.8 1050 534.45 1098.5 c 128,-1,7
 614.1 1147 614.1 1147 724.8 1147 c 0,8,9
 908.4 1147 908.4 1147 1023.15 985 c 128,-1,10
 1137.9 823 1137.9 823 1137.9 559 c 0,11,12
 1137.9 295 1137.9 295 1023.15 133 c 128,-1,13
 908.4 -29 908.4 -29 724.8 -29 c 0,14,15
 614.1 -29 614.1 -29 534.45 19.5 c 128,-1,16
 454.8 68 454.8 68 402.6 168 c 1,0,-1
966 559 m 0,17,18
 966 762 966 762 890.85 877.5 c 128,-1,19
 815.7 993 815.7 993 684.3 993 c 0,20,21
 552.9 993 552.9 993 477.75 877.5 c 128,-1,22
 402.6 762 402.6 762 402.6 559 c 0,23,24
 402.6 356 402.6 356 477.75 240.5 c 128,-1,25
 552.9 125 552.9 125 684.3 125 c 0,26,27
 815.7 125 815.7 125 890.85 240.5 c 128,-1,28
 966 356 966 356 966 559 c 0,17,18
EndSplineSet
EndChar
StartChar: q
Encoding: 113 113 84
Width: 1231
Flags: HW
Fore
334.05 559 m 0,0,1
 334.05 356 334.05 356 409.2 240.5 c 128,-1,2
 484.35 125 484.35 125 615.75 125 c 0,3,4
 747.15 125 747.15 125 822.75 240.5 c 128,-1,5
 898.35 356 898.35 356 898.35 559 c 0,6,7
 898.35 762 898.35 762 822.75 877.5 c 128,-1,8
 747.15 993 747.15 993 615.75 993 c 0,9,10
 484.35 993 484.35 993 409.2 877.5 c 128,-1,11
 334.05 762 334.05 762 334.05 559 c 0,0,1
898.35 168 m 1,12,13
 846.15 68 846.15 68 766.5 19.5 c 128,-1,14
 686.85 -29 686.85 -29 575.25 -29 c 0,15,16
 392.55 -29 392.55 -29 277.8 133 c 128,-1,17
 163.05 295 163.05 295 163.05 559 c 0,18,19
 163.05 823 163.05 823 277.8 985 c 128,-1,20
 392.55 1147 392.55 1147 575.25 1147 c 0,21,22
 686.85 1147 686.85 1147 766.5 1098.5 c 128,-1,23
 846.15 1050 846.15 1050 898.35 950 c 1,24,-1
 898.35 1120 l 1,25,-1
 1063.95 1120 l 1,26,-1
 1063.95 -426 l 1,27,-1
 898.35 -426 l 1,28,-1
 898.35 168 l 1,12,13
EndSplineSet
EndChar
StartChar: r
Encoding: 114 114 85
Width: 809
Flags: HW
Fore
809.2 948 m 1,0,1
 781.3 966 781.3 966 748.45 974.5 c 128,-1,2
 715.6 983 715.6 983 676 983 c 0,3,4
 535.6 983 535.6 983 460.45 881.5 c 128,-1,5
 385.3 780 385.3 780 385.3 590 c 2,6,-1
 385.3 0 l 1,7,-1
 218.8 0 l 1,8,-1
 218.8 1120 l 1,9,-1
 385.3 1120 l 1,10,-1
 385.3 946 l 1,11,12
 437.5 1048 437.5 1048 521.2 1097.5 c 128,-1,13
 604.9 1147 604.9 1147 724.6 1147 c 0,14,15
 741.7 1147 741.7 1147 762.4 1144.5 c 128,-1,16
 783.1 1142 783.1 1142 808.3 1137 c 1,17,-1
 809.2 948 l 1,0,1
EndSplineSet
KernsSLIF: 242 -45 0 0 45 -131 0 0 8222 -311 0 0 235 -45 0 0 58 -36 0 0 233 -45 0 0 231 -45 0 0 341 -36 0 0 8221 86 0 0 232 -45 0 0 245 -45 0 0 269 -45 0 0 271 72 0 0 345 -36 0 0 241 -36 0 0 244 -45 0 0 287 -36 0 0 234 -45 0 0 246 -45 0 0 263 -45 0 0 46 -188 0 0 120 -55 0 0 101 -45 0 0 283 -45 0 0 99 -45 0 0 171 -73 0 0 100 -36 0 0 103 -36 0 0 104 -36 0 0 109 -36 0 0 111 -45 0 0 110 -36 0 0 113 -36 0 0 114 -36 0 0 328 -36 0 0 243 -45 0 0
EndChar
StartChar: s
Encoding: 115 115 86
Width: 1014
Flags: HW
Fore
870.2 1087 m 1,0,-1
 870.2 913 l 1,1,2
 800 953 800 953 724.4 973 c 128,-1,3
 648.8 993 648.8 993 567.8 993 c 0,4,5
 444.5 993 444.5 993 382.85 951 c 128,-1,6
 321.2 909 321.2 909 321.2 825 c 0,7,8
 321.2 761 321.2 761 365.3 724.5 c 128,-1,9
 409.4 688 409.4 688 542.6 655 c 2,10,-1
 599.3 641 l 2,11,12
 775.7 599 775.7 599 849.95 522.5 c 128,-1,13
 924.2 446 924.2 446 924.2 309 c 0,14,15
 924.2 153 924.2 153 813.05 62 c 128,-1,16
 701.9 -29 701.9 -29 507.5 -29 c 0,17,18
 426.5 -29 426.5 -29 338.75 -11.5 c 128,-1,19
 251 6 251 6 153.8 41 c 1,20,-1
 153.8 231 l 1,21,22
 245.6 178 245.6 178 334.7 151.5 c 128,-1,23
 423.8 125 423.8 125 511.1 125 c 0,24,25
 628.1 125 628.1 125 691.1 169.5 c 128,-1,26
 754.1 214 754.1 214 754.1 295 c 0,27,28
 754.1 370 754.1 370 708.65 410 c 128,-1,29
 663.2 450 663.2 450 509.3 487 c 2,30,-1
 451.7 502 l 1,31,32
 297.8 538 297.8 538 229.4 612.5 c 128,-1,33
 161 687 161 687 161 817 c 0,34,35
 161 975 161 975 261.8 1061 c 128,-1,36
 362.6 1147 362.6 1147 548 1147 c 0,37,38
 639.8 1147 639.8 1147 720.8 1132 c 128,-1,39
 801.8 1117 801.8 1117 870.2 1087 c 1,0,-1
EndSplineSet
EndChar
StartChar: t
Encoding: 116 116 87
Width: 763
Flags: HW
Fore
377.95 1438 m 1,0,-1
 377.95 1120 l 1,1,-1
 719.05 1120 l 1,2,-1
 719.05 977 l 1,3,-1
 377.95 977 l 1,4,-1
 377.95 369 l 2,5,6
 377.95 232 377.95 232 411.7 193 c 128,-1,7
 445.45 154 445.45 154 548.95 154 c 2,8,-1
 719.05 154 l 1,9,-1
 719.05 0 l 1,10,-1
 548.95 0 l 2,11,12
 357.25 0 357.25 0 284.35 79.5 c 128,-1,13
 211.45 159 211.45 159 211.45 369 c 2,14,-1
 211.45 977 l 1,15,-1
 89.9502 977 l 1,16,-1
 89.9502 1120 l 1,17,-1
 211.45 1120 l 1,18,-1
 211.45 1438 l 1,19,-1
 377.95 1438 l 1,0,-1
EndSplineSet
EndChar
StartChar: u
Encoding: 117 117 88
Width: 1232
Flags: HW
Fore
220.9 442 m 2,0,-1
 220.9 1120 l 1,1,-1
 386.5 1120 l 1,2,-1
 386.5 449 l 2,3,4
 386.5 290 386.5 290 442.3 210.5 c 128,-1,5
 498.1 131 498.1 131 609.7 131 c 0,6,7
 743.8 131 743.8 131 821.65 226 c 128,-1,8
 899.5 321 899.5 321 899.5 485 c 2,9,-1
 899.5 1120 l 1,10,-1
 1065.1 1120 l 1,11,-1
 1065.1 0 l 1,12,-1
 899.5 0 l 1,13,-1
 899.5 172 l 1,14,15
 839.2 70 839.2 70 759.55 20.5 c 128,-1,16
 679.9 -29 679.9 -29 574.6 -29 c 0,17,18
 400.9 -29 400.9 -29 310.9 91 c 128,-1,19
 220.9 211 220.9 211 220.9 442 c 2,0,-1
EndSplineSet
EndChar
StartChar: v
Encoding: 118 118 89
Width: 1151
Flags: HW
Fore
115.5 1120 m 1,0,-1
 291 1120 l 1,1,-1
 606 180 l 1,2,-1
 921 1120 l 1,3,-1
 1096.5 1120 l 1,4,-1
 718.5 0 l 1,5,-1
 493.5 0 l 1,6,-1
 115.5 1120 l 1,0,-1
EndSplineSet
KernsSLIF: 8222 -272 0 0 8221 -36 0 0 187 -36 0 0 171 -36 0 0 58 -112 0 0 46 -159 0 0 45 -55 0 0
EndChar
StartChar: w
Encoding: 119 119 90
Width: 1591
Flags: HW
Fore
161.15 1120 m 1,0,-1
 326.75 1120 l 1,1,-1
 533.75 246 l 1,2,-1
 739.85 1120 l 1,3,-1
 935.15 1120 l 1,4,-1
 1142.15 246 l 1,5,-1
 1348.25 1120 l 1,6,-1
 1513.85 1120 l 1,7,-1
 1250.15 0 l 1,8,-1
 1054.85 0 l 1,9,-1
 837.95 918 l 1,10,-1
 620.15 0 l 1,11,-1
 424.85 0 l 1,12,-1
 161.15 1120 l 1,0,-1
EndSplineSet
KernsSLIF: 8222 -215 0 0 187 -36 0 0 171 -36 0 0 58 -112 0 0 46 -188 0 0
EndChar
StartChar: x
Encoding: 120 120 91
Width: 1151
Flags: HW
Fore
1071.8 1120 m 1,0,-1
 707.3 575 l 1,1,-1
 1090.7 0 l 1,2,-1
 895.4 0 l 1,3,-1
 602 440 l 1,4,-1
 308.6 0 l 1,5,-1
 113.3 0 l 1,6,-1
 504.8 586 l 1,7,-1
 146.6 1120 l 1,8,-1
 341.9 1120 l 1,9,-1
 609.2 721 l 1,10,-1
 876.5 1120 l 1,11,-1
 1071.8 1120 l 1,0,-1
EndSplineSet
KernsSLIF: 283 -63 0 0 269 -36 0 0 263 -36 0 0 245 -63 0 0 246 -63 0 0 244 -63 0 0 242 -63 0 0 243 -63 0 0 235 -63 0 0 234 -63 0 0 232 -63 0 0 233 -63 0 0 231 -36 0 0 111 -63 0 0 101 -63 0 0 99 -36 0 0
EndChar
StartChar: y
Encoding: 121 121 92
Width: 1151
Flags: HW
Fore
653.7 -104 m 1,0,1
 583.5 -304 583.5 -304 516.9 -365 c 128,-1,2
 450.3 -426 450.3 -426 338.7 -426 c 2,3,-1
 206.4 -426 l 1,4,-1
 206.4 -272 l 1,5,-1
 303.6 -272 l 2,6,7
 372 -272 372 -272 409.8 -236 c 128,-1,8
 447.6 -200 447.6 -200 493.5 -66 c 1,9,-1
 523.2 18 l 1,10,-1
 115.5 1120 l 1,11,-1
 291 1120 l 1,12,-1
 606 244 l 1,13,-1
 921 1120 l 1,14,-1
 1096.5 1120 l 1,15,-1
 653.7 -104 l 1,0,1
EndSplineSet
KernsSLIF: 8222 -301 0 0 187 -36 0 0 171 -36 0 0 58 -149 0 0 46 -292 0 0 45 -36 0 0
EndChar
StartChar: z
Encoding: 122 122 93
Width: 1021
Flags: HW
Fore
155.45 1120 m 1,0,-1
 942.05 1120 l 1,1,-1
 942.05 952 l 1,2,-1
 319.25 147 l 1,3,-1
 942.05 147 l 1,4,-1
 942.05 0 l 1,5,-1
 132.95 0 l 1,6,-1
 132.95 168 l 1,7,-1
 755.75 973 l 1,8,-1
 155.45 973 l 1,9,-1
 155.45 1120 l 1,0,-1
EndSplineSet
EndChar
StartChar: braceleft
Encoding: 123 123 94
Width: 1237
Flags: HW
Fore
1007.45 -190 m 1,0,-1
 1007.45 -334 l 1,1,-1
 951.65 -334 l 2,2,3
 727.55 -334 727.55 -334 651.5 -260 c 128,-1,4
 575.45 -186 575.45 -186 575.45 35 c 2,5,-1
 575.45 274 l 2,6,7
 575.45 425 575.45 425 526.85 483 c 128,-1,8
 478.25 541 478.25 541 350.45 541 c 2,9,-1
 295.55 541 l 1,10,-1
 295.55 684 l 1,11,-1
 350.45 684 l 2,12,13
 479.15 684 479.15 684 527.3 741.5 c 128,-1,14
 575.45 799 575.45 799 575.45 948 c 2,15,-1
 575.45 1188 l 2,16,17
 575.45 1409 575.45 1409 651.5 1482.5 c 128,-1,18
 727.55 1556 727.55 1556 951.65 1556 c 2,19,-1
 1007.45 1556 l 1,20,-1
 1007.45 1413 l 1,21,-1
 946.25 1413 l 2,22,23
 819.35 1413 819.35 1413 780.65 1369 c 128,-1,24
 741.95 1325 741.95 1325 741.95 1184 c 2,25,-1
 741.95 936 l 2,26,27
 741.95 779 741.95 779 701 708 c 128,-1,28
 660.05 637 660.05 637 561.05 612 c 1,29,30
 660.95 585 660.95 585 701.45 514 c 128,-1,31
 741.95 443 741.95 443 741.95 287 c 2,32,-1
 741.95 39 l 2,33,34
 741.95 -102 741.95 -102 780.65 -146 c 128,-1,35
 819.35 -190 819.35 -190 946.25 -190 c 2,36,-1
 1007.45 -190 l 1,0,-1
EndSplineSet
EndChar
StartChar: bar
Encoding: 124 124 95
Width: 655
Flags: HW
Fore
421.5 1565 m 1,0,-1
 421.5 -483 l 1,1,-1
 268.5 -483 l 1,2,-1
 268.5 1565 l 1,3,-1
 421.5 1565 l 1,0,-1
EndSplineSet
EndChar
StartChar: braceright
Encoding: 125 125 96
Width: 1237
Flags: HW
Fore
295.55 -190 m 1,0,-1
 358.55 -190 l 2,1,2
 484.55 -190 484.55 -190 522.8 -147 c 128,-1,3
 561.05 -104 561.05 -104 561.05 39 c 2,4,-1
 561.05 287 l 2,5,6
 561.05 443 561.05 443 601.55 514 c 128,-1,7
 642.05 585 642.05 585 741.95 612 c 1,8,9
 642.05 637 642.05 637 601.55 708 c 128,-1,10
 561.05 779 561.05 779 561.05 936 c 2,11,-1
 561.05 1184 l 2,12,13
 561.05 1326 561.05 1326 522.8 1369.5 c 128,-1,14
 484.55 1413 484.55 1413 358.55 1413 c 2,15,-1
 295.55 1413 l 1,16,-1
 295.55 1556 l 1,17,-1
 352.25 1556 l 2,18,19
 576.35 1556 576.35 1556 651.5 1482.5 c 128,-1,20
 726.65 1409 726.65 1409 726.65 1188 c 2,21,-1
 726.65 948 l 2,22,23
 726.65 799 726.65 799 775.25 741.5 c 128,-1,24
 823.85 684 823.85 684 951.65 684 c 2,25,-1
 1007.45 684 l 1,26,-1
 1007.45 541 l 1,27,-1
 951.65 541 l 2,28,29
 823.85 541 823.85 541 775.25 483 c 128,-1,30
 726.65 425 726.65 425 726.65 274 c 2,31,-1
 726.65 35 l 2,32,33
 726.65 -186 726.65 -186 651.5 -260 c 128,-1,34
 576.35 -334 576.35 -334 352.25 -334 c 2,35,-1
 295.55 -334 l 1,36,-1
 295.55 -190 l 1,0,-1
EndSplineSet
EndChar
StartChar: asciitilde
Encoding: 126 126 97
Width: 1630
Flags: HW
Fore
1434.9 817 m 1,0,-1
 1434.9 639 l 1,1,2
 1340.4 560 1340.4 560 1259.85 526 c 128,-1,3
 1179.3 492 1179.3 492 1092 492 c 0,4,5
 993 492 993 492 861.6 551 c 0,6,7
 851.7 555 851.7 555 847.2 557 c 0,8,9
 840.9 560 840.9 560 827.4 565 c 0,10,11
 687.9 627 687.9 627 603.3 627 c 0,12,13
 524.1 627 524.1 627 446.7 588.5 c 128,-1,14
 369.3 550 369.3 550 281.1 467 c 1,15,-1
 281.1 645 l 1,16,17
 375.6 724 375.6 724 456.15 758.5 c 128,-1,18
 536.7 793 536.7 793 624 793 c 0,19,20
 723 793 723 793 855.3 733 c 0,21,22
 864.3 729 864.3 729 868.8 727 c 0,23,24
 876 724 876 724 888.6 719 c 0,25,26
 1028.1 657 1028.1 657 1112.7 657 c 0,27,28
 1190.1 657 1190.1 657 1266.15 695 c 128,-1,29
 1342.2 733 1342.2 733 1434.9 817 c 1,0,-1
EndSplineSet
EndChar
StartChar: exclamdown
Encoding: 161 161 163
Width: 779
Flags: HW
Fore
501.85 1239 m 1,0,-1
 319.15 1239 l 1,1,-1
 319.15 1493 l 1,2,-1
 501.85 1493 l 1,3,-1
 501.85 1239 l 1,0,-1
501.85 0 m 1,4,-1
 319.15 0 l 1,5,-1
 319.15 655 l 1,6,-1
 338.05 1012 l 1,7,-1
 483.85 1012 l 1,8,-1
 501.85 655 l 1,9,-1
 501.85 0 l 1,4,-1
EndSplineSet
EndChar
StartChar: cent
Encoding: 162 162 132
Width: 1234
Flags: HW
Fore
671.75 131 m 1,0,-1
 671.75 987 l 1,1,2
 539.45 969 539.45 969 465.65 856 c 128,-1,3
 391.85 743 391.85 743 391.85 559 c 0,4,5
 391.85 374 391.85 374 465.65 261 c 128,-1,6
 539.45 148 539.45 148 671.75 131 c 1,0,-1
1014.65 1077 m 1,7,-1
 1014.65 905 l 1,8,9
 948.05 946 948.05 946 886.85 967 c 128,-1,10
 825.65 988 825.65 988 764.45 991 c 1,11,-1
 763.55 127 l 1,12,13
 826.55 132 826.55 132 888.2 153 c 128,-1,14
 949.85 174 949.85 174 1014.65 213 c 1,15,-1
 1014.65 43 l 1,16,17
 956.15 13 956.15 13 894.5 -4.5 c 128,-1,18
 832.85 -22 832.85 -22 763.55 -29 c 1,19,-1
 763.55 -313 l 1,20,-1
 671.75 -313 l 1,21,-1
 671.75 -25 l 1,22,23
 454.85 -5 454.85 -5 335.6 148.5 c 128,-1,24
 216.35 302 216.35 302 216.35 559 c 0,25,26
 216.35 817 216.35 817 335.6 970 c 128,-1,27
 454.85 1123 454.85 1123 671.75 1145 c 1,28,-1
 671.75 1432 l 1,29,-1
 763.55 1432 l 1,30,-1
 764.45 1145 l 1,31,32
 830.15 1141 830.15 1141 891.8 1124.5 c 128,-1,33
 953.45 1108 953.45 1108 1014.65 1077 c 1,7,-1
EndSplineSet
EndChar
StartChar: sterling
Encoding: 163 163 133
Width: 1235
Flags: HW
Fore
1054.35 1460 m 1,0,-1
 1054.35 1278 l 1,1,2
 985.95 1319 985.95 1319 924.75 1339.5 c 128,-1,3
 863.55 1360 863.55 1360 808.65 1360 c 0,4,5
 675.45 1360 675.45 1360 623.25 1282.5 c 128,-1,6
 571.05 1205 571.05 1205 571.05 993 c 2,7,-1
 571.05 778 l 1,8,-1
 922.95 778 l 1,9,-1
 922.95 635 l 1,10,-1
 571.05 635 l 1,11,-1
 571.05 170 l 1,12,-1
 1072.35 170 l 1,13,-1
 1072.35 0 l 1,14,-1
 178.65 0 l 1,15,-1
 178.65 170 l 1,16,-1
 391.05 170 l 1,17,-1
 391.05 635 l 1,18,-1
 211.95 635 l 1,19,-1
 211.95 778 l 1,20,-1
 391.05 778 l 1,21,-1
 391.05 1016 l 2,22,23
 391.05 1277 391.05 1277 487.35 1398.5 c 128,-1,24
 583.65 1520 583.65 1520 792.45 1520 c 0,25,26
 847.35 1520 847.35 1520 915.3 1504.5 c 128,-1,27
 983.25 1489 983.25 1489 1054.35 1460 c 1,0,-1
EndSplineSet
EndChar
StartChar: currency
Encoding: 164 164 189
Width: 1238
Flags: HW
Fore
867.2 993 m 1,0,-1
 1053.5 1202 l 1,1,-1
 1156.1 1087 l 1,2,-1
 970.7 881 l 1,3,4
 1004 822 1004 822 1020.2 762.5 c 128,-1,5
 1036.4 703 1036.4 703 1036.4 641 c 0,6,7
 1036.4 578 1036.4 578 1019.3 520.5 c 128,-1,8
 1002.2 463 1002.2 463 966.2 406 c 1,9,-1
 1154.3 199 l 1,10,-1
 1051.7 86 l 1,11,-1
 865.4 293 l 1,12,13
 812.3 253 812.3 253 760.1 234 c 128,-1,14
 707.9 215 707.9 215 653 215 c 0,15,16
 600.8 215 600.8 215 546.8 233.5 c 128,-1,17
 492.8 252 492.8 252 437.9 289 c 1,18,-1
 251.6 82 l 1,19,-1
 149.9 197 l 1,20,-1
 336.2 403 l 1,21,22
 302.9 465 302.9 465 286.25 524 c 128,-1,23
 269.6 583 269.6 583 269.6 641 c 0,24,25
 269.6 705 269.6 705 286.7 763 c 128,-1,26
 303.8 821 303.8 821 338 877 c 1,27,-1
 151.7 1083 l 1,28,-1
 255.2 1198 l 1,29,-1
 441.5 991 l 1,30,31
 491 1030 491 1030 543.2 1048.5 c 128,-1,32
 595.4 1067 595.4 1067 653 1067 c 0,33,34
 707 1067 707 1067 759.65 1049 c 128,-1,35
 812.3 1031 812.3 1031 867.2 993 c 1,0,-1
895.1 643 m 0,36,37
 895.1 755 895.1 755 825.35 832 c 128,-1,38
 755.6 909 755.6 909 653 909 c 0,39,40
 552.2 909 552.2 909 481.1 832 c 128,-1,41
 410 755 410 755 410 643 c 0,42,43
 410 529 410 529 480.65 451 c 128,-1,44
 551.3 373 551.3 373 653 373 c 0,45,46
 754.7 373 754.7 373 824.9 451.5 c 128,-1,47
 895.1 530 895.1 530 895.1 643 c 0,36,37
EndSplineSet
EndChar
StartChar: yen
Encoding: 165 165 150
Width: 1237
Flags: HW
Fore
1113.55 455 m 1,0,-1
 741.85 455 l 1,1,-1
 741.85 0 l 1,2,-1
 560.95 0 l 1,3,-1
 560.95 455 l 1,4,-1
 186.55 455 l 1,5,-1
 186.55 578 l 1,6,-1
 560.95 578 l 1,7,-1
 560.95 629 l 1,8,-1
 485.35 784 l 1,9,-1
 186.55 784 l 1,10,-1
 186.55 907 l 1,11,-1
 424.15 907 l 1,12,-1
 138.85 1493 l 1,13,-1
 309.85 1493 l 1,14,-1
 650.95 793 l 1,15,-1
 990.25 1493 l 1,16,-1
 1162.15 1493 l 1,17,-1
 875.95 907 l 1,18,-1
 1113.55 907 l 1,19,-1
 1113.55 784 l 1,20,-1
 815.65 784 l 1,21,-1
 740.05 629 l 1,22,-1
 740.05 578 l 1,23,-1
 1113.55 578 l 1,24,-1
 1113.55 455 l 1,0,-1
EndSplineSet
EndChar
StartChar: brokenbar
Encoding: 166 166 231
Width: 655
Flags: HW
Fore
421.5 408 m 1,0,-1
 421.5 -350 l 1,1,-1
 268.5 -350 l 1,2,-1
 268.5 408 l 1,3,-1
 421.5 408 l 1,0,-1
421.5 1432 m 1,4,-1
 421.5 674 l 1,5,-1
 268.5 674 l 1,6,-1
 268.5 1432 l 1,7,-1
 421.5 1432 l 1,4,-1
EndSplineSet
EndChar
StartChar: section
Encoding: 167 167 134
Width: 972
Flags: HW
Fore
392.2 936 m 1,0,1
 335.5 890 335.5 890 307.6 845 c 128,-1,2
 279.7 800 279.7 800 279.7 754 c 0,3,4
 279.7 678 279.7 678 342.25 611.5 c 128,-1,5
 404.8 545 404.8 545 629.8 410 c 1,6,7
 686.5 455 686.5 455 714.4 500.5 c 128,-1,8
 742.3 546 742.3 546 742.3 592 c 0,9,10
 742.3 667 742.3 667 677.95 735 c 128,-1,11
 613.6 803 613.6 803 392.2 936 c 1,0,1
797.2 1462 m 1,12,-1
 797.2 1298 l 1,13,14
 722.5 1337 722.5 1337 658.15 1356.5 c 128,-1,15
 593.8 1376 593.8 1376 543.4 1376 c 0,16,17
 456.1 1376 456.1 1376 407.5 1336 c 128,-1,18
 358.9 1296 358.9 1296 358.9 1225 c 0,19,20
 358.9 1135 358.9 1135 544.3 1020 c 0,21,22
 567.7 1005 567.7 1005 580.3 997 c 0,23,24
 770.2 878 770.2 878 829.15 801 c 128,-1,25
 888.1 724 888.1 724 888.1 623 c 0,26,27
 888.1 533 888.1 533 846.7 463 c 128,-1,28
 805.3 393 805.3 393 721.6 340 c 1,29,30
 777.4 288 777.4 288 803.05 233.5 c 128,-1,31
 828.7 179 828.7 179 828.7 115 c 0,32,33
 828.7 -27 828.7 -27 736.9 -111 c 128,-1,34
 645.1 -195 645.1 -195 489.4 -195 c 0,35,36
 423.7 -195 423.7 -195 354.4 -180.5 c 128,-1,37
 285.1 -166 285.1 -166 205.9 -137 c 1,38,-1
 205.9 27 l 1,39,40
 284.2 -12 284.2 -12 350.8 -31.5 c 128,-1,41
 417.4 -51 417.4 -51 469.6 -51 c 0,42,43
 561.4 -51 561.4 -51 612.25 -9 c 128,-1,44
 663.1 33 663.1 33 663.1 109 c 0,45,46
 663.1 211 663.1 211 464.2 334 c 2,47,-1
 441.7 348 l 2,48,49
 249.1 468 249.1 468 191.5 544.5 c 128,-1,50
 133.9 621 133.9 621 133.9 723 c 0,51,52
 133.9 814 133.9 814 175.75 885.5 c 128,-1,53
 217.6 957 217.6 957 299.5 1006 c 1,54,55
 246.4 1050 246.4 1050 219.85 1106 c 128,-1,56
 193.3 1162 193.3 1162 193.3 1231 c 0,57,58
 193.3 1361 193.3 1361 283.3 1440.5 c 128,-1,59
 373.3 1520 373.3 1520 522.7 1520 c 0,60,61
 588.4 1520 588.4 1520 657.25 1505.5 c 128,-1,62
 726.1 1491 726.1 1491 797.2 1462 c 1,12,-1
EndSplineSet
EndChar
StartChar: dieresis
Encoding: 168 168 142
Width: 972
Flags: HW
Fore
596.6 1552 m 1,0,-1
 779.3 1552 l 1,1,-1
 779.3 1350 l 1,2,-1
 596.6 1350 l 1,3,-1
 596.6 1552 l 1,0,-1
244.7 1552 m 1,4,-1
 427.4 1552 l 1,5,-1
 427.4 1350 l 1,6,-1
 244.7 1350 l 1,7,-1
 244.7 1552 l 1,4,-1
EndSplineSet
Ligature: 0 1 'liga' space uni0308
EndChar
StartChar: copyright
Encoding: 169 169 139
Width: 1945
Flags: HW
Fore
1024 1485 m 0,0,1
 1160.8 1485 1160.8 1485 1279.15 1430 c 128,-1,2
 1397.5 1375 1397.5 1375 1495.6 1266 c 0,3,4
 1593.7 1157 1593.7 1157 1642.3 1026 c 128,-1,5
 1690.9 895 1690.9 895 1690.9 741 c 0,6,7
 1690.9 589 1690.9 589 1642.3 458.5 c 128,-1,8
 1593.7 328 1593.7 328 1495.6 219 c 0,9,10
 1397.5 110 1397.5 110 1279.15 55 c 128,-1,11
 1160.8 0 1160.8 0 1024 0 c 0,12,13
 887.2 0 887.2 0 768.85 55 c 128,-1,14
 650.5 110 650.5 110 552.4 219 c 0,15,16
 454.3 328 454.3 328 405.7 458.5 c 128,-1,17
 357.1 589 357.1 589 357.1 741 c 0,18,19
 357.1 895 357.1 895 405.7 1026 c 128,-1,20
 454.3 1157 454.3 1157 552.4 1266 c 0,21,22
 650.5 1375 650.5 1375 768.85 1430 c 128,-1,23
 887.2 1485 887.2 1485 1024 1485 c 0,0,1
1024 1382 m 0,24,25
 906.1 1382 906.1 1382 804.4 1335 c 128,-1,26
 702.7 1288 702.7 1288 618.1 1194 c 0,27,28
 533.5 1100 533.5 1100 490.3 985.5 c 128,-1,29
 447.1 871 447.1 871 447.1 741 c 0,30,31
 447.1 612 447.1 612 490.3 498.5 c 128,-1,32
 533.5 385 533.5 385 618.1 291 c 0,33,34
 702.7 197 702.7 197 804.4 149.5 c 128,-1,35
 906.1 102 906.1 102 1024 102 c 0,36,37
 1142.8 102 1142.8 102 1244.95 149.5 c 128,-1,38
 1347.1 197 1347.1 197 1431.7 291 c 0,39,40
 1515.4 384 1515.4 384 1557.25 497 c 128,-1,41
 1599.1 610 1599.1 610 1599.1 741 c 0,42,43
 1599.1 874 1599.1 874 1556.8 987.5 c 128,-1,44
 1514.5 1101 1514.5 1101 1431.7 1194 c 0,45,46
 1347.1 1288 1347.1 1288 1244.95 1335 c 128,-1,47
 1142.8 1382 1142.8 1382 1024 1382 c 0,24,25
1293.1 1137 m 1,48,-1
 1293.1 1008 l 1,49,50
 1233.7 1041 1233.7 1041 1175.2 1057 c 128,-1,51
 1116.7 1073 1116.7 1073 1057.3 1073 c 0,52,53
 923.2 1073 923.2 1073 848.05 985.5 c 128,-1,54
 772.9 898 772.9 898 772.9 741 c 0,55,56
 772.9 582 772.9 582 849.85 495 c 128,-1,57
 926.8 408 926.8 408 1066.3 408 c 0,58,59
 1123.9 408 1123.9 408 1178.8 423.5 c 128,-1,60
 1233.7 439 1233.7 439 1293.1 473 c 1,61,-1
 1293.1 346 l 1,62,63
 1232.8 317 1232.8 317 1171.15 303 c 128,-1,64
 1109.5 289 1109.5 289 1046.5 289 c 0,65,66
 852.1 289 852.1 289 739.15 411 c 128,-1,67
 626.2 533 626.2 533 626.2 741 c 0,68,69
 626.2 950 626.2 950 739.15 1071 c 128,-1,70
 852.1 1192 852.1 1192 1046.5 1192 c 0,71,72
 1112.2 1192 1112.2 1192 1173.4 1178 c 128,-1,73
 1234.6 1164 1234.6 1164 1293.1 1137 c 1,48,-1
EndSplineSet
EndChar
StartChar: ordfeminine
Encoding: 170 170 157
Width: 915
Flags: HW
Fore
172.2 592 m 1,0,-1
 791.4 592 l 1,1,-1
 791.4 469 l 1,2,-1
 172.2 469 l 1,3,-1
 172.2 592 l 1,0,-1
789.6 1165 m 2,4,-1
 789.6 717 l 1,5,-1
 655.5 717 l 1,6,-1
 655.5 829 l 1,7,8
 615.9 766 615.9 766 551.1 732 c 128,-1,9
 486.3 698 486.3 698 402.6 698 c 0,10,11
 287.4 698 287.4 698 219 765.5 c 128,-1,12
 150.6 833 150.6 833 150.6 946 c 0,13,14
 150.6 1081 150.6 1081 236.55 1150 c 128,-1,15
 322.5 1219 322.5 1219 491.7 1219 c 2,16,-1
 655.5 1219 l 1,17,-1
 655.5 1223 l 2,18,19
 655.5 1314 655.5 1314 602.85 1359.5 c 128,-1,20
 550.2 1405 550.2 1405 444.9 1405 c 0,21,22
 389.1 1405 389.1 1405 327.9 1388 c 128,-1,23
 266.7 1371 266.7 1371 205.5 1337 c 1,24,-1
 205.5 1464 l 1,25,26
 271.2 1492 271.2 1492 336.45 1506 c 128,-1,27
 401.7 1520 401.7 1520 463.8 1520 c 0,28,29
 628.5 1520 628.5 1520 709.05 1432 c 128,-1,30
 789.6 1344 789.6 1344 789.6 1165 c 2,4,-1
541.2 1104 m 2,31,32
 396.3 1104 396.3 1104 339.6 1070.5 c 128,-1,33
 282.9 1037 282.9 1037 282.9 958 c 0,34,35
 282.9 894 282.9 894 327 855.5 c 128,-1,36
 371.1 817 371.1 817 444.9 817 c 0,37,38
 538.5 817 538.5 817 597 889 c 128,-1,39
 655.5 961 655.5 961 655.5 1075 c 2,40,-1
 655.5 1104 l 1,41,-1
 541.2 1104 l 2,31,32
EndSplineSet
EndChar
StartChar: guillemotleft
Encoding: 171 171 169
Width: 1188
Flags: HW
Fore
1015.85 1059 m 1,0,-1
 1015.85 868 l 1,1,-1
 744.95 600 l 1,2,-1
 1015.85 332 l 1,3,-1
 1015.85 141 l 1,4,-1
 593.75 559 l 1,5,-1
 593.75 641 l 1,6,-1
 1015.85 1059 l 1,0,-1
625.25 1059 m 1,7,-1
 625.25 868 l 1,8,-1
 354.35 600 l 1,9,-1
 625.25 332 l 1,10,-1
 625.25 141 l 1,11,-1
 203.15 559 l 1,12,-1
 203.15 641 l 1,13,-1
 625.25 1059 l 1,7,-1
EndSplineSet
KernsSLIF: 356 -112 0 0 270 -36 0 0 268 -36 0 0 262 -36 0 0 286 -36 0 0 253 -36 0 0 221 -149 0 0 376 -149 0 0 255 -36 0 0 198 151 0 0 199 -36 0 0 121 -36 0 0 119 -36 0 0 118 -36 0 0 89 -149 0 0 87 -36 0 0 86 -112 0 0 84 -112 0 0 74 -36 0 0 71 -36 0 0 68 -36 0 0 67 -36 0 0 66 -36 0 0
EndChar
StartChar: logicalnot
Encoding: 172 172 164
Width: 1630
Flags: HW
Fore
281.1 862 m 1,0,-1
 1434.9 862 l 1,1,-1
 1434.9 287 l 1,2,-1
 1283.7 287 l 1,3,-1
 1283.7 692 l 1,4,-1
 281.1 692 l 1,5,-1
 281.1 862 l 1,0,-1
EndSplineSet
EndChar
StartChar: sfthyphen
Encoding: 173 173 256
Width: 702
Flags: HW
Fore
126.95 643 m 1,0,-1
 612.05 643 l 1,1,-1
 612.05 479 l 1,2,-1
 126.95 479 l 1,3,-1
 126.95 643 l 1,0,-1
EndSplineSet
EndChar
StartChar: registered
Encoding: 174 174 138
Width: 1945
Flags: HW
Fore
1024 1382 m 0,0,1
 906.1 1382 906.1 1382 804.4 1335 c 128,-1,2
 702.7 1288 702.7 1288 618.1 1194 c 0,3,4
 533.5 1100 533.5 1100 490.3 985.5 c 128,-1,5
 447.1 871 447.1 871 447.1 741 c 0,6,7
 447.1 612 447.1 612 490.3 498.5 c 128,-1,8
 533.5 385 533.5 385 618.1 291 c 0,9,10
 702.7 197 702.7 197 804.4 149.5 c 128,-1,11
 906.1 102 906.1 102 1024 102 c 0,12,13
 1142.8 102 1142.8 102 1244.95 149.5 c 128,-1,14
 1347.1 197 1347.1 197 1431.7 291 c 0,15,16
 1515.4 384 1515.4 384 1557.25 497 c 128,-1,17
 1599.1 610 1599.1 610 1599.1 741 c 0,18,19
 1599.1 874 1599.1 874 1556.8 987.5 c 128,-1,20
 1514.5 1101 1514.5 1101 1431.7 1194 c 0,21,22
 1347.1 1288 1347.1 1288 1244.95 1335 c 128,-1,23
 1142.8 1382 1142.8 1382 1024 1382 c 0,0,1
1024 1485 m 0,24,25
 1160.8 1485 1160.8 1485 1279.15 1430 c 128,-1,26
 1397.5 1375 1397.5 1375 1495.6 1266 c 0,27,28
 1593.7 1157 1593.7 1157 1642.3 1026 c 128,-1,29
 1690.9 895 1690.9 895 1690.9 741 c 0,30,31
 1690.9 589 1690.9 589 1642.3 458.5 c 128,-1,32
 1593.7 328 1593.7 328 1495.6 219 c 0,33,34
 1397.5 110 1397.5 110 1279.15 55 c 128,-1,35
 1160.8 0 1160.8 0 1024 0 c 0,36,37
 887.2 0 887.2 0 768.85 55 c 128,-1,38
 650.5 110 650.5 110 552.4 219 c 0,39,40
 454.3 328 454.3 328 405.7 458.5 c 128,-1,41
 357.1 589 357.1 589 357.1 741 c 0,42,43
 357.1 895 357.1 895 405.7 1026 c 128,-1,44
 454.3 1157 454.3 1157 552.4 1266 c 0,45,46
 650.5 1375 650.5 1375 768.85 1430 c 128,-1,47
 887.2 1485 887.2 1485 1024 1485 c 0,24,25
999.7 1071 m 2,48,-1
 889 1071 l 1,49,-1
 889 795 l 1,50,-1
 999.7 795 l 2,51,52
 1098.7 795 1098.7 795 1137.85 826 c 128,-1,53
 1177 857 1177 857 1177 932 c 0,54,55
 1177 1008 1177 1008 1137.4 1039.5 c 128,-1,56
 1097.8 1071 1097.8 1071 999.7 1071 c 2,48,-1
1006 1174 m 2,57,58
 1164.4 1174 1164.4 1174 1242.7 1114.5 c 128,-1,59
 1321 1055 1321 1055 1321 934 c 0,60,61
 1321 848 1321 848 1273.75 792 c 128,-1,62
 1226.5 736 1226.5 736 1140.1 719 c 1,63,64
 1161.7 711 1161.7 711 1191.85 672.5 c 128,-1,65
 1222 634 1222 634 1263.4 561 c 1,66,-1
 1386.7 338 l 1,67,-1
 1231.9 338 l 1,68,-1
 1115.8 547 l 2,69,70
 1062.7 643 1062.7 643 1029.85 668.5 c 128,-1,71
 997 694 997 694 948.4 694 c 2,72,-1
 889 694 l 1,73,-1
 889 338 l 1,74,-1
 749.5 338 l 1,75,-1
 749.5 1174 l 1,76,-1
 1006 1174 l 2,57,58
EndSplineSet
EndChar
StartChar: macron
Encoding: 175 175 217
Width: 972
Flags: HW
Fore
242.9 1526 m 1,0,-1
 781.1 1526 l 1,1,-1
 781.1 1378 l 1,2,-1
 242.9 1378 l 1,3,-1
 242.9 1526 l 1,0,-1
EndSplineSet
Ligature: 0 1 'liga' space uni0304
EndChar
StartChar: degree
Encoding: 176 176 131
Width: 972
Flags: HW
Fore
512 1391 m 0,0,1
 440 1391 440 1391 390.5 1335.5 c 128,-1,2
 341 1280 341 1280 341 1200 c 0,3,4
 341 1121 341 1121 390.5 1066.5 c 128,-1,5
 440 1012 440 1012 512 1012 c 0,6,7
 584 1012 584 1012 633.5 1066.5 c 128,-1,8
 683 1121 683 1121 683 1200 c 0,9,10
 683 1279 683 1279 633.05 1335 c 128,-1,11
 583.1 1391 583.1 1391 512 1391 c 0,0,1
512 1520 m 0,12,13
 569.6 1520 569.6 1520 622.7 1495.5 c 128,-1,14
 675.8 1471 675.8 1471 714.5 1425 c 1,15,16
 755.9 1380 755.9 1380 776.6 1323 c 128,-1,17
 797.3 1266 797.3 1266 797.3 1200 c 0,18,19
 797.3 1068 797.3 1068 714.05 976.5 c 128,-1,20
 630.8 885 630.8 885 510.2 885 c 0,21,22
 388.7 885 388.7 885 307.7 975 c 128,-1,23
 226.7 1065 226.7 1065 226.7 1200 c 0,24,25
 226.7 1334 226.7 1334 309.5 1427 c 128,-1,26
 392.3 1520 392.3 1520 512 1520 c 0,12,13
EndSplineSet
EndChar
StartChar: plusminus
Encoding: 177 177 147
Width: 1630
Flags: HW
Fore
933.6 1284 m 1,0,-1
 933.6 897 l 1,1,-1
 1434.9 897 l 1,2,-1
 1434.9 727 l 1,3,-1
 933.6 727 l 1,4,-1
 933.6 340 l 1,5,-1
 782.4 340 l 1,6,-1
 782.4 727 l 1,7,-1
 281.1 727 l 1,8,-1
 281.1 897 l 1,9,-1
 782.4 897 l 1,10,-1
 782.4 1284 l 1,11,-1
 933.6 1284 l 1,0,-1
281.1 170 m 1,12,-1
 1434.9 170 l 1,13,-1
 1434.9 0 l 1,14,-1
 281.1 0 l 1,15,-1
 281.1 170 l 1,12,-1
EndSplineSet
EndChar
StartChar: twosuperior
Encoding: 178 178 241
Width: 778
Flags: HW
Fore
280.5 782 m 1,0,-1
 662.1 782 l 1,1,-1
 662.1 668 l 1,2,-1
 123.9 668 l 1,3,-1
 123.9 778 l 1,4,5
 154.5 809 154.5 809 211.2 865 c 0,6,7
 520.8 1170 520.8 1170 520.8 1264 c 0,8,9
 520.8 1330 520.8 1330 474 1370.5 c 128,-1,10
 427.2 1411 427.2 1411 350.7 1411 c 0,11,12
 303.9 1411 303.9 1411 249 1393.5 c 128,-1,13
 194.1 1376 194.1 1376 129.3 1341 c 1,14,-1
 129.3 1464 l 1,15,16
 198.6 1492 198.6 1492 258.45 1506 c 128,-1,17
 318.3 1520 318.3 1520 369.6 1520 c 0,18,19
 500.1 1520 500.1 1520 578.4 1454 c 128,-1,20
 656.7 1388 656.7 1388 656.7 1280 c 0,21,22
 656.7 1141 656.7 1141 358.8 857 c 0,23,24
 308.4 809 308.4 809 280.5 782 c 1,0,-1
EndSplineSet
EndChar
StartChar: threesuperior
Encoding: 179 179 242
Width: 779
Flags: HW
Fore
512.35 1120 m 1,0,1
 595.15 1102 595.15 1102 640.6 1047.5 c 128,-1,2
 686.05 993 686.05 993 686.05 911 c 0,3,4
 686.05 787 686.05 787 600.55 720 c 128,-1,5
 515.05 653 515.05 653 355.75 653 c 0,6,7
 304.45 653 304.45 653 248.2 663.5 c 128,-1,8
 191.95 674 191.95 674 128.95 694 c 1,9,-1
 128.95 815 l 1,10,11
 175.75 788 175.75 788 229.3 775 c 128,-1,12
 282.85 762 282.85 762 343.15 762 c 0,13,14
 441.25 762 441.25 762 495.25 801.5 c 128,-1,15
 549.25 841 549.25 841 549.25 911 c 0,16,17
 549.25 985 549.25 985 499.3 1023 c 128,-1,18
 449.35 1061 449.35 1061 352.15 1061 c 2,19,-1
 274.75 1061 l 1,20,-1
 274.75 1169 l 1,21,-1
 359.35 1169 l 2,22,23
 443.95 1169 443.95 1169 487.6 1200.5 c 128,-1,24
 531.25 1232 531.25 1232 531.25 1292 c 0,25,26
 531.25 1350 531.25 1350 486.25 1380.5 c 128,-1,27
 441.25 1411 441.25 1411 355.75 1411 c 0,28,29
 319.75 1411 319.75 1411 273.85 1402 c 128,-1,30
 227.95 1393 227.95 1393 155.05 1370 c 1,31,-1
 155.05 1485 l 1,32,33
 220.75 1502 220.75 1502 278.35 1511 c 128,-1,34
 335.95 1520 335.95 1520 385.45 1520 c 0,35,36
 515.05 1520 515.05 1520 591.1 1461 c 128,-1,37
 667.15 1402 667.15 1402 667.15 1303 c 0,38,39
 667.15 1234 667.15 1234 626.65 1186 c 128,-1,40
 586.15 1138 586.15 1138 512.35 1120 c 1,0,1
EndSplineSet
EndChar
StartChar: acute
Encoding: 180 180 141
Width: 982
Flags: HW
Fore
646.95 1638 m 1,0,-1
 826.05 1638 l 1,1,-1
 532.65 1262 l 1,2,-1
 394.95 1262 l 1,3,-1
 646.95 1638 l 1,0,-1
EndSplineSet
LCarets: 0 65535 '    ' 1 0 
Ligature: 0 1 'liga' space acutecomb
EndChar
StartChar: mu
Encoding: 181 181 151
Width: 1244
Flags: HW
Fore
227.95 -426 m 1,0,-1
 227.95 1120 l 1,1,-1
 393.55 1120 l 1,2,-1
 393.55 424 l 2,3,4
 393.55 279 393.55 279 455.65 205 c 128,-1,5
 517.75 131 517.75 131 639.25 131 c 0,6,7
 772.45 131 772.45 131 839.5 215 c 128,-1,8
 906.55 299 906.55 299 906.55 467 c 2,9,-1
 906.55 1120 l 1,10,-1
 1072.15 1120 l 1,11,-1
 1072.15 258 l 2,12,13
 1072.15 198 1072.15 198 1087.9 169.5 c 128,-1,14
 1103.65 141 1103.65 141 1136.95 141 c 0,15,16
 1145.05 141 1145.05 141 1159.45 146.5 c 128,-1,17
 1173.85 152 1173.85 152 1199.05 164 c 1,18,-1
 1199.05 16 l 1,19,20
 1162.15 -7 1162.15 -7 1129.3 -18 c 128,-1,21
 1096.45 -29 1096.45 -29 1064.95 -29 c 0,22,23
 1002.85 -29 1002.85 -29 965.95 10 c 128,-1,24
 929.05 49 929.05 49 915.55 129 c 1,25,26
 870.55 50 870.55 50 805.3 10.5 c 128,-1,27
 740.05 -29 740.05 -29 651.85 -29 c 0,28,29
 560.05 -29 560.05 -29 495.7 10 c 128,-1,30
 431.35 49 431.35 49 393.55 127 c 1,31,-1
 393.55 -426 l 1,32,-1
 227.95 -426 l 1,0,-1
EndSplineSet
EndChar
StartChar: paragraph
Encoding: 182 182 136
Width: 1234
Flags: HW
Fore
631.65 1493 m 2,0,-1
 1034.85 1493 l 1,1,-1
 1034.85 -197 l 1,2,-1
 907.95 -197 l 1,3,-1
 907.95 1370 l 1,4,-1
 736.95 1370 l 1,5,-1
 736.95 -197 l 1,6,-1
 609.15 -197 l 1,7,-1
 609.15 649 l 1,8,9
 415.65 666 415.65 666 309.9 776.5 c 128,-1,10
 204.15 887 204.15 887 204.15 1071 c 0,11,12
 204.15 1261 204.15 1261 321.15 1377 c 128,-1,13
 438.15 1493 438.15 1493 631.65 1493 c 2,0,-1
EndSplineSet
EndChar
StartChar: periodcentered
Encoding: 183 183 195
Width: 618
Flags: HW
Fore
229.55 838 m 1,0,-1
 419.45 838 l 1,1,-1
 419.45 584 l 1,2,-1
 229.55 584 l 1,3,-1
 229.55 838 l 1,0,-1
EndSplineSet
EndChar
StartChar: cedilla
Encoding: 184 184 221
Width: 971
Flags: HW
Fore
586.2 0 m 1,0,1
 635.7 -62 635.7 -62 660 -114.5 c 128,-1,2
 684.3 -167 684.3 -167 684.3 -215 c 0,3,4
 684.3 -304 684.3 -304 630.3 -349.5 c 128,-1,5
 576.3 -395 576.3 -395 470.1 -395 c 0,6,7
 428.7 -395 428.7 -395 389.55 -389 c 128,-1,8
 350.4 -383 350.4 -383 311.7 -371 c 1,9,-1
 311.7 -240 l 1,10,11
 342.3 -257 342.3 -257 375.6 -264.5 c 128,-1,12
 408.9 -272 408.9 -272 451.2 -272 c 0,13,14
 504.3 -272 504.3 -272 531.3 -248 c 128,-1,15
 558.3 -224 558.3 -224 558.3 -178 c 0,16,17
 558.3 -148 558.3 -148 538.95 -104.5 c 128,-1,18
 519.6 -61 519.6 -61 479.1 0 c 1,19,-1
 586.2 0 l 1,0,1
EndSplineSet
LCarets: 0 65535 '    ' 1 0 
Ligature: 0 1 'liga' space uni0327
EndChar
StartChar: onesuperior
Encoding: 185 185 240
Width: 781
Flags: HW
Fore
182.7 778 m 1,0,-1
 366.3 778 l 1,1,-1
 366.3 1389 l 1,2,-1
 165.6 1348 l 1,3,-1
 165.6 1464 l 1,4,-1
 372.6 1503 l 1,5,-1
 495.9 1503 l 1,6,-1
 495.9 778 l 1,7,-1
 680.4 778 l 1,8,-1
 680.4 668 l 1,9,-1
 182.7 668 l 1,10,-1
 182.7 778 l 1,0,-1
EndSplineSet
EndChar
StartChar: ordmasculine
Encoding: 186 186 158
Width: 916
Flags: HW
Fore
173.3 592 m 1,0,-1
 792.5 592 l 1,1,-1
 792.5 469 l 1,2,-1
 173.3 469 l 1,3,-1
 173.3 592 l 1,0,-1
482.9 1520 m 0,4,5
 644 1520 644 1520 736.7 1409.5 c 128,-1,6
 829.4 1299 829.4 1299 829.4 1108 c 0,7,8
 829.4 917 829.4 917 736.7 807.5 c 128,-1,9
 644 698 644 698 482.9 698 c 0,10,11
 321.8 698 321.8 698 228.2 808 c 128,-1,12
 134.6 918 134.6 918 134.6 1108 c 0,13,14
 134.6 1299 134.6 1299 228.2 1409.5 c 128,-1,15
 321.8 1520 321.8 1520 482.9 1520 c 0,4,5
482.9 1405 m 0,16,17
 388.4 1405 388.4 1405 331.7 1324.5 c 128,-1,18
 275 1244 275 1244 275 1108 c 0,19,20
 275 975 275 975 332.15 895 c 128,-1,21
 389.3 815 389.3 815 482.9 815 c 0,22,23
 577.4 815 577.4 815 633.65 895 c 128,-1,24
 689.9 975 689.9 975 689.9 1108 c 0,25,26
 689.9 1245 689.9 1245 634.1 1325 c 128,-1,27
 578.3 1405 578.3 1405 482.9 1405 c 0,16,17
EndSplineSet
EndChar
StartChar: guillemotright
Encoding: 187 187 170
Width: 1192
Flags: HW
Fore
238.15 1059 m 1,0,-1
 660.25 641 l 1,1,-1
 660.25 559 l 1,2,-1
 238.15 141 l 1,3,-1
 238.15 332 l 1,4,-1
 509.05 600 l 1,5,-1
 238.15 868 l 1,6,-1
 238.15 1059 l 1,0,-1
628.75 1059 m 1,7,-1
 1050.85 641 l 1,8,-1
 1050.85 559 l 1,9,-1
 628.75 141 l 1,10,-1
 628.75 332 l 1,11,-1
 899.65 600 l 1,12,-1
 628.75 868 l 1,13,-1
 628.75 1059 l 1,7,-1
EndSplineSet
KernsSLIF: 356 -188 0 0 270 -36 0 0 268 -36 0 0 262 -36 0 0 253 -36 0 0 221 -225 0 0 210 -36 0 0 212 -36 0 0 211 -36 0 0 193 -73 0 0 194 -73 0 0 376 -225 0 0 255 -36 0 0 213 -36 0 0 195 -73 0 0 192 -73 0 0 214 -36 0 0 199 -36 0 0 196 -73 0 0 121 -36 0 0 119 -36 0 0 118 -36 0 0 89 -225 0 0 88 -112 0 0 87 -112 0 0 86 -178 0 0 84 -188 0 0 79 -36 0 0 74 -36 0 0 68 -36 0 0 67 -36 0 0 66 -73 0 0 65 -73 0 0
EndChar
StartChar: questiondown
Encoding: 191 191 162
Width: 1032
Flags: HW
Fore
504.15 1092 m 1,0,-1
 675.15 1092 l 1,1,-1
 675.15 936 l 2,2,3
 675.15 835 675.15 835 650.4 770 c 128,-1,4
 625.65 705 625.65 705 544.65 618 c 2,5,-1
 463.65 530 l 1,6,7
 411.45 477 411.45 477 388.5 430 c 128,-1,8
 365.55 383 365.55 383 365.55 334 c 0,9,10
 365.55 245 365.55 245 424.5 190 c 128,-1,11
 483.45 135 483.45 135 581.55 135 c 0,12,13
 651.75 135 651.75 135 732.75 170 c 128,-1,14
 813.75 205 813.75 205 900.15 272 c 1,15,-1
 900.15 84 l 1,16,17
 815.55 27 815.55 27 729.15 -1 c 128,-1,18
 642.75 -29 642.75 -29 550.05 -29 c 0,19,20
 384.45 -29 384.45 -29 283.65 68 c 128,-1,21
 182.85 165 182.85 165 182.85 324 c 0,22,23
 182.85 400 182.85 400 215.7 468.5 c 128,-1,24
 248.55 537 248.55 537 328.65 623 c 2,25,-1
 407.85 709 l 2,26,27
 451.05 756 451.05 756 468.15 782.5 c 128,-1,28
 485.25 809 485.25 809 492.45 834 c 0,29,30
 498.75 855 498.75 855 501.45 885 c 128,-1,31
 504.15 915 504.15 915 504.15 969 c 2,32,-1
 504.15 1092 l 1,0,-1
680.55 1239 m 1,33,-1
 498.75 1239 l 1,34,-1
 498.75 1493 l 1,35,-1
 680.55 1493 l 1,36,-1
 680.55 1239 l 1,33,-1
EndSplineSet
EndChar
StartChar: Aring
Encoding: 197 197 99
Width: 1330
Flags: HW
Fore
836.8 1626 m 0,0,1
 836.8 1689 836.8 1689 796.75 1733.5 c 128,-1,2
 756.7 1778 756.7 1778 700 1778 c 0,3,4
 642.4 1778 642.4 1778 603.25 1734.5 c 128,-1,5
 564.1 1691 564.1 1691 564.1 1626 c 0,6,7
 564.1 1563 564.1 1563 603.7 1519 c 128,-1,8
 643.3 1475 643.3 1475 700 1475 c 0,9,10
 756.7 1475 756.7 1475 796.75 1519 c 128,-1,11
 836.8 1563 836.8 1563 836.8 1626 c 0,0,1
700 1294 m 1,12,-1
 455.2 551 l 1,13,-1
 945.7 551 l 1,14,-1
 700 1294 l 1,12,-1
564.1 1397 m 1,15,16
 509.2 1438 509.2 1438 481.3 1495.5 c 128,-1,17
 453.4 1553 453.4 1553 453.4 1626 c 0,18,19
 453.4 1741 453.4 1741 524.95 1821 c 128,-1,20
 596.5 1901 596.5 1901 700 1901 c 0,21,22
 802.6 1901 802.6 1901 875.05 1820.5 c 128,-1,23
 947.5 1740 947.5 1740 947.5 1626 c 0,24,25
 947.5 1556 947.5 1556 919.15 1497 c 128,-1,26
 890.8 1438 890.8 1438 836.8 1397 c 1,27,-1
 1315.6 0 l 1,28,-1
 1126.6 0 l 1,29,-1
 1004.2 383 l 1,30,-1
 398.5 383 l 1,31,-1
 276.1 0 l 1,32,-1
 84.4004 0 l 1,33,-1
 564.1 1397 l 1,15,16
EndSplineSet
Ligature: 0 0 'liga' A uni030A
EndChar
StartChar: AE
Encoding: 198 198 144
Width: 1889
Flags: HW
Fore
1754.1 1493 m 1,0,-1
 1754.1 1323 l 1,1,-1
 1087.2 1323 l 1,2,-1
 1087.2 881 l 1,3,-1
 1727.1 881 l 1,4,-1
 1727.1 711 l 1,5,-1
 1087.2 711 l 1,6,-1
 1087.2 170 l 1,7,-1
 1771.2 170 l 1,8,-1
 1771.2 0 l 1,9,-1
 904.5 0 l 1,10,-1
 904.5 383 l 1,11,-1
 429.3 383 l 1,12,-1
 285.3 0 l 1,13,-1
 100.8 0 l 1,14,-1
 663.3 1493 l 1,15,-1
 1754.1 1493 l 1,0,-1
788.4 1335 m 1,16,-1
 491.4 551 l 1,17,-1
 904.5 551 l 1,18,-1
 904.5 1335 l 1,19,-1
 788.4 1335 l 1,16,-1
EndSplineSet
KernsSLIF: 8222 -112 0 0 8221 -92 0 0 8220 -83 0 0
EndChar
StartChar: Eth
Encoding: 208 208 232
Width: 1502
Flags: HW
Fore
263.7 1493 m 1,0,-1
 638.1 1493 l 2,1,2
 1027.8 1493 1027.8 1493 1210.5 1312.5 c 128,-1,3
 1393.2 1132 1393.2 1132 1393.2 748 c 0,4,5
 1393.2 362 1393.2 362 1210.05 181 c 128,-1,6
 1026.9 0 1026.9 0 638.1 0 c 2,7,-1
 263.7 0 l 1,8,-1
 263.7 700 l 1,9,-1
 82.7998 700 l 1,10,-1
 82.7998 844 l 1,11,-1
 263.7 844 l 1,12,-1
 263.7 1493 l 1,0,-1
446.4 1327 m 1,13,-1
 446.4 844 l 1,14,-1
 748.8 844 l 1,15,-1
 748.8 700 l 1,16,-1
 446.4 700 l 1,17,-1
 446.4 166 l 1,18,-1
 665.1 166 l 2,19,20
 943.2 166 943.2 166 1072.35 306 c 128,-1,21
 1201.5 446 1201.5 446 1201.5 748 c 0,22,23
 1201.5 1048 1201.5 1048 1072.35 1187.5 c 128,-1,24
 943.2 1327 943.2 1327 665.1 1327 c 2,25,-1
 446.4 1327 l 1,13,-1
EndSplineSet
KernsSLIF: 7922 -112 0 0 562 -112 0 0 374 -112 0 0 260 -36 0 0 258 -36 0 0 256 -36 0 0 221 -112 0 0 193 -36 0 0 194 -36 0 0 8222 -188 0 0 376 -112 0 0 8221 -55 0 0 8220 -45 0 0 195 -36 0 0 192 -36 0 0 187 -36 0 0 171 -36 0 0 196 -36 0 0 89 -112 0 0 86 -36 0 0 65 -36 0 0
EndChar
StartChar: multiply
Encoding: 215 215 239
Width: 1630
Flags: HW
Fore
1378.25 1100 m 1,0,-1
 966.95 641 l 1,1,-1
 1378.25 184 l 1,2,-1
 1271.15 63 l 1,3,-1
 858.05 522 l 1,4,-1
 444.95 63 l 1,5,-1
 338.75 184 l 1,6,-1
 749.15 641 l 1,7,-1
 338.75 1100 l 1,8,-1
 444.95 1221 l 1,9,-1
 858.05 762 l 1,10,-1
 1271.15 1221 l 1,11,-1
 1378.25 1100 l 1,0,-1
EndSplineSet
EndChar
StartChar: Oslash
Encoding: 216 216 145
Width: 1531
Flags: HW
Fore
1165.95 1112 m 1,0,-1
 520.65 266 l 1,1,2
 576.45 202 576.45 202 648.9 168.5 c 128,-1,3
 721.35 135 721.35 135 806.85 135 c 0,4,5
 1004.85 135 1004.85 135 1120.5 299 c 128,-1,6
 1236.15 463 1236.15 463 1236.15 745 c 0,7,8
 1236.15 857 1236.15 857 1218.6 949 c 128,-1,9
 1201.05 1041 1201.05 1041 1165.95 1112 c 1,0,-1
1092.15 1225 m 1,10,11
 1037.25 1289 1037.25 1289 964.8 1322.5 c 128,-1,12
 892.35 1356 892.35 1356 806.85 1356 c 0,13,14
 608.85 1356 608.85 1356 492.3 1192 c 128,-1,15
 375.75 1028 375.75 1028 375.75 745 c 0,16,17
 375.75 633 375.75 633 393.3 539 c 128,-1,18
 410.85 445 410.85 445 445.95 377 c 1,19,-1
 1092.15 1225 l 1,10,11
325.35 219 m 1,20,21
 255.15 321 255.15 321 219.6 453 c 128,-1,22
 184.05 585 184.05 585 184.05 745 c 0,23,24
 184.05 1099 184.05 1099 353.7 1309.5 c 128,-1,25
 523.35 1520 523.35 1520 806.85 1520 c 0,26,27
 923.85 1520 923.85 1520 1023.3 1481.5 c 128,-1,28
 1122.75 1443 1122.75 1443 1201.05 1368 c 1,29,-1
 1346.85 1559 l 1,30,-1
 1438.65 1470 l 1,31,-1
 1285.65 1272 l 1,32,33
 1355.85 1169 1355.85 1169 1391.85 1036 c 128,-1,34
 1427.85 903 1427.85 903 1427.85 745 c 0,35,36
 1427.85 392 1427.85 392 1258.65 181.5 c 128,-1,37
 1089.45 -29 1089.45 -29 806.85 -29 c 0,38,39
 691.65 -29 691.65 -29 592.2 8.5 c 128,-1,40
 492.75 46 492.75 46 410.85 121 c 1,41,-1
 265.05 -70 l 1,42,-1
 172.35 18 l 1,43,-1
 325.35 219 l 1,20,21
EndSplineSet
EndChar
StartChar: Thorn
Encoding: 222 222 236
Width: 1183
Flags: HW
Fore
249.2 1493 m 1,0,-1
 431 1493 l 1,1,-1
 431 1229 l 1,2,-1
 659.6 1229 l 2,3,4
 885.5 1229 885.5 1229 1001.15 1116.5 c 128,-1,5
 1116.8 1004 1116.8 1004 1116.8 784 c 0,6,7
 1116.8 564 1116.8 564 1001.15 451 c 128,-1,8
 885.5 338 885.5 338 659.6 338 c 2,9,-1
 431 338 l 1,10,-1
 431 0 l 1,11,-1
 249.2 0 l 1,12,-1
 249.2 1493 l 1,0,-1
431 1063 m 1,13,-1
 431 504 l 1,14,-1
 659.6 504 l 2,15,16
 786.5 504 786.5 504 855.8 577 c 128,-1,17
 925.1 650 925.1 650 925.1 784 c 0,18,19
 925.1 918 925.1 918 856.25 990.5 c 128,-1,20
 787.4 1063 787.4 1063 659.6 1063 c 2,21,-1
 431 1063 l 1,13,-1
EndSplineSet
KernsSLIF: 8222 -188 0 0 8220 -36 0 0 58 -73 0 0 46 -149 0 0
EndChar
StartChar: germandbls
Encoding: 223 223 137
Width: 1230
Flags: HW
Fore
236.5 1137 m 2,0,1
 236.5 1337 236.5 1337 344.05 1446.5 c 128,-1,2
 451.6 1556 451.6 1556 647.8 1556 c 0,3,4
 835 1556 835 1556 933.55 1440 c 128,-1,5
 1032.1 1324 1032.1 1324 1034.8 1100 c 1,6,7
 898.9 1092 898.9 1092 823.3 1034.5 c 128,-1,8
 747.7 977 747.7 977 747.7 881 c 0,9,10
 747.7 834 747.7 834 773.8 793.5 c 128,-1,11
 799.9 753 799.9 753 858.4 711 c 2,12,-1
 909.7 674 l 2,13,14
 1059.1 568 1059.1 568 1102.3 497 c 128,-1,15
 1145.5 426 1145.5 426 1145.5 326 c 0,16,17
 1145.5 154 1145.5 154 1044.25 62.5 c 128,-1,18
 943 -29 943 -29 753.1 -29 c 0,19,20
 695.5 -29 695.5 -29 634.3 -16.5 c 128,-1,21
 573.1 -4 573.1 -4 507.4 20 c 1,22,-1
 507.4 184 l 1,23,24
 579.4 154 579.4 154 642.4 139.5 c 128,-1,25
 705.4 125 705.4 125 763.9 125 c 0,26,27
 868.3 125 868.3 125 922.3 172.5 c 128,-1,28
 976.3 220 976.3 220 976.3 311 c 0,29,30
 976.3 374 976.3 374 949.75 416 c 128,-1,31
 923.2 458 923.2 458 832.3 520 c 2,32,-1
 749.5 575 l 2,33,34
 663.1 634 663.1 634 623.95 701.5 c 128,-1,35
 584.8 769 584.8 769 584.8 860 c 0,36,37
 584.8 987 584.8 987 659.95 1073 c 128,-1,38
 735.1 1159 735.1 1159 871 1188 c 1,39,40
 863.8 1291 863.8 1291 804.85 1347 c 128,-1,41
 745.9 1403 745.9 1403 644.2 1403 c 0,42,43
 527.2 1403 527.2 1403 466 1333.5 c 128,-1,44
 404.8 1264 404.8 1264 404.8 1133 c 2,45,-1
 404.8 0 l 1,46,-1
 236.5 0 l 1,47,-1
 236.5 1137 l 2,0,1
EndSplineSet
KernsSLIF: 8222 -83 0 0 8221 -112 0 0 8220 -112 0 0 45 38 0 0
EndChar
StartChar: ae
Encoding: 230 230 160
Width: 1911
Flags: HW
Fore
1647.5 660 m 1,0,1
 1646.6 811 1646.6 811 1572.35 901 c 128,-1,2
 1498.1 991 1498.1 991 1374.8 991 c 0,3,4
 1237.1 991 1237.1 991 1153.85 904 c 128,-1,5
 1070.6 817 1070.6 817 1058 659 c 1,6,-1
 1647.5 660 l 1,0,1
996.8 963 m 1,7,8
 1063.4 1053 1063.4 1053 1158.8 1100 c 128,-1,9
 1254.2 1147 1254.2 1147 1373 1147 c 0,10,11
 1576.4 1147 1576.4 1147 1695.2 1001.5 c 128,-1,12
 1814 856 1814 856 1814 606 c 2,13,-1
 1814 516 l 1,14,-1
 1052.6 516 l 1,15,16
 1063.4 325 1063.4 325 1155.2 225 c 128,-1,17
 1247 125 1247 125 1411.7 125 c 0,18,19
 1505.3 125 1505.3 125 1595.3 151.5 c 128,-1,20
 1685.3 178 1685.3 178 1775.3 231 c 1,21,-1
 1775.3 57 l 1,22,23
 1685.3 15 1685.3 15 1591.7 -7 c 128,-1,24
 1498.1 -29 1498.1 -29 1402.7 -29 c 0,25,26
 1252.4 -29 1252.4 -29 1140.8 31.5 c 128,-1,27
 1029.2 92 1029.2 92 959.9 211 c 1,28,29
 894.2 91 894.2 91 797 31 c 128,-1,30
 699.8 -29 699.8 -29 571.1 -29 c 0,31,32
 401 -29 401 -29 306.5 64.5 c 128,-1,33
 212 158 212 158 212 326 c 0,34,35
 212 515 212 515 325.85 611 c 128,-1,36
 439.7 707 439.7 707 665.6 707 c 2,37,-1
 897.8 707 l 1,38,-1
 897.8 725 l 2,39,40
 897.8 852 897.8 852 822.65 921.5 c 128,-1,41
 747.5 991 747.5 991 611.6 991 c 0,42,43
 525.2 991 525.2 991 443.3 968 c 128,-1,44
 361.4 945 361.4 945 285.8 899 c 1,45,-1
 285.8 1069 l 1,46,47
 376.7 1108 376.7 1108 462.2 1127.5 c 128,-1,48
 547.7 1147 547.7 1147 628.7 1147 c 0,49,50
 756.5 1147 756.5 1147 852.35 1099 c 128,-1,51
 948.2 1051 948.2 1051 996.8 963 c 1,7,8
733.1 563 m 2,52,53
 532.4 563 532.4 563 455 512 c 128,-1,54
 377.6 461 377.6 461 377.6 338 c 0,55,56
 377.6 240 377.6 240 435.65 182.5 c 128,-1,57
 493.7 125 493.7 125 593.6 125 c 0,58,59
 731.3 125 731.3 125 814.55 233.5 c 128,-1,60
 897.8 342 897.8 342 897.8 522 c 2,61,-1
 897.8 563 l 1,62,-1
 733.1 563 l 2,52,53
EndSplineSet
EndChar
StartChar: eth
Encoding: 240 240 233
Width: 1190
Flags: HW
Fore
816.9 915 m 1,0,1
 771.9 932 771.9 932 732.3 940 c 128,-1,2
 692.7 948 692.7 948 655.8 948 c 0,3,4
 505.5 948 505.5 948 422.25 840 c 128,-1,5
 339 732 339 732 339 537 c 0,6,7
 339 349 339 349 417.3 238 c 128,-1,8
 495.6 127 495.6 127 627 127 c 0,9,10
 757.5 127 757.5 127 835.8 238 c 128,-1,11
 914.1 349 914.1 349 914.1 537 c 0,12,13
 914.1 659 914.1 659 889.8 753 c 128,-1,14
 865.5 847 865.5 847 816.9 915 c 1,0,1
873.6 1141 m 2,15,16
 987 998 987 998 1038.3 854 c 128,-1,17
 1089.6 710 1089.6 710 1089.6 537 c 0,18,19
 1089.6 282 1089.6 282 961.8 126.5 c 128,-1,20
 834 -29 834 -29 627 -29 c 0,21,22
 419.1 -29 419.1 -29 291.75 126.5 c 128,-1,23
 164.4 282 164.4 282 164.4 537 c 0,24,25
 164.4 787 164.4 787 288.6 942.5 c 128,-1,26
 412.8 1098 412.8 1098 611.7 1098 c 0,27,28
 627.9 1098 627.9 1098 651.3 1095.5 c 128,-1,29
 674.7 1093 674.7 1093 712.5 1088 c 1,30,-1
 569.4 1268 l 1,31,-1
 282.3 1161 l 1,32,-1
 252.6 1260 l 1,33,-1
 505.5 1352 l 1,34,-1
 342.6 1556 l 1,35,-1
 547.8 1556 l 1,36,-1
 662.1 1411 l 1,37,-1
 961.8 1522 l 1,38,-1
 991.5 1425 l 1,39,-1
 726 1327 l 1,40,-1
 873.6 1141 l 2,15,16
EndSplineSet
KernsSLIF: 8222 -73 0 0 8221 -112 0 0 8220 -92 0 0
EndChar
StartChar: divide
Encoding: 247 247 184
Width: 1630
Flags: HW
Fore
747.3 1135 m 1,0,-1
 968.7 1135 l 1,1,-1
 968.7 889 l 1,2,-1
 747.3 889 l 1,3,-1
 747.3 1135 l 1,0,-1
747.3 395 m 1,4,-1
 968.7 395 l 1,5,-1
 968.7 150 l 1,6,-1
 747.3 150 l 1,7,-1
 747.3 395 l 1,4,-1
281.1 727 m 1,8,-1
 1434.9 727 l 1,9,-1
 1434.9 557 l 1,10,-1
 281.1 557 l 1,11,-1
 281.1 727 l 1,8,-1
EndSplineSet
EndChar
StartChar: oslash
Encoding: 248 248 161
Width: 1190
Flags: HW
Fore
877.1 801 m 1,0,-1
 438.8 209 l 1,1,2
 475.7 167 475.7 167 522.05 147 c 128,-1,3
 568.4 127 568.4 127 626.9 127 c 0,4,5
 759.2 127 759.2 127 836.6 243 c 128,-1,6
 914 359 914 359 914 559 c 0,7,8
 914 638 914 638 905 696.5 c 128,-1,9
 896 755 896 755 877.1 801 c 1,0,-1
813.2 909 m 1,10,11
 775.4 950 775.4 950 729.05 970.5 c 128,-1,12
 682.7 991 682.7 991 626.9 991 c 0,13,14
 491 991 491 991 414.95 873.5 c 128,-1,15
 338.9 756 338.9 756 338.9 545 c 0,16,17
 338.9 473 338.9 473 347.45 418 c 128,-1,18
 356 363 356 363 374 317 c 1,19,-1
 813.2 909 l 1,10,11
261.5 166 m 1,20,21
 212.9 243 212.9 243 188.6 341.5 c 128,-1,22
 164.3 440 164.3 440 164.3 559 c 0,23,24
 164.3 835 164.3 835 287.15 991 c 128,-1,25
 410 1147 410 1147 626.9 1147 c 0,26,27
 710.6 1147 710.6 1147 782.15 1121.5 c 128,-1,28
 853.7 1096 853.7 1096 914 1044 c 1,29,-1
 1039.1 1212 l 1,30,-1
 1124.6 1133 l 1,31,-1
 993.2 954 l 1,32,33
 1040.9 877 1040.9 877 1065.2 778 c 128,-1,34
 1089.5 679 1089.5 679 1089.5 559 c 0,35,36
 1089.5 284 1089.5 284 966.2 127.5 c 128,-1,37
 842.9 -29 842.9 -29 626.9 -29 c 0,38,39
 540.5 -29 540.5 -29 468.05 -3 c 128,-1,40
 395.6 23 395.6 23 338.9 74 c 1,41,-1
 213.8 -94 l 1,42,-1
 127.4 -16 l 1,43,-1
 261.5 166 l 1,20,21
EndSplineSet
EndChar
StartChar: thorn
Encoding: 254 254 237
Width: 1238
Flags: HW
Fore
402.6 168 m 1,0,-1
 402.6 -426 l 1,1,-1
 236.1 -426 l 1,2,-1
 236.1 1556 l 1,3,-1
 402.6 1556 l 1,4,-1
 402.6 950 l 1,5,6
 454.8 1050 454.8 1050 534.45 1098.5 c 128,-1,7
 614.1 1147 614.1 1147 724.8 1147 c 0,8,9
 908.4 1147 908.4 1147 1023.15 985 c 128,-1,10
 1137.9 823 1137.9 823 1137.9 559 c 0,11,12
 1137.9 295 1137.9 295 1023.15 133 c 128,-1,13
 908.4 -29 908.4 -29 724.8 -29 c 0,14,15
 614.1 -29 614.1 -29 534.45 19.5 c 128,-1,16
 454.8 68 454.8 68 402.6 168 c 1,0,-1
966 559 m 0,17,18
 966 762 966 762 890.85 877.5 c 128,-1,19
 815.7 993 815.7 993 684.3 993 c 0,20,21
 552.9 993 552.9 993 477.75 877.5 c 128,-1,22
 402.6 762 402.6 762 402.6 559 c 0,23,24
 402.6 356 402.6 356 477.75 240.5 c 128,-1,25
 552.9 125 552.9 125 684.3 125 c 0,26,27
 815.7 125 815.7 125 890.85 240.5 c 128,-1,28
 966 356 966 356 966 559 c 0,17,18
EndSplineSet
EndChar
StartChar: Dcroat
Encoding: 272 272 257
Width: 1502
Flags: HW
Fore
263.7 1493 m 1,0,-1
 638.1 1493 l 2,1,2
 1027.8 1493 1027.8 1493 1210.5 1312.5 c 128,-1,3
 1393.2 1132 1393.2 1132 1393.2 748 c 0,4,5
 1393.2 362 1393.2 362 1210.05 181 c 128,-1,6
 1026.9 0 1026.9 0 638.1 0 c 2,7,-1
 263.7 0 l 1,8,-1
 263.7 700 l 1,9,-1
 82.7998 700 l 1,10,-1
 82.7998 844 l 1,11,-1
 263.7 844 l 1,12,-1
 263.7 1493 l 1,0,-1
446.4 1327 m 1,13,-1
 446.4 844 l 1,14,-1
 748.8 844 l 1,15,-1
 748.8 700 l 1,16,-1
 446.4 700 l 1,17,-1
 446.4 166 l 1,18,-1
 665.1 166 l 2,19,20
 943.2 166 943.2 166 1072.35 306 c 128,-1,21
 1201.5 446 1201.5 446 1201.5 748 c 0,22,23
 1201.5 1048 1201.5 1048 1072.35 1187.5 c 128,-1,24
 943.2 1327 943.2 1327 665.1 1327 c 2,25,-1
 446.4 1327 l 1,13,-1
EndSplineSet
KernsSLIF: 221 -112 0 0 193 -36 0 0 194 -36 0 0 8222 -188 0 0 376 -112 0 0 8221 -55 0 0 8220 -45 0 0 195 -36 0 0 192 -36 0 0 187 -36 0 0 171 -36 0 0 196 -36 0 0 89 -112 0 0 86 -36 0 0 65 -36 0 0
EndChar
StartChar: dcroat
Encoding: 273 273 255
Width: 1239
Flags: HW
Fore
906.05 950 m 1,0,-1
 906.05 1284 l 1,1,-1
 612.65 1284 l 1,2,-1
 612.65 1409 l 1,3,-1
 906.05 1409 l 1,4,-1
 906.05 1556 l 1,5,-1
 1071.65 1556 l 1,6,-1
 1071.65 1409 l 1,7,-1
 1210.25 1409 l 1,8,-1
 1210.25 1284 l 1,9,-1
 1071.65 1284 l 1,10,-1
 1071.65 0 l 1,11,-1
 906.05 0 l 1,12,-1
 906.05 168 l 1,13,14
 853.85 68 853.85 68 774.2 19.5 c 128,-1,15
 694.55 -29 694.55 -29 582.95 -29 c 0,16,17
 400.25 -29 400.25 -29 285.5 133 c 128,-1,18
 170.75 295 170.75 295 170.75 559 c 0,19,20
 170.75 823 170.75 823 285.5 985 c 128,-1,21
 400.25 1147 400.25 1147 582.95 1147 c 0,22,23
 694.55 1147 694.55 1147 774.2 1098.5 c 128,-1,24
 853.85 1050 853.85 1050 906.05 950 c 1,0,-1
341.75 559 m 0,25,26
 341.75 356 341.75 356 416.9 240.5 c 128,-1,27
 492.05 125 492.05 125 623.45 125 c 0,28,29
 754.85 125 754.85 125 830.45 240.5 c 128,-1,30
 906.05 356 906.05 356 906.05 559 c 0,31,32
 906.05 762 906.05 762 830.45 877.5 c 128,-1,33
 754.85 993 754.85 993 623.45 993 c 0,34,35
 492.05 993 492.05 993 416.9 877.5 c 128,-1,36
 341.75 762 341.75 762 341.75 559 c 0,25,26
EndSplineSet
EndChar
StartChar: Hbar
Encoding: 294 294 252
Width: 1782
Flags: HW
Fore
425.9 1493 m 1,0,-1
 607.7 1493 l 1,1,-1
 607.7 1269 l 1,0,0
 1268.3 1269 l 1,0,0
 1268.3 1493 l 1,4,-1
 1450.1 1493 l 1,5,-1
 1450.1 1269 l 1,0,0
 1601.3 1269 l 1,1,-1
 1601.3 1105 l 1,2,-1
 1450.1 1105 l 1,0,0
 1450.1 0 l 1,6,-1
 1268.3 0 l 1,7,-1
 1268.3 711 l 1,8,-1
 607.7 711 l 1,9,-1
 607.7 0 l 1,10,-1
 425.9 0 l 1,11,-1
 425.9 1105 l 1,0,0
 274.7 1105 l 1,3,-1
 274.7 1269 l 1,0,-1
 425.9 1269 l 1,0,0
 425.9 1493 l 1,0,-1
607.7 1105 m 1,0,0
 607.7 881 l 1,2,-1
 1268.3 881 l 1,3,-1
 1268.3 1105 l 1,0,0
 607.7 1105 l 1,0,0
EndSplineSet
EndChar
StartChar: hbar
Encoding: 295 295 253
Width: 1345
Flags: HW
Fore
1129.85 676 m 2,0,-1
 1129.85 0 l 1,1,-1
 964.25 0 l 1,2,-1
 964.25 670 l 2,3,4
 964.25 829 964.25 829 908.45 908 c 128,-1,5
 852.65 987 852.65 987 741.05 987 c 0,6,7
 606.95 987 606.95 987 529.55 892 c 128,-1,8
 452.15 797 452.15 797 452.15 633 c 2,9,-1
 452.15 0 l 1,10,-1
 285.65 0 l 1,11,-1
 285.65 1270 l 1,0,0
 173.15 1270 l 1,3,-1
 173.15 1434 l 1,0,-1
 285.65 1434 l 1,0,0
 285.65 1556 l 1,12,-1
 452.15 1556 l 1,13,-1
 452.15 1434 l 1,0,0
 768.95 1434 l 1,1,-1
 768.95 1270 l 1,2,-1
 452.15 1270 l 1,0,0
 452.15 946 l 1,14,15
 511.55 1047 511.55 1047 592.1 1097 c 128,-1,16
 672.65 1147 672.65 1147 777.95 1147 c 0,17,18
 951.65 1147 951.65 1147 1040.75 1027.5 c 128,-1,19
 1129.85 908 1129.85 908 1129.85 676 c 2,0,-1
EndSplineSet
EndChar
StartChar: dotlessi
Encoding: 305 305 214
Width: 540
Flags: HW
Fore
202.2 1120 m 1,0,-1
 367.8 1120 l 1,1,-1
 367.8 0 l 1,2,-1
 202.2 0 l 1,3,-1
 202.2 1120 l 1,0,-1
EndSplineSet
EndChar
StartChar: kgreenlandic
Encoding: 312 312 217
Width: 1135
Flags: HW
Fore
235.7 1120 m 1,0,-1
 402.2 1120 l 1,1,-1
 402.2 635 l 1,2,-1
 896.3 1120 l 1,3,-1
 1107.8 1120 l 1,4,-1
 573.2 594 l 1,5,-1
 1130.3 0 l 1,6,-1
 914.3 0 l 1,7,-1
 402.2 545 l 1,8,-1
 402.2 0 l 1,9,-1
 235.7 0 l 1,10,-1
 235.7 1120 l 1,0,-1
EndSplineSet
EndChar
StartChar: Lslash
Encoding: 321 321 225
Width: 1092
Flags: HW
Fore
246.25 1493 m 1,0,-1
 428.95 1493 l 1,1,-1
 428.95 877 l 1,2,-1
 710.65 1096 l 1,3,-1
 782.65 985 l 1,4,-1
 428.95 711 l 1,5,-1
 428.95 170 l 1,6,-1
 1083.25 170 l 1,7,-1
 1083.25 0 l 1,8,-1
 246.25 0 l 1,9,-1
 246.25 571 l 1,10,-1
 113.05 465 l 1,11,-1
 43.75 575 l 1,12,-1
 246.25 733 l 1,13,-1
 246.25 1493 l 1,0,-1
EndSplineSet
EndChar
StartChar: lslash
Encoding: 322 322 226
Width: 553
Flags: HW
Fore
208.4 1556 m 1,0,-1
 374 1556 l 1,1,-1
 374 954 l 1,2,-1
 486.5 1044 l 1,3,-1
 554.9 938 l 1,4,-1
 374 797 l 1,5,-1
 374 0 l 1,6,-1
 208.4 0 l 1,7,-1
 208.4 666 l 1,8,-1
 97.7002 578 l 1,9,-1
 31.0996 684 l 1,10,-1
 208.4 825 l 1,11,-1
 208.4 1556 l 1,0,-1
EndSplineSet
EndChar
StartChar: Eng
Encoding: 330 330 230
Width: 1455
Flags: HW
Fore
268.3 1493 m 1,0,-1
 433.9 1493 l 1,1,-1
 1098.1 344 l 1,2,-1
 1098.1 1493 l 1,3,-1
 1263.7 1493 l 1,4,-1
 1263.7 -20 l 18,5,-1
 1263.7 -234 1263.7 -234 1189.9 -330 c 128,-1,4
 1117 -426 1117 -426 954.1 -426 c 2,5,-1
 725.5 -426 l 1,6,-1
 725.5 -270 l 1,7,-1
 935.2 -270 l 2,8,9
 1029.7 -270 1029.7 -270 1063.9 -222 c 128,-1,10
 1098.1 -173 1098.1 -173 1098.1 0 c 1,6,-1
 433.9 1149 l 1,7,-1
 433.9 0 l 1,8,-1
 268.3 0 l 1,9,-1
 268.3 1493 l 1,0,-1
EndSplineSet
EndChar
StartChar: eng
Encoding: 331 331 231
Width: 1233
Flags: HW
Fore
1077.1 676 m 2,0,-1
 1077.1 -20 l 2,2,3
 1077.1 -234 1077.1 -234 1003.3 -330 c 128,-1,4
 930.4 -426 930.4 -426 767.5 -426 c 2,5,-1
 538.9 -426 l 1,6,-1
 538.9 -270 l 1,7,-1
 748.6 -270 l 2,8,9
 843.1 -270 843.1 -270 877.3 -222 c 128,-1,10
 911.5 -173 911.5 -173 911.5 -20 c 2,11,-1
 911.5 670 l 2,3,4
 911.5 829 911.5 829 855.7 908 c 128,-1,5
 799.9 987 799.9 987 688.3 987 c 0,6,7
 554.2 987 554.2 987 476.8 892 c 128,-1,8
 399.4 797 399.4 797 399.4 633 c 2,9,-1
 399.4 0 l 1,10,-1
 232.9 0 l 1,11,-1
 232.9 1120 l 1,12,-1
 399.4 1120 l 1,13,-1
 399.4 946 l 1,14,15
 458.8 1047 458.8 1047 538.9 1097 c 128,-1,16
 619.9 1147 619.9 1147 725.2 1147 c 0,17,18
 898.9 1147 898.9 1147 988 1028 c 128,-1,19
 1077.1 908 1077.1 908 1077.1 676 c 2,0,-1
EndSplineSet
EndChar
StartChar: OE
Encoding: 338 338 176
Width: 2080
Flags: HW
Fore
1946.55 1493 m 1,0,-1
 1946.55 1323 l 1,1,-1
 1278.75 1323 l 1,2,-1
 1278.75 881 l 1,3,-1
 1918.65 881 l 1,4,-1
 1918.65 711 l 1,5,-1
 1278.75 711 l 1,6,-1
 1278.75 170 l 1,7,-1
 1962.75 170 l 1,8,-1
 1962.75 0 l 1,9,-1
 1004.25 0 l 2,10,11
 614.55 0 614.55 0 413.4 190 c 128,-1,12
 212.25 380 212.25 380 212.25 748 c 0,13,14
 212.25 1113 212.25 1113 413.4 1303 c 128,-1,15
 614.55 1493 614.55 1493 1004.25 1493 c 2,16,-1
 1946.55 1493 l 1,0,-1
1096.95 1323 m 1,17,-1
 980.85 1323 l 2,18,19
 691.95 1323 691.95 1323 547.95 1179.5 c 128,-1,20
 403.95 1036 403.95 1036 403.95 748 c 0,21,22
 403.95 459 403.95 459 547.95 314.5 c 128,-1,23
 691.95 170 691.95 170 980.85 170 c 2,24,-1
 1096.95 170 l 1,25,-1
 1096.95 1323 l 1,17,-1
EndSplineSet
EndChar
StartChar: oe
Encoding: 339 339 177
Width: 1990
Flags: HW
Fore
1726.8 660 m 1,0,1
 1725 812 1725 812 1651.2 901.5 c 128,-1,2
 1577.4 991 1577.4 991 1454.1 991 c 0,3,4
 1316.4 991 1316.4 991 1233.15 904 c 128,-1,5
 1149.9 817 1149.9 817 1137.3 659 c 1,6,-1
 1726.8 660 l 1,0,1
1893.3 606 m 2,7,-1
 1893.3 516 l 1,8,-1
 1131.9 516 l 1,9,10
 1142.7 326 1142.7 326 1234.5 226.5 c 128,-1,11
 1326.3 127 1326.3 127 1491 127 c 0,12,13
 1586.4 127 1586.4 127 1676.4 153 c 128,-1,14
 1766.4 179 1766.4 179 1854.6 231 c 1,15,-1
 1854.6 57 l 1,16,17
 1764.6 15 1764.6 15 1671 -7 c 128,-1,18
 1577.4 -29 1577.4 -29 1482 -29 c 0,19,20
 1338 -29 1338 -29 1229.1 26 c 128,-1,21
 1120.2 81 1120.2 81 1047.3 190 c 1,22,23
 983.4 80 983.4 80 889.35 25.5 c 128,-1,24
 795.3 -29 795.3 -29 669.3 -29 c 0,25,26
 452.4 -29 452.4 -29 329.55 127.5 c 128,-1,27
 206.7 284 206.7 284 206.7 559 c 0,28,29
 206.7 835 206.7 835 329.55 991 c 128,-1,30
 452.4 1147 452.4 1147 669.3 1147 c 0,31,32
 795.3 1147 795.3 1147 890.25 1091.5 c 128,-1,33
 985.2 1036 985.2 1036 1044.6 928 c 1,34,35
 1114.8 1035 1114.8 1035 1219.2 1091 c 128,-1,36
 1323.6 1147 1323.6 1147 1452.3 1147 c 0,37,38
 1655.7 1147 1655.7 1147 1774.5 1001.5 c 128,-1,39
 1893.3 856 1893.3 856 1893.3 606 c 2,7,-1
669.3 991 m 0,40,41
 536.1 991 536.1 991 458.7 875.5 c 128,-1,42
 381.3 760 381.3 760 381.3 559 c 0,43,44
 381.3 358 381.3 358 458.25 242.5 c 128,-1,45
 535.2 127 535.2 127 669.3 127 c 0,46,47
 801.6 127 801.6 127 879 243 c 128,-1,48
 956.4 359 956.4 359 956.4 559 c 0,49,50
 956.4 758 956.4 758 879 874.5 c 128,-1,51
 801.6 991 801.6 991 669.3 991 c 0,40,41
EndSplineSet
EndChar
StartChar: Tbar
Encoding: 358 358 231
Width: 1188
Flags: HW
TeX: 0 0 0 0
Fore
57.1504 1493 m 1,0,-1
 1193.85 1493 l 1,1,-1
 1193.85 1323 l 1,2,-1
 716.85 1323 l 1,3,-1
 716.85 747 l 1,4,-1
 955.35 747 l 1,5,-1
 955.35 577 l 1,6,-1
 716.85 577 l 1,7,-1
 716.85 0 l 1,8,-1
 534.15 0 l 1,9,-1
 534.15 577 l 1,10,-1
 295.65 577 l 1,11,-1
 295.65 747 l 1,12,-1
 534.15 747 l 1,13,-1
 534.15 1323 l 1,14,-1
 57.1504 1323 l 1,15,-1
 57.1504 1493 l 1,0,-1
EndSplineSet
EndChar
StartChar: tbar
Encoding: 359 359 232
Width: 763
Flags: HW
TeX: 0 0 0 0
Fore
377.95 1438 m 1,0,-1
 377.95 1120 l 1,1,-1
 719.05 1120 l 1,2,-1
 719.05 977 l 1,3,-1
 377.95 977 l 1,4,-1
 377.95 744 l 1,0,0
 548.95 744 l 1,0,0
 548.95 602 l 1,0,0
 377.95 602 l 1,0,0
 377.95 369 l 2,5,6
 377.95 232 377.95 232 411.25 193 c 128,-1,7
 445.45 154 445.45 154 548.95 154 c 2,8,-1
 719.05 154 l 1,9,-1
 719.05 0 l 1,10,-1
 548.95 0 l 2,11,12
 357.25 0 357.25 0 284.35 80 c 128,-1,13
 211.45 159 211.45 159 211.45 369 c 2,14,-1
 211.45 602 l 1,0,0
 89.9502 602 l 1,0,0
 89.9502 744 l 1,0,0
 211.45 744 l 1,0,0
 211.45 977 l 1,15,-1
 89.9502 977 l 1,16,-1
 89.9502 1120 l 1,17,-1
 211.45 1120 l 1,18,-1
 211.45 1438 l 1,19,-1
 377.95 1438 l 1,0,-1
EndSplineSet
EndChar
StartChar: longs
Encoding: 383 383 231
Width: 689
Flags: HW
TeX: 0 0 0 0
Fore
407.55 0 m 1,10,-1
 241.05 0 l 1,11,-1
 241.05 977 l 1,12,-1
 82.6504 977 l 1,13,-1
 82.6504 1120 l 1,14,-1
 241.05 1120 l 1,15,-1
 241.05 1198 l 2,16,17
 241.05 1385 241.05 1385 319.35 1470.5 c 128,-1,18
 397.65 1556 397.65 1556 567.75 1556 c 2,19,-1
 724.35 1556 l 1,0,-1
 724.35 1403 l 1,1,-1
 565.95 1403 l 2,2,3
 476.85 1403 476.85 1403 442.2 1363 c 128,-1,4
 407.55 1321.93 407.55 1321.93 407.55 1219 c 2,5,-1
 407.55 0 l 1,10,-1
EndSplineSet
EndChar
StartChar: florin
Encoding: 402 402 166
Width: 1238
Flags: HW
Fore
1219.45 1520 m 1,0,-1
 1219.45 1356 l 1,1,2
 1185.25 1385 1185.25 1385 1149.25 1399 c 128,-1,3
 1113.25 1413 1113.25 1413 1073.65 1413 c 0,4,5
 987.25 1413 987.25 1413 935.95 1352 c 128,-1,6
 884.65 1291 884.65 1291 862.15 1159 c 1,7,-1
 808.15 848 l 1,8,-1
 1066.45 848 l 1,9,-1
 1066.45 705 l 1,10,-1
 781.15 705 l 1,11,-1
 666.85 70 l 1,12,13
 614.65 -215 614.65 -215 530.05 -320.5 c 128,-1,14
 445.45 -426 445.45 -426 278.05 -426 c 0,15,16
 225.85 -426 225.85 -426 180.85 -415.5 c 128,-1,17
 135.85 -405 135.85 -405 93.5498 -383 c 1,18,-1
 93.5498 -217 l 1,19,20
 140.35 -250 140.35 -250 184 -266.5 c 128,-1,21
 227.65 -283 227.65 -283 269.95 -283 c 0,22,23
 357.25 -283 357.25 -283 406.3 -214.5 c 128,-1,24
 455.35 -146 455.35 -146 485.95 20 c 1,25,-1
 609.25 705 l 1,26,-1
 386.05 705 l 1,27,-1
 386.05 848 l 1,28,-1
 637.15 848 l 1,29,-1
 693.85 1178 l 1,30,31
 726.25 1361 726.25 1361 815.35 1458.5 c 128,-1,32
 904.45 1556 904.45 1556 1040.35 1556 c 0,33,34
 1088.05 1556 1088.05 1556 1133.05 1547 c 128,-1,35
 1178.05 1538 1178.05 1538 1219.45 1520 c 1,0,-1
EndSplineSet
EndChar
StartChar: dotlessj
Encoding: 567 567 218
Width: 529
Flags: HW
Fore
190.7 1120 m 1,0,-1
 356.3 1120 l 1,1,-1
 356.3 -20 l 2,2,3
 356.3 -234 356.3 -234 282.95 -330 c 128,-1,4
 209.6 -426 209.6 -426 46.7002 -426 c 2,5,-1
 -16.2998 -426 l 1,6,-1
 -16.2998 -270 l 1,7,-1
 27.7998 -270 l 2,8,9
 122.3 -270 122.3 -270 156.5 -221.5 c 128,-1,10
 190.7 -173 190.7 -173 190.7 -20 c 2,11,-1
 190.7 1120 l 1,0,-1
EndSplineSet
EndChar
StartChar: uni02BB
Encoding: 699 699 173
Width: 617
Flags: HW
Fore
378.55 1001 m 1,0,-1
 188.65 1001 l 1,1,-1
 188.65 1174 l 1,2,-1
 336.25 1493 l 1,3,-1
 452.35 1493 l 1,4,-1
 378.55 1174 l 1,5,-1
 378.55 1001 l 1,0,-1
EndSplineSet
EndChar
StartChar: afii57929
Encoding: 700 700 174
Width: 617
Flags: HW
TeX: 0 0 0 0
Fore
262.45 1493 m 1,0,-1
 452.35 1493 l 1,1,-1
 452.35 1320 l 1,2,-1
 304.75 1001 l 1,3,-1
 188.65 1001 l 1,4,-1
 262.45 1320 l 1,5,-1
 262.45 1493 l 1,0,-1
EndSplineSet
EndChar
StartChar: circumflex
Encoding: 710 710 215
Width: 972
Flags: HW
Fore
445.4 1638 m 1,0,-1
 578.6 1638 l 1,1,-1
 799.1 1262 l 1,2,-1
 674 1262 l 1,3,-1
 512 1507 l 1,4,-1
 350 1262 l 1,5,-1
 224.9 1262 l 1,6,-1
 445.4 1638 l 1,0,-1
EndSplineSet
EndChar
StartChar: caron
Encoding: 711 711 224
Width: 972
Flags: HW
Fore
445.4 1262 m 1,0,-1
 224.9 1638 l 1,1,-1
 350 1638 l 1,2,-1
 512 1393 l 1,3,-1
 674 1638 l 1,4,-1
 799.1 1638 l 1,5,-1
 578.6 1262 l 1,6,-1
 445.4 1262 l 1,0,-1
EndSplineSet
EndChar
StartChar: breve
Encoding: 728 728 218
Width: 972
Flags: HW
Fore
230.3 1608 m 1,0,-1
 336.5 1608 l 1,1,2
 346.4 1533 346.4 1533 390.05 1495.5 c 128,-1,3
 433.7 1458 433.7 1458 512 1458 c 0,4,5
 589.4 1458 589.4 1458 632.6 1495 c 128,-1,6
 675.8 1532 675.8 1532 687.5 1608 c 1,7,-1
 793.7 1608 l 1,8,9
 784.7 1465 784.7 1465 713.6 1393 c 128,-1,10
 642.5 1321 642.5 1321 512 1321 c 0,11,12
 381.5 1321 381.5 1321 310.4 1393 c 128,-1,13
 239.3 1465 239.3 1465 230.3 1608 c 1,0,-1
EndSplineSet
Ligature: 0 1 'liga' space uni0306
EndChar
StartChar: dotaccent
Encoding: 729 729 219
Width: 972
Flags: HW
Fore
420.2 1552 m 1,0,-1
 603.8 1552 l 1,1,-1
 603.8 1348 l 1,2,-1
 420.2 1348 l 1,3,-1
 420.2 1552 l 1,0,-1
EndSplineSet
LCarets: 0 65535 '    ' 1 0 
Ligature: 0 1 'liga' space uni0307
EndChar
StartChar: ring
Encoding: 730 730 220
Width: 972
Flags: HW
Fore
648.8 1524 m 0,0,1
 648.8 1587 648.8 1587 609.2 1631 c 128,-1,2
 569.6 1675 569.6 1675 512 1675 c 0,3,4
 453.5 1675 453.5 1675 414.35 1631.5 c 128,-1,5
 375.2 1588 375.2 1588 375.2 1524 c 0,6,7
 375.2 1459 375.2 1459 414.35 1415.5 c 128,-1,8
 453.5 1372 453.5 1372 512 1372 c 0,9,10
 569.6 1372 569.6 1372 609.2 1416 c 128,-1,11
 648.8 1460 648.8 1460 648.8 1524 c 0,0,1
758.6 1524 m 0,12,13
 758.6 1409 758.6 1409 687.05 1329 c 128,-1,14
 615.5 1249 615.5 1249 512 1249 c 0,15,16
 408.5 1249 408.5 1249 336.95 1329 c 128,-1,17
 265.4 1409 265.4 1409 265.4 1524 c 0,18,19
 265.4 1639 265.4 1639 336.95 1718.5 c 128,-1,20
 408.5 1798 408.5 1798 512 1798 c 0,21,22
 615.5 1798 615.5 1798 687.05 1718.5 c 128,-1,23
 758.6 1639 758.6 1639 758.6 1524 c 0,12,13
EndSplineSet
LCarets: 0 65535 '    ' 1 0 
Ligature: 0 1 'liga' space uni030A
EndChar
StartChar: ogonek
Encoding: 731 731 223
Width: 973
Flags: HW
Fore
447.85 0 m 1,0,-1
 554.95 0 l 1,1,2
 514.45 -61 514.45 -61 495.1 -105 c 128,-1,3
 475.75 -149 475.75 -149 475.75 -180 c 0,4,5
 475.75 -226 475.75 -226 500.5 -249 c 128,-1,6
 525.25 -272 525.25 -272 573.85 -272 c 0,7,8
 602.65 -272 602.65 -272 630.55 -264.5 c 128,-1,9
 658.45 -257 658.45 -257 686.35 -242 c 1,10,-1
 686.35 -375 l 1,11,12
 652.15 -385 652.15 -385 621.55 -390 c 128,-1,13
 590.95 -395 590.95 -395 563.95 -395 c 0,14,15
 454.15 -395 454.15 -395 402.4 -351.5 c 128,-1,16
 350.65 -308 350.65 -308 350.65 -215 c 0,17,18
 350.65 -167 350.65 -167 374.5 -114.5 c 128,-1,19
 398.35 -62 398.35 -62 447.85 0 c 1,0,-1
EndSplineSet
LCarets: 0 65535 '    ' 1 0 
Ligature: 0 1 'liga' space uni0328
EndChar
StartChar: tilde
Encoding: 732 732 216
Width: 972
Flags: HW
Fore
508.4 1370 m 1,0,-1
 457.1 1425 l 2,1,2
 437.3 1445 437.3 1445 422.45 1454.5 c 128,-1,3
 407.6 1464 407.6 1464 395.9 1464 c 0,4,5
 361.7 1464 361.7 1464 345.5 1427.5 c 128,-1,6
 329.3 1391 329.3 1391 327.5 1309 c 1,7,-1
 215 1309 l 1,8,9
 216.8 1444 216.8 1444 262.7 1517.5 c 128,-1,10
 308.6 1591 308.6 1591 390.5 1591 c 0,11,12
 424.7 1591 424.7 1591 453.5 1577 c 128,-1,13
 482.3 1563 482.3 1563 515.6 1530 c 1,14,-1
 566.9 1475 l 2,15,16
 586.7 1455 586.7 1455 601.55 1445.5 c 128,-1,17
 616.4 1436 616.4 1436 628.1 1436 c 0,18,19
 662.3 1436 662.3 1436 678.5 1472.5 c 128,-1,20
 694.7 1509 694.7 1509 696.5 1591 c 1,21,-1
 809 1591 l 1,22,23
 807.2 1456 807.2 1456 761.3 1382.5 c 128,-1,24
 715.4 1309 715.4 1309 633.5 1309 c 0,25,26
 599.3 1309 599.3 1309 570.5 1323 c 128,-1,27
 541.7 1337 541.7 1337 508.4 1370 c 1,0,-1
EndSplineSet
Ligature: 0 1 'liga' space tildecomb
EndChar
StartChar: hungarumlaut
Encoding: 733 733 222
Width: 980
Flags: HW
Fore
746.7 1638 m 1,0,-1
 906.9 1638 l 1,1,-1
 683.7 1262 l 1,2,-1
 562.2 1262 l 1,3,-1
 746.7 1638 l 1,0,-1
446.1 1638 m 1,4,-1
 599.1 1638 l 1,5,-1
 398.4 1262 l 1,6,-1
 275.1 1262 l 1,7,-1
 446.1 1638 l 1,4,-1
EndSplineSet
Ligature: 0 1 'liga' space uni030B
EndChar
StartChar: uni0312
Encoding: 786 786 223
Width: 617
Flags: HW
TeX: 0 0 0 0
Fore
378.55 1001 m 1,5,-1
 188.65 1001 l 1,2,-1
 336.25 1320 l 1,3,-1
 452.35 1320 l 1,4,-1
 378.55 1001 l 1,5,-1
EndSplineSet
EndChar
StartChar: uni0326
Encoding: 806 806 223
Width: 972
Flags: HW
Fore
452.45 -132 m 1,0,-1
 642.35 -132 l 1,1,-1
 494.75 -452 l 1,2,-1
 378.65 -452 l 1,3,-1
 452.45 -132 l 1,0,-1
EndSplineSet
EndChar
StartChar: Omega
Encoding: 937 937 159
Width: 1486
Flags: HW
Fore
1416.55 178 m 1,0,-1
 1416.55 0 l 1,1,-1
 876.55 0 l 1,2,-1
 876.55 178 l 1,3,4
 1035.85 275 1035.85 275 1124.95 441 c 128,-1,5
 1214.05 607 1214.05 607 1214.05 809 c 0,6,7
 1214.05 1049 1214.05 1049 1095.25 1194 c 128,-1,8
 976.45 1339 976.45 1339 782.05 1339 c 0,9,10
 587.65 1339 587.65 1339 468.4 1193.5 c 128,-1,11
 349.15 1048 349.15 1048 349.15 809 c 0,12,13
 349.15 607 349.15 607 438.7 441 c 128,-1,14
 528.25 275 528.25 275 688.45 178 c 1,15,-1
 688.45 0 l 1,16,-1
 148.45 0 l 1,17,-1
 148.45 178 l 1,18,-1
 435.55 178 l 1,19,20
 293.35 317 293.35 317 228.1 466 c 128,-1,21
 162.85 615 162.85 615 162.85 799 c 0,22,23
 162.85 1117 162.85 1117 335.2 1314 c 128,-1,24
 507.55 1511 507.55 1511 782.05 1511 c 0,25,26
 1054.75 1511 1054.75 1511 1228 1314.5 c 128,-1,27
 1401.25 1118 1401.25 1118 1401.25 809 c 0,28,29
 1401.25 615 1401.25 615 1337.35 467 c 128,-1,30
 1273.45 319 1273.45 319 1128.55 178 c 1,31,-1
 1416.55 178 l 1,0,-1
EndSplineSet
EndChar
StartChar: pi
Encoding: 960 960 155
Width: 1143
Flags: HW
Fore
1101.25 913 m 1,0,-1
 937.45 913 l 1,1,-1
 842.95 426 l 1,2,3
 829.45 352 829.45 352 822.7 306 c 128,-1,4
 815.95 260 815.95 260 815.95 238 c 0,5,6
 815.95 180 815.95 180 837.1 155.5 c 128,-1,7
 858.25 131 858.25 131 907.75 131 c 0,8,9
 923.05 131 923.05 131 943.75 133.5 c 128,-1,10
 964.45 136 964.45 136 997.75 141 c 1,11,-1
 970.75 0 l 1,12,13
 943.75 -8 943.75 -8 919 -12 c 128,-1,14
 894.25 -16 894.25 -16 870.85 -16 c 0,15,16
 764.65 -16 764.65 -16 710.2 35 c 128,-1,17
 655.75 86 655.75 86 655.75 186 c 0,18,19
 655.75 232 655.75 232 665.2 304 c 128,-1,20
 674.65 376 674.65 376 705.25 537 c 2,21,-1
 777.25 913 l 1,22,-1
 483.85 913 l 1,23,-1
 309.25 0 l 1,24,-1
 146.35 0 l 1,25,-1
 321.85 913 l 1,26,-1
 284.95 913 l 2,27,28
 236.35 913 236.35 913 209.35 881 c 128,-1,29
 182.35 849 182.35 849 174.25 780 c 1,30,-1
 30.25 780 l 1,31,32
 55.4502 946 55.4502 946 119.8 1008.5 c 128,-1,33
 184.15 1071 184.15 1071 332.65 1071 c 2,34,-1
 1132.75 1071 l 1,35,-1
 1101.25 913 l 1,0,-1
EndSplineSet
EndChar
StartChar: afii10051
Encoding: 1026 1026 158
Width: 1521
Flags: HW
HStem: 0 21G<453.9 636.6> 711 170<636.6 993> 1323 170<66.9 453.9 66.9 1113.6>
VStem: 453.9 182.7<0 711 0 1323> 1198.2 180.9<104 423>
Fore
1379.1 104 m 18,0,1
 1379.1 -166 1379.1 -166 1287.3 -288 c 128,-1,2
 1195.5 -410 1195.5 -410 990.3 -410 c 2,3,-1
 921.9 -410 l 1,4,-1
 921.9 -240 l 1,5,-1
 977.7 -240 l 2,6,7
 1098.3 -240 1098.3 -240 1148.7 -165 c 0,8,9
 1198.2 -90 1198.2 -90 1198.2 104 c 2,10,-1
 1198.2 394 l 2,11,12
 1198.2 553 1198.2 553 1142.4 632 c 128,-1,13
 1086.6 711 1086.6 711 975 711 c 2,14,-1
 636.6 711 l 9,15,-1
 636.6 0 l 17,16,-1
 453.9 0 l 1,17,-1
 453.9 1323 l 1,18,-1
 66.9004 1323 l 1,19,-1
 66.9004 1493 l 1,20,-1
 1113.6 1493 l 1,21,-1
 1113.6 1323 l 1,22,-1
 636.6 1323 l 1,23,-1
 636.6 881 l 1,24,-1
 1011.9 881 l 2,25,26
 1179.3 881 1179.3 881 1281 762 c 0,27,28
 1379.1 648 1379.1 648 1379.1 410 c 10,29,-1
 1379.1 104 l 18,0,1
EndSplineSet
EndChar
StartChar: afii10053
Encoding: 1028 1028 160
Width: 1358
Flags: HW
HStem: -29 166<807.9 867.3> 711 170<374.1 995.1> 1354 166<807.9 867.3>
Fore
366.9 711 m 0,0,1
 373.2 441 373.2 441 489.3 294 c 0,2,3
 611.7 137 611.7 137 842.1 137 c 0,4,5
 959.1 137 959.1 137 1063.5 184 c 0,6,7
 1167 231 1167 231 1258.8 326 c 1,8,-1
 1258.8 115 l 1,9,10
 1163.4 43 1163.4 43 1056.3 7 c 0,11,12
 950.1 -29 950.1 -29 831.3 -29 c 0,13,14
 526.2 -29 526.2 -29 350.7 178 c 0,15,16
 175.2 386 175.2 386 175.2 745 c 0,17,18
 175.2 1105 175.2 1105 350.7 1312 c 0,19,20
 526.2 1520 526.2 1520 831.3 1520 c 0,21,22
 951.9 1520 951.9 1520 1058.1 1484 c 0,23,24
 1165.2 1449 1165.2 1449 1258.8 1378 c 1,25,-1
 1258.8 1165 l 1,26,27
 1167 1260 1167 1260 1063.5 1307 c 0,28,29
 959.1 1354 959.1 1354 842.1 1354 c 0,30,31
 611.7 1354 611.7 1354 489.3 1198 c 0,32,33
 396.6 1079 396.6 1079 374.1 881 c 0,34,-1
 995.1 881 l 1,35,-1
 995.1 711 l 1,36,-1
 366.9 711 l 0,0,1
EndSplineSet
EndChar
StartChar: afii10058
Encoding: 1033 1033 165
Width: 2123
Flags: HW
HStem: 0 166<1311.65 1539.35> 713 166<1311.65 1539.35> 1323 170<512.45 1129.85>
VStem: 512.45 180.9<1068.17 1323> 1129.85 181.8<0 713 0 1493> 1801.25 191.7<439 468>
Fore
1129.85 1323 m 17,0,-1
 693.35 1323 l 1,1,2
 693.35 1110 l 2,3,4
 693.35 622 693.35 622 574.55 280 c 0,5,6
 486.166 27.0469 486.166 27.0469 156.05 -29 c 9,7,-1
 156.05 138 l 17,8,9
 346.635 184.342 346.635 184.342 406.772 352.006 c 0,10,11
 512.45 644.87 512.45 644.87 512.45 1210 c 2,12,-1
 512.45 1493 l 1,13,-1
 1311.65 1493 l 17,14,-1
 1311.65 879 l 1,15,-1
 1522.25 879 l 2,16,17
 1748.15 879 1748.15 879 1870.55 770 c 128,-1,18
 1992.95 661 1992.95 661 1992.95 439 c 24,19,20
 1992.95 218 1992.95 218 1870.55 109 c 128,-1,21
 1748.15 0 1748.15 0 1522.25 0 c 2,22,-1
 1129.85 0 l 9,23,-1
 1129.85 1323 l 17,0,-1
1801.25 439 m 24,24,25
 1801.25 578 1801.25 578 1730.15 646 c 0,26,27
 1659.95 713 1659.95 713 1513.25 713 c 2,28,-1
 1311.65 713 l 1,29,-1
 1311.65 166 l 1,30,-1
 1513.25 166 l 2,31,32
 1657.99 166 1657.99 166 1730.15 234 c 0,33,34
 1801.25 301 1801.25 301 1801.25 439 c 24,24,25
EndSplineSet
EndChar
StartChar: afii10059
Encoding: 1034 1034 166
Width: 2035
Flags: HW
HStem: 0 166<1224.95 1458.05> 711 170<472.55 1043.15 1224.95 1458.05> 1473 20G<290.75 472.55 1043.15 1224.95>
VStem: 290.75 181.8<0 711 0 1493> 1043.15 181.8<0 713 881 1493> 1714.55 191.7<439 465>
Fore
1043.15 0 m 17,0,-1
 1043.15 711 l 1,1,-1
 472.55 711 l 1,2,-1
 472.55 0 l 1,3,-1
 290.75 0 l 1,4,-1
 290.75 1493 l 1,5,-1
 472.55 1493 l 1,6,-1
 472.55 881 l 1,7,-1
 1043.15 881 l 1,8,-1
 1043.15 1493 l 1,9,-1
 1224.95 1493 l 17,10,-1
 1224.95 879 l 1,11,-1
 1435.55 879 l 2,12,13
 1661.45 879 1661.45 879 1783.85 770 c 128,-1,14
 1906.25 661 1906.25 661 1906.25 439 c 24,15,16
 1906.25 218 1906.25 218 1783.85 109 c 128,-1,17
 1661.45 0 1661.45 0 1435.55 0 c 10,18,-1
 1043.15 0 l 17,0,-1
1714.55 439 m 24,19,20
 1714.55 578 1714.55 578 1643.45 646 c 0,21,22
 1573.25 713 1573.25 713 1426.55 713 c 2,23,-1
 1224.95 713 l 1,24,-1
 1224.95 166 l 1,25,-1
 1426.55 166 l 2,26,27
 1571.29 166 1571.29 166 1643.45 234 c 0,28,29
 1714.55 301 1714.55 301 1714.55 439 c 24,19,20
EndSplineSet
EndChar
StartChar: afii10060
Encoding: 1035 1035 167
Width: 1521
Flags: HW
HStem: 0 21G<453.9 636.6 1198.2 1379.1> 711 170<636.6 989.4> 1323 170<66.9 453.9 66.9 1113.6>
VStem: 453.9 182.7<0 711 0 1323> 1198.2 180.9<0 433>
Fore
1011.9 881 m 2,0,1
 1179.53 881 1179.53 881 1281 762 c 0,2,3
 1379.1 648 1379.1 648 1379.1 410 c 2,4,-1
 1379.1 0 l 1,5,-1
 1198.2 0 l 1,6,-1
 1198.2 394 l 2,7,8
 1198.2 553 1198.2 553 1142.4 632 c 128,-1,9
 1086.6 711 1086.6 711 975 711 c 2,10,-1
 636.6 711 l 9,11,-1
 636.6 0 l 17,12,-1
 453.9 0 l 1,13,-1
 453.9 1323 l 1,14,-1
 66.9004 1323 l 1,15,-1
 66.9004 1493 l 1,16,-1
 1113.6 1493 l 1,17,-1
 1113.6 1323 l 1,18,-1
 636.6 1323 l 1,19,-1
 636.6 881 l 1,20,-1
 1011.9 881 l 2,0,1
EndSplineSet
EndChar
StartChar: afii10145
Encoding: 1039 1039 171
Width: 1463
Flags: HW
HStem: -426 21G<707 887.9> 0 170<438.8 707 439.7 1282.1> 1473 20G<257.9 439.7 1100.3 1282.1>
VStem: 257.9 181.8<0 1493> 707 180.9<-426 0> 1100.3 181.8<170 1493>
Fore
707 0 m 25,0,-1
 257.9 0 l 1,1,-1
 257.9 1493 l 1,2,-1
 439.7 1493 l 1,3,-1
 439.7 170 l 1,4,-1
 1100.3 170 l 1,5,-1
 1100.3 1493 l 1,6,-1
 1282.1 1493 l 1,7,-1
 1282.1 0 l 1,8,-1
 887.9 0 l 25,9,-1
 887.9 -426 l 1,10,-1
 707 -426 l 1,11,-1
 707 0 l 25,0,-1
EndSplineSet
EndChar
StartChar: afii10018
Encoding: 1041 1041 173
Width: 1337
Flags: HW
HStem: 0 166<435.75 758.85> 713 166<435.75 758.85> 1327 166<253.95 1015.35>
VStem: 253.95 181.8<0 713 0 1327> 1015.35 191.7<439 465>
Fore
1015.35 439 m 24,0,1
 1015.35 578 1015.35 578 944.25 646 c 0,2,3
 874.05 713 874.05 713 727.35 713 c 2,4,-1
 435.75 713 l 1,5,-1
 435.75 166 l 1,6,-1
 727.35 166 l 2,7,8
 874.05 166 874.05 166 944.25 234 c 0,9,10
 1015.35 301 1015.35 301 1015.35 439 c 24,0,1
1015.35 1493 m 25,11,-1
 1015.35 1327 l 25,12,-1
 435.75 1327 l 1,13,-1
 435.75 879 l 1,14,-1
 736.35 879 l 2,15,16
 962.25 879 962.25 879 1084.65 770 c 128,-1,17
 1207.05 661 1207.05 661 1207.05 439 c 24,18,19
 1207.05 218 1207.05 218 1084.65 109 c 128,-1,20
 962.25 0 962.25 0 736.35 0 c 2,21,-1
 253.95 0 l 1,22,-1
 253.95 1493 l 1,23,-1
 1015.35 1493 l 25,11,-1
EndSplineSet
EndChar
StartChar: afii10020
Encoding: 1043 1043 175
Width: 1093
Flags: HW
HStem: 0 21<247.45 429.25> 1323 170<247.45 1083.55>
VStem: 247.45 181.8<0 1323>
Fore
247.45 0 m 1,0,-1
 247.45 1493 l 1,1,-1
 1083.55 1493 l 1,2,-1
 1083.55 1323 l 1,3,-1
 429.25 1323 l 1,4,-1
 429.25 0 l 1,5,-1
 247.45 0 l 1,0,-1
EndSplineSet
EndChar
StartChar: afii10021
Encoding: 1044 1044 176
Width: 1510
Flags: HMW
HStem: -426 21G<123.5 304.4 1283.6 1464.5> 0 170<489.8 1283.6> 1323 170<484.4 1101.8>
VStem: 123.5 180.9<-426 0> 484.4 180.9<1068.71 1323> 1101.8 181.8<170 1493> 1283.6 180.9<-426 170>
Fore
489.8 170 m 1,0,-1
 1101.8 170 l 17,1,-1
 1101.8 1323 l 1,2,-1
 665.3 1323 l 1,3,4
 665.3 1111 l 2,5,6
 665.3 616 665.3 616 546.5 281 c 0,7,8
 524.9 220 524.9 220 489.8 170 c 1,0,-1
215.3 170 m 1,9,10
 334.1 227 334.1 227 379.1 353 c 0,11,12
 484.4 646 484.4 646 484.4 1211 c 2,13,-1
 484.4 1493 l 1,14,-1
 1283.6 1493 l 17,15,-1
 1283.6 170 l 17,16,-1
 1464.5 170 l 1,17,-1
 1464.5 -426 l 1,18,-1
 1283.6 -426 l 1,19,-1
 1283.6 0 l 0,20,-1
 304.4 0 l 9,21,-1
 304.4 -426 l 1,22,-1
 123.5 -426 l 1,23,-1
 123.5 170 l 1,24,-1
 215.3 170 l 1,9,10
EndSplineSet
EndChar
StartChar: afii10024
Encoding: 1046 1046 178
Width: 1679
Flags: HW
HStem: 0 21G<141.5 336.8 793.1 974.9 1431.2 1626.5> 711 170<658.1 793.1 974.9 1109.9> 1473 20G<186.5 381.8 793.1 974.9 1386.2 1581.5>
VStem: 793.1 181.8<0 711 881 1493>
Fore
974.9 881 m 0,0,-1
 1109 881 l 9,1,-1
 1386.2 1493 l 17,2,-1
 1581.5 1493 l 1,3,-1
 1266.5 796 l 1,4,-1
 1626.5 0 l 1,5,-1
 1431.2 0 l 9,6,-1
 1109.9 711 l 17,7,-1
 974.9 711 l 0,8,-1
 974.9 0 l 1,9,-1
 793.1 0 l 1,10,-1
 793.1 711 l 0,11,-1
 658.1 711 l 9,12,-1
 336.8 0 l 17,13,-1
 141.5 0 l 1,14,-1
 501.5 796 l 1,15,-1
 186.5 1493 l 1,16,-1
 381.8 1493 l 9,17,-1
 659 881 l 17,18,-1
 793.1 881 l 0,19,-1
 793.1 1493 l 1,20,-1
 974.9 1493 l 1,21,-1
 974.9 881 l 0,0,-1
EndSplineSet
EndChar
StartChar: afii10026
Encoding: 1048 1048 180
Width: 1455
Flags: HW
HStem: 0 21G<257.5 502.3 1098.1 1274.5> 1473 20G<257.5 433.9 1029.7 1274.5>
VStem: 257.5 176.4<0 1493> 1098.1 176.4<0 1493>
Fore
1274.5 1493 m 1,0,-1
 1274.5 0 l 1,1,-1
 1098.1 0 l 1,2,-1
 1098.1 1249 l 1,3,-1
 502.3 0 l 1,4,-1
 257.5 0 l 1,5,-1
 257.5 1493 l 1,6,-1
 433.9 1493 l 1,7,-1
 433.9 244 l 1,8,-1
 1029.7 1493 l 1,9,-1
 1274.5 1493 l 1,0,-1
EndSplineSet
EndChar
StartChar: afii10029
Encoding: 1051 1051 183
Width: 1455
Flags: HW
HStem: 0 21G<1092 1273.8> 1323 170<654.6 1273.8>
VStem: 474.6 180.9<1069.17 1323> 1092 181.8<0 1323>
Fore
118.2 -28 m 17,0,1
 448.315 28.0469 448.315 28.0469 536.7 281 c 0,2,3
 655.5 623 655.5 623 655.5 1111 c 2,4,5
 655.5 1323 l 1,6,-1
 1092 1323 l 1,7,-1
 1092 0 l 1,8,-1
 1273.8 0 l 9,9,-1
 1273.8 1493 l 9,10,-1
 474.6 1493 l 1,11,-1
 474.6 1211 l 2,12,13
 474.6 645.87 474.6 645.87 368.922 353.006 c 0,14,15
 308.785 185.342 308.785 185.342 118.2 139 c 9,16,-1
 118.2 -28 l 17,0,1
EndSplineSet
EndChar
StartChar: afii10033
Encoding: 1055 1055 187
Width: 1463
Flags: HW
HStem: 0 21<257.9 439.7 1100.3 1282.1> 1323 170<257.9 1100.3>
VStem: 257.9 181.8<0 1323> 1100.3 181.8<0 1493>
Fore
1282.1 1493 m 17,0,-1
 1282.1 0 l 1,1,-1
 1100.3 0 l 1,2,-1
 1100.3 1323 l 1,3,-1
 439.7 1323 l 1,4,-1
 439.7 0 l 1,5,-1
 257.9 0 l 1,6,-1
 257.9 1493 l 1,7,-1
 1282.1 1493 l 17,0,-1
EndSplineSet
EndChar
StartChar: afii10037
Encoding: 1059 1059 191
Width: 1185
Flags: HW
HStem: -29 21G<237.9 307.2> 1473 20G<93.9 289.2 958.8 1154.1>
Fore
651.9 181 m 2,0,1
 632.1 130 632.1 130 604.2 93 c 0,2,3
 511.5 -29 511.5 -29 307.2 -29 c 2,4,-1
 237.9 -29 l 1,5,-1
 237.9 141 l 1,6,-1
 294.6 141 l 2,7,8
 420.6 141 420.6 141 464.7 216 c 0,9,10
 477.3 238 477.3 238 484.5 256 c 2,11,-1
 525 362 l 0,12,-1
 93.9004 1493 l 1,13,-1
 289.2 1493 l 1,14,-1
 623.1 617 l 1,15,-1
 958.8 1493 l 1,16,-1
 1154.1 1493 l 1,17,-1
 651.9 181 l 2,0,1
EndSplineSet
EndChar
StartChar: afii10038
Encoding: 1060 1060 192
Width: 1531
Flags: HW
HStem: 0 21G<716 897.8> 1473 20G<716 897.8>
VStem: 184.1 191.7<745 769> 716 181.8<0 157 325 1166 1333 1493> 1236.2 191.7<745 769>
Fore
716 1166 m 0,0,1
 581 1145 581 1145 492.8 1058 c 0,2,3
 375.8 943 375.8 943 375.8 745 c 0,4,5
 375.8 548 375.8 548 492.8 433 c 0,6,7
 581 346 581 346 716 325 c 0,8,-1
 716 1166 l 0,0,1
897.8 325 m 0,9,10
 1032.8 346 1032.8 346 1121 433 c 0,11,12
 1236.2 548 1236.2 548 1236.2 745 c 0,13,14
 1236.2 943 1236.2 943 1121 1058 c 0,15,16
 1032.8 1145 1032.8 1145 897.8 1166 c 0,17,-1
 897.8 325 l 0,9,10
716 158 m 0,18,19
 496.4 180 496.4 180 354.2 314 c 0,20,21
 184.1 474 184.1 474 184.1 745 c 128,-1,22
 184.1 1016 184.1 1016 354.2 1177 c 0,23,24
 495.5 1312 495.5 1312 716 1334 c 0,25,-1
 716 1493 l 1,26,-1
 897.8 1493 l 1,27,-1
 897.8 1334 l 0,28,29
 1117.4 1311 1117.4 1311 1258.7 1177 c 0,30,31
 1427.9 1016 1427.9 1016 1427.9 745 c 0,32,33
 1427.9 475 1427.9 475 1258.7 314 c 0,34,35
 1117.4 180 1117.4 180 897.8 157 c 0,36,-1
 897.8 0 l 1,37,-1
 716 0 l 1,38,-1
 716 158 l 0,18,19
EndSplineSet
EndChar
StartChar: afii10040
Encoding: 1062 1062 194
Width: 1518
Flags: HW
HStem: -426 21G<1292.15 1473.05> 0 170<448.85 1292.15> 1473 20G<267.95 449.75 1110.35 1292.15>
VStem: 267.95 181.8<0 1493> 1110.35 181.8<170 1493> 1292.15 180.9<-426 170>
Fore
1292.15 0 m 8,0,-1
 267.95 0 l 1,1,-1
 267.95 1493 l 1,2,-1
 449.75 1493 l 1,3,-1
 449.75 170 l 1,4,-1
 1110.35 170 l 1,5,-1
 1110.35 1493 l 1,6,-1
 1292.15 1493 l 1,7,-1
 1292.15 170 l 1,8,-1
 1473.05 170 l 1,9,-1
 1473.05 -426 l 1,10,-1
 1292.15 -426 l 1,11,-1
 1292.15 0 l 8,0,-1
EndSplineSet
EndChar
StartChar: afii10041
Encoding: 1063 1063 195
Width: 1332
Flags: HW
HStem: 0 21G<968.9 1151.6> 711 170<614.3 968.9> 1473 20G<226.4 407.3 968.9 1151.6>
VStem: 226.4 180.9<1167 1493> 968.9 182.7<0 1493>
Fore
968.9 0 m 17,0,-1
 968.9 711 l 1,1,-1
 593.6 711 l 2,2,3
 425.962 711 425.962 711 324.5 830 c 0,4,5
 226.4 944 226.4 944 226.4 1182 c 2,6,-1
 226.4 1493 l 1,7,-1
 407.3 1493 l 1,8,-1
 407.3 1198 l 2,9,10
 407.3 1039 407.3 1039 463.1 960 c 128,-1,11
 518.9 881 518.9 881 630.5 881 c 2,12,-1
 968.9 881 l 9,13,-1
 968.9 1493 l 17,14,-1
 1151.6 1493 l 1,15,-1
 1151.6 0 l 9,16,-1
 968.9 0 l 17,0,-1
EndSplineSet
EndChar
StartChar: afii10042
Encoding: 1064 1064 196
Width: 1951
Flags: HW
HStem: 0 170<464.3 1766.6> 1473 20G<283.4 465.2 1584.8 1766.6>
VStem: 283.4 181.8<0 1493> 934.1 181.8<170 1415> 1584.8 181.8<170 1493>
Fore
1115.9 170 m 9,0,-1
 1584.8 170 l 1,1,-1
 1584.8 1493 l 1,2,-1
 1766.6 1493 l 1,3,-1
 1766.6 0 l 1,4,-1
 283.4 0 l 1,5,-1
 283.4 1493 l 1,6,-1
 465.2 1493 l 1,7,-1
 465.2 170 l 1,8,-1
 934.1 170 l 1,9,-1
 934.1 1415 l 1,10,-1
 1115.9 1415 l 1,11,-1
 1115.9 170 l 9,0,-1
EndSplineSet
EndChar
StartChar: afii10043
Encoding: 1065 1065 197
Width: 2002
Flags: HW
HStem: -426 21G<1776.65 1957.55> 0 170<474.35 1776.65> 1473 20G<293.45 475.25 1594.85 1776.65>
VStem: 293.45 181.8<0 1493> 944.15 181.8<170 1415> 1594.85 181.8<170 1493> 1776.65 180.9<-426 170>
Fore
1776.65 0 m 17,0,-1
 293.45 0 l 1,1,-1
 293.45 1493 l 1,2,-1
 475.25 1493 l 1,3,-1
 475.25 170 l 1,4,-1
 944.15 170 l 1,5,-1
 944.15 1415 l 1,6,-1
 1125.95 1415 l 1,7,-1
 1125.95 170 l 9,8,-1
 1594.85 170 l 1,9,-1
 1594.85 1493 l 1,10,-1
 1776.65 1493 l 1,11,-1
 1776.65 170 l 17,12,-1
 1957.55 170 l 1,13,-1
 1957.55 -426 l 1,14,-1
 1776.65 -426 l 1,15,-1
 1776.65 0 l 17,0,-1
EndSplineSet
EndChar
StartChar: afii10044
Encoding: 1066 1066 198
Width: 1615
Flags: HW
HStem: 0 166<713.2 1033.6> 713 166<713.2 1033.6> 1323 170<125.5 531.4>
VStem: 531.4 181.8<0 713 0 1493> 1292.8 191.7<439 465>
Fore
531.4 0 m 9,0,-1
 531.4 1323 l 25,1,-1
 125.5 1323 l 17,2,-1
 125.5 1493 l 1,3,-1
 713.2 1493 l 17,4,-1
 713.2 879 l 1,5,-1
 1013.8 879 l 2,6,7
 1239.7 879 1239.7 879 1362.1 770 c 128,-1,8
 1484.5 661 1484.5 661 1484.5 439 c 24,9,10
 1484.5 218 1484.5 218 1362.1 109 c 128,-1,11
 1239.7 0 1239.7 0 1013.8 0 c 2,12,-1
 531.4 0 l 9,0,-1
1292.8 439 m 24,13,14
 1292.8 578 1292.8 578 1221.7 646 c 0,15,16
 1151.5 713 1151.5 713 1004.8 713 c 2,17,-1
 713.2 713 l 1,18,-1
 713.2 166 l 1,19,-1
 1004.8 166 l 2,20,21
 1149.54 166 1149.54 166 1221.7 234 c 0,22,23
 1292.8 301 1292.8 301 1292.8 439 c 24,13,14
EndSplineSet
EndChar
StartChar: afii10046
Encoding: 1068 1068 200
Width: 1337
Flags: HW
HStem: 0 166<435.75 758.85> 713 166<435.75 758.85> 1473 20G<253.95 435.75>
VStem: 253.95 181.8<0 713 0 1493> 1015.35 191.7<439 465>
Fore
1015.35 439 m 24,0,1
 1015.35 578 1015.35 578 944.25 646 c 0,2,3
 874.05 713 874.05 713 727.35 713 c 2,4,-1
 435.75 713 l 1,5,-1
 435.75 166 l 1,6,-1
 727.35 166 l 2,7,8
 874.05 166 874.05 166 944.25 234 c 0,9,10
 1015.35 301 1015.35 301 1015.35 439 c 24,0,1
253.95 1493 m 9,11,-1
 435.75 1493 l 17,12,-1
 435.75 879 l 1,13,-1
 736.35 879 l 2,14,15
 962.25 879 962.25 879 1084.65 770 c 128,-1,16
 1207.05 661 1207.05 661 1207.05 439 c 24,17,18
 1207.05 218 1207.05 218 1084.65 109 c 128,-1,19
 962.25 0 962.25 0 736.35 0 c 2,20,-1
 253.95 0 l 1,21,-1
 253.95 1493 l 9,11,-1
EndSplineSet
EndChar
StartChar: afii10047
Encoding: 1069 1069 201
Width: 1358
Flags: HW
HStem: -29 166<559.1 618.5> 711 170<434.9 1063.1> 1354 166<559.1 618.5>
Fore
1063.1 711 m 0,0,-1
 434.9 711 l 1,1,-1
 434.9 881 l 1,2,-1
 1055.9 881 l 0,3,4
 1033.4 1079 1033.4 1079 940.7 1198 c 0,5,6
 818.3 1354 818.3 1354 587.9 1354 c 0,7,8
 470.9 1354 470.9 1354 366.5 1307 c 0,9,10
 263 1260 263 1260 171.2 1165 c 1,11,-1
 171.2 1378 l 1,12,13
 264.8 1449 264.8 1449 371.9 1484 c 0,14,15
 478.1 1520 478.1 1520 598.7 1520 c 0,16,17
 903.8 1520 903.8 1520 1079.3 1312 c 0,18,19
 1254.8 1105 1254.8 1105 1254.8 745 c 0,20,21
 1254.8 386 1254.8 386 1079.3 178 c 0,22,23
 903.8 -29 903.8 -29 598.7 -29 c 0,24,25
 479.9 -29 479.9 -29 373.7 7 c 0,26,27
 266.6 43 266.6 43 171.2 115 c 1,28,-1
 171.2 326 l 1,29,30
 263 231 263 231 366.5 184 c 0,31,32
 470.9 137 470.9 137 587.9 137 c 0,33,34
 818.3 137 818.3 137 940.7 294 c 0,35,36
 1056.8 441 1056.8 441 1063.1 711 c 0,0,-1
EndSplineSet
EndChar
StartChar: afii10048
Encoding: 1070 1070 202
Width: 2010
Flags: HW
HStem: -29 164<1285.75 1309.15> 711 170<482.05 662.95> 1356 164<1285.75 1309.15>
VStem: 300.25 181.8<0 711 0 1493> 300.25 554.4<0 788> 1715.05 191.7<745 788>
Fore
1285.75 1356 m 0,0,1
 1087.75 1356 1087.75 1356 970.75 1192 c 0,2,3
 854.65 1028 854.65 1028 854.65 745 c 0,4,5
 854.65 463 854.65 463 970.75 299 c 0,6,7
 1087.75 135 1087.75 135 1285.75 135 c 128,-1,8
 1483.75 135 1483.75 135 1598.95 299 c 0,9,10
 1715.05 463 1715.05 463 1715.05 745 c 0,11,12
 1715.05 1028 1715.05 1028 1598.95 1192 c 0,13,14
 1483.75 1356 1483.75 1356 1285.75 1356 c 0,0,1
669.25 881 m 17,15,16
 696.25 1142 696.25 1142 832.15 1310 c 0,17,18
 1002.03 1520 1002.03 1520 1285.75 1520 c 0,19,20
 1568.35 1520 1568.35 1520 1737.55 1310 c 0,21,22
 1906.75 1099 1906.75 1099 1906.75 745 c 0,23,24
 1906.75 392 1906.75 392 1737.55 182 c 0,25,26
 1568.35 -29 1568.35 -29 1285.75 -29 c 0,27,28
 1002.25 -29 1002.25 -29 832.15 181 c 0,29,30
 671.05 381 671.05 381 662.95 711 c 9,31,-1
 482.05 711 l 17,32,-1
 482.05 0 l 1,33,-1
 300.25 0 l 1,34,-1
 300.25 1493 l 1,35,-1
 482.05 1493 l 1,36,-1
 482.05 881 l 9,37,-1
 669.25 881 l 17,15,16
EndSplineSet
EndChar
StartChar: afii10049
Encoding: 1071 1071 203
Width: 1344
Flags: HW
HStem: 0 21G<117.15 312.45 982.05 1163.85> 631 166<753.45 982.05> 1327 166<753.45 982.05>
VStem: 296.25 191.7<1063 1089> 982.05 181.8<0 1493>
Fore
526.65 700 m 1,0,1
 414.15 736 414.15 736 355.2 829 c 128,-1,2
 296.25 922 296.25 922 296.25 1063 c 0,3,4
 296.25 1279 296.25 1279 409.65 1386 c 128,-1,5
 523.05 1493 523.05 1493 753.45 1493 c 2,6,-1
 1163.85 1493 l 1,7,-1
 1163.85 0 l 1,8,-1
 982.05 0 l 1,9,-1
 982.05 631 l 1,10,-1
 784.05 631 l 2,11,12
 676.05 631 676.05 631 613.5 582 c 128,-1,13
 550.95 533 550.95 533 484.35 383 c 1,14,-1
 312.45 0 l 1,15,-1
 117.15 0 l 1,16,-1
 301.65 408 l 1,17,18
 357.45 534 357.45 534 412.8 606 c 128,-1,19
 468.15 678 468.15 678 526.65 700 c 1,0,1
982.05 1327 m 1,20,-1
 753.45 1327 l 2,21,22
 622.05 1327 622.05 1327 555 1260.5 c 128,-1,23
 487.95 1194 487.95 1194 487.95 1063 c 128,-1,24
 487.95 932 487.95 932 555 864.5 c 128,-1,25
 622.05 797 622.05 797 753.45 797 c 2,26,-1
 982.05 797 l 1,27,-1
 982.05 1327 l 1,20,-1
EndSplineSet
EndChar
StartChar: afii10066
Encoding: 1073 1073 205
Width: 1190
Flags: HW
HStem: -29 156<627 640.5> 1367 153<659.4 698.1>
VStem: 164.4 174.6<559 580> 262.5 169.2<1246 1252> 914.1 175.5<549 580>
Fore
966.3 1297 m 17,0,1
 874.5 1367 874.5 1367 659.4 1367 c 0,2,3
 431.7 1367 431.7 1367 431.7 1250 c 24,4,5
 431.7 1158 431.7 1158 669.3 1110 c 0,6,7
 856.162 1073 856.162 1073 961.8 961 c 0,8,9
 1089.6 826 1089.6 826 1089.6 549 c 0,10,11
 1089.6 284 1089.6 284 966.3 128 c 0,12,13
 843 -29 843 -29 627 -29 c 0,14,15
 411.9 -29 411.9 -29 287.7 128 c 0,16,17
 164.4 284 164.4 284 164.4 559 c 0,18,19
 164.4 763 164.4 763 287.7 928 c 0,20,21
 335.4 992 335.4 992 402.9 1028 c 1,22,23
 262.5 1107 262.5 1107 262.5 1248 c 8,24,25
 262.5 1520 262.5 1520 659.4 1520 c 0,26,27
 858.3 1520 858.3 1520 966.3 1450 c 9,28,-1
 966.3 1297 l 17,0,1
527.1 978 m 1,29,30
 465.9 949 465.9 949 416.4 876 c 0,31,32
 339 763 339 763 339 559 c 0,33,34
 339 356 339 356 415.5 242 c 0,35,36
 492.9 127 492.9 127 627 127 c 0,37,38
 759.3 127 759.3 127 836.7 243 c 128,-1,39
 914.1 359 914.1 359 914.1 549 c 0,40,41
 914.1 748 914.1 748 832.2 844 c 0,42,43
 744.9 947 744.9 947 631.5 958 c 0,44,45
 573.9 964 573.9 964 527.1 978 c 1,29,30
EndSplineSet
EndChar
StartChar: afii10067
Encoding: 1074 1074 206
Width: 1143
Flags: HW
HStem: 0 153<396.6 663.9> 514 159<396.6 642.3> 967 153<231 642.3>
VStem: 231 165.6<0 514 0 967> 826.8 166.5<815 843> 864.6 176.4<312 336>
Fore
396.6 514 m 1,0,-1
 396.6 153 l 1,1,-1
 632.4 153 l 2,2,3
 748.623 153 748.623 153 807.9 199 c 0,4,5
 864.6 243 864.6 243 864.6 334 c 0,6,7
 864.6 427.656 864.6 427.656 807.9 469 c 0,8,9
 746.187 514 746.187 514 632.4 514 c 2,10,-1
 396.6 514 l 1,0,-1
396.6 967 m 1,11,-1
 396.6 673 l 1,12,-1
 614.4 673 l 2,13,14
 719.5 673 719.5 673 774.6 711 c 0,15,16
 826.8 747 826.8 747 826.8 822 c 0,17,18
 826.8 894 826.8 894 774.6 930 c 0,19,20
 720.025 967 720.025 967 614.4 967 c 2,21,-1
 396.6 967 l 1,11,-1
231 1120 m 1,22,-1
 625.2 1120 l 2,23,24
 802.5 1120 802.5 1120 897.9 1048 c 128,-1,25
 993.3 976 993.3 976 993.3 843 c 0,26,27
 993.3 740 993.3 740 944.7 680 c 0,28,29
 896.1 619 896.1 619 800.7 604 c 1,30,31
 915 580 915 580 978 504 c 128,-1,32
 1041 428 1041 428 1041 314 c 0,33,34
 1041 164 1041 164 936.6 82 c 0,35,36
 833.1 0 833.1 0 640.5 0 c 2,37,-1
 231 0 l 1,38,-1
 231 1120 l 1,22,-1
EndSplineSet
EndChar
StartChar: afii10068
Encoding: 1075 1075 207
Width: 963
Flags: HW
HStem: 0 21G<225.5 391.1> 950 170<225.5 936.5>
VStem: 225.5 165.6<0 950>
Fore
225.5 0 m 1,0,-1
 225.5 1120 l 1,1,-1
 936.5 1120 l 1,2,-1
 936.5 950 l 1,3,-1
 391.1 950 l 1,4,-1
 391.1 0 l 1,5,-1
 225.5 0 l 1,0,-1
EndSplineSet
EndChar
StartChar: afii10069
Encoding: 1076 1076 208
Width: 1307
Flags: HMW
HStem: -426 21G<113.8 279.4 1096.6 1262.2> 0 153<448.6 1096.6> 967 153<415.3 931>
VStem: 113.8 165.6<-426 0> 415.3 165.6<797 967> 931 165.6<153 1120> 1096.6 165.6<-426 153>
Fore
448.6 153 m 0,0,-1
 931 153 l 17,1,-1
 931 967 l 1,2,-1
 580.9 967 l 1,3,4
 580.9 833 l 2,5,6
 580.9 429.889 580.9 429.889 474.7 207 c 0,7,8
 456.475 190 456.475 190 448.6 153 c 0,0,-1
209.2 153 m 0,9,10
 291.477 193 291.477 193 327.1 278 c 0,11,12
 415.3 489 415.3 489 415.3 908 c 2,13,-1
 415.3 1120 l 1,14,-1
 1096.6 1120 l 17,15,-1
 1096.6 153 l 17,16,-1
 1262.2 153 l 1,17,-1
 1262.2 -426 l 1,18,-1
 1096.6 -426 l 1,19,-1
 1096.6 0 l 0,20,-1
 279.4 0 l 9,21,-1
 279.4 -426 l 1,22,-1
 113.8 -426 l 1,23,-1
 113.8 153 l 1,24,-1
 209.2 153 l 0,9,10
EndSplineSet
EndChar
StartChar: afii10072
Encoding: 1078 1078 210
Width: 1426
Flags: HW
HStem: 0 21G<120.15 297.45 669.15 833.85 1205.55 1382.85> 521 152<566.55 669.15 833.85 936.45> 1100 20G<158.85 335.25 669.15 833.85 1167.75 1344.15>
VStem: 669.15 164.7<0 521 673 1120>
Fore
833.85 673 m 0,0,-1
 935.55 673 l 9,1,-1
 1167.75 1120 l 17,2,-1
 1344.15 1120 l 1,3,-1
 1076.85 597 l 1,4,-1
 1382.85 0 l 1,5,-1
 1205.55 0 l 9,6,-1
 936.45 521 l 17,7,-1
 833.85 521 l 0,8,-1
 833.85 0 l 1,9,-1
 669.15 0 l 1,10,-1
 669.15 521 l 0,11,-1
 566.55 521 l 9,12,-1
 297.45 0 l 17,13,-1
 120.15 0 l 1,14,-1
 426.15 597 l 1,15,-1
 158.85 1120 l 1,16,-1
 335.25 1120 l 9,17,-1
 567.45 673 l 17,18,-1
 669.15 673 l 0,19,-1
 669.15 1120 l 1,20,-1
 833.85 1120 l 1,21,-1
 833.85 673 l 0,0,-1
EndSplineSet
EndChar
StartChar: afii10073
Encoding: 1079 1079 211
Width: 1051
Flags: HW
HStem: -29 153<447.45 511.35> 521 152<371.85 535.65> 988 160<478.05 535.65>
VStem: 737.25 162<830 850> 763.35 162.9<326 340>
Fore
690.45 604 m 1,0,1
 802.05 580 802.05 580 864.15 507 c 128,-1,2
 926.25 434 926.25 434 926.25 326 c 0,3,4
 926.25 153 926.25 153 810.15 62 c 128,-1,5
 694.05 -29 694.05 -29 479.85 -29 c 0,6,7
 407.85 -29 407.85 -29 331.35 -15 c 0,8,9
 255.75 -1 255.75 -1 174.75 27 c 1,10,-1
 174.75 198 l 1,11,12
 238.65 161 238.65 161 315.15 142 c 0,13,14
 391.65 124 391.65 124 475.35 124 c 0,15,16
 611.25 124 611.25 124 687.75 180 c 0,17,18
 763.35 236 763.35 236 763.35 326 c 0,19,20
 763.35 414 763.35 414 693.15 470 c 0,21,22
 628.398 521 628.398 521 505.05 521 c 2,23,-1
 371.85 521 l 1,24,-1
 371.85 673 l 1,25,-1
 511.35 673 l 2,26,27
 615.75 673 615.75 673 676.05 717 c 0,28,29
 737.25 762 737.25 762 737.25 832 c 0,30,31
 737.25 896 737.25 896 674.25 942 c 0,32,33
 612.15 988 612.15 988 505.05 988 c 0,34,35
 441.15 988 441.15 988 368.25 975 c 0,36,37
 296.25 962 296.25 962 208.95 933 c 1,38,-1
 208.95 1100 l 1,39,40
 297.15 1124 297.15 1124 373.65 1136 c 128,-1,41
 450.15 1148 450.15 1148 518.55 1148 c 0,42,43
 694.95 1148 694.95 1148 796.65 1070 c 0,44,45
 899.25 991 899.25 991 899.25 850 c 0,46,47
 899.25 757 899.25 757 845.25 693 c 0,48,49
 791.25 628 791.25 628 690.45 604 c 1,0,1
EndSplineSet
EndChar
StartChar: afii10074
Encoding: 1080 1080 212
Width: 1277
Flags: HW
HStem: 0 21G<240.95 453.35 939.35 1104.05> 1100 20G<240.95 405.65 890.75 1104.05>
VStem: 240.95 164.7<0 1120> 939.35 164.7<0 1120>
Fore
1104.05 1120 m 1,0,-1
 1104.05 0 l 1,1,-1
 939.35 0 l 1,2,-1
 939.35 899 l 1,3,-1
 453.35 0 l 1,4,-1
 240.95 0 l 1,5,-1
 240.95 1120 l 1,6,-1
 405.65 1120 l 1,7,-1
 405.65 223 l 1,8,-1
 890.75 1120 l 1,9,-1
 1104.05 1120 l 1,0,-1
EndSplineSet
EndChar
StartChar: afii10076
Encoding: 1082 1082 214
Width: 1182
Flags: HW
HStem: 0 21<240.7 407.2 919.3 1135.3> 1100 20<240.7 407.2 901.3 1112.8>
VStem: 240.7 166.5<0 547 0 1120>
Fore
240.7 1120 m 1,0,-1
 407.2 1120 l 1,1,-1
 407.2 637 l 1,2,-1
 901.3 1120 l 1,3,-1
 1112.8 1120 l 1,4,-1
 578.2 596 l 1,5,-1
 1135.3 0 l 1,6,-1
 919.3 0 l 1,7,-1
 407.2 547 l 1,8,-1
 407.2 0 l 1,9,-1
 240.7 0 l 1,10,-1
 240.7 1120 l 1,0,-1
EndSplineSet
EndChar
StartChar: afii10077
Encoding: 1083 1083 215
Width: 1237
Flags: HW
HStem: 0 21G<918.75 1084.35> 967 153<567.75 1084.35>
VStem: 403.05 165.6<796.713 967> 918.75 165.6<0 967>
Fore
100.65 -29 m 17,0,1
 378.036 0.208984 378.036 0.208984 462.45 207 c 0,2,3
 568.65 467.162 568.65 467.162 568.65 833 c 2,4,5
 568.65 967 l 1,6,-1
 918.75 967 l 1,7,-1
 918.75 0 l 1,8,-1
 1084.35 0 l 9,9,-1
 1084.35 1120 l 9,10,-1
 403.05 1120 l 1,11,-1
 403.05 908 l 2,12,13
 403.05 485.434 403.05 485.434 314.85 278 c 0,14,15
 261.382 151 261.382 151 100.65 124 c 9,16,-1
 100.65 -29 l 17,0,1
EndSplineSet
EndChar
StartChar: afii10078
Encoding: 1084 1084 216
Width: 1467
Flags: HW
HStem: 0 21G<250.95 411.15 1133.85 1294.05> 1100 20G<250.95 486.75 1060.05 1294.05>
VStem: 250.95 160.2<0 944> 1133.85 160.2<0 1120>
Fore
250.95 1120 m 1,0,-1
 486.75 1120 l 1,1,-1
 772.95 370 l 1,2,-1
 1060.05 1120 l 1,3,-1
 1294.05 1120 l 1,4,-1
 1294.05 0 l 1,5,-1
 1133.85 0 l 1,6,-1
 1133.85 944 l 1,7,-1
 855.75 215 l 1,8,-1
 690.15 215 l 1,9,-1
 411.15 944 l 1,10,-1
 411.15 0 l 1,11,-1
 250.95 0 l 1,12,-1
 250.95 1120 l 1,0,-1
EndSplineSet
EndChar
StartChar: afii10079
Encoding: 1085 1085 217
Width: 1285
Flags: HW
HStem: 516 143<406.95 946.05> 1100 20G<241.35 406.95 946.05 1111.65>
VStem: 241.35 165.6<0 516 0 1120> 946.05 165.6<0 1120>
Fore
241.35 1120 m 1,0,-1
 406.95 1120 l 1,1,-1
 406.95 659 l 1,2,-1
 946.05 659 l 1,3,-1
 946.05 1120 l 1,4,-1
 1111.65 1120 l 1,5,-1
 1111.65 0 l 1,6,-1
 946.05 0 l 1,7,-1
 946.05 516 l 1,8,-1
 406.95 516 l 1,9,-1
 406.95 0 l 1,10,-1
 241.35 0 l 1,11,-1
 241.35 1120 l 1,0,-1
EndSplineSet
EndChar
StartChar: afii10081
Encoding: 1087 1087 219
Width: 1283
Flags: HW
HStem: 0 21G<241.35 406.95 946.05 1111.65> 966 154<241.35 946.05>
VStem: 241.35 165.6<0 966> 946.05 165.6<0 1120>
Fore
1111.65 1120 m 17,0,-1
 1111.65 0 l 1,1,-1
 946.05 0 l 1,2,-1
 946.05 966 l 1,3,-1
 406.95 966 l 1,4,-1
 406.95 0 l 1,5,-1
 241.35 0 l 1,6,-1
 241.35 1120 l 1,7,-1
 1111.65 1120 l 17,0,-1
EndSplineSet
EndChar
StartChar: afii10084
Encoding: 1090 1090 222
Width: 1028
Flags: HW
HStem: 0 21G<460.05 622.95> 950 170<58.65 460.05 58.65 1024.35>
VStem: 460.05 162.9<0 950>
Fore
58.6504 1120 m 1,0,-1
 1024.35 1120 l 1,1,-1
 1024.35 950 l 1,2,-1
 622.95 950 l 1,3,-1
 622.95 0 l 1,4,-1
 460.05 0 l 1,5,-1
 460.05 950 l 1,6,-1
 58.6504 950 l 1,7,-1
 58.6504 1120 l 1,0,-1
EndSplineSet
EndChar
StartChar: afii10086
Encoding: 1092 1092 224
Width: 1783
Flags: HW
HStem: -426 21G<855.25 1021.75> -29 156<586.15 612.25 1264.75 1290.85> 991 156<586.15 612.25 1264.75 1290.85> 1473 20G<855.25 1021.75>
VStem: 195.55 175.5<517 599> 855.25 166.5<-426 141 559 599 977 1493> 1507.75 173.7<517 599>
Fore
371.05 559 m 0,0,1
 371.05 345 371.05 345 432.25 236 c 0,2,3
 492.55 127 492.55 127 612.25 127 c 128,-1,4
 731.95 127 731.95 127 794.05 236 c 0,5,6
 855.25 346 855.25 346 855.25 559 c 128,-1,7
 855.25 772 855.25 772 794.05 882 c 0,8,9
 731.95 991 731.95 991 612.25 991 c 128,-1,10
 492.55 991 492.55 991 432.25 882 c 0,11,12
 371.05 773 371.05 773 371.05 559 c 0,0,1
855.25 -426 m 17,13,-1
 855.25 143 l 1,14,15
 814.75 60 814.75 60 745.45 16 c 0,16,17
 677.05 -29 677.05 -29 586.15 -29 c 0,18,19
 405.25 -29 405.25 -29 300.85 126 c 0,20,21
 195.55 282 195.55 282 195.55 555 c 0,22,23
 195.55 833 195.55 833 299.95 990 c 128,-1,24
 404.35 1147 404.35 1147 586.15 1147 c 0,25,26
 676.15 1147 676.15 1147 745.45 1104 c 0,27,28
 813.85 1060 813.85 1060 855.25 977 c 1,29,-1
 855.25 1493 l 1,30,-1
 1021.75 1493 l 1,31,-1
 1021.75 977 l 1,32,33
 1063.15 1060 1063.15 1060 1132.45 1104 c 0,34,35
 1200.85 1147 1200.85 1147 1290.85 1147 c 0,36,37
 1473.55 1147 1473.55 1147 1577.05 990 c 0,38,39
 1681.45 833 1681.45 833 1681.45 555 c 0,40,41
 1681.45 282 1681.45 282 1577.05 126 c 0,42,43
 1472.65 -29 1472.65 -29 1290.85 -29 c 0,44,45
 1199.05 -29 1199.05 -29 1130.65 14 c 0,46,47
 1061.35 58 1061.35 58 1021.75 141 c 1,48,-1
 1021.75 -426 l 9,49,-1
 855.25 -426 l 17,13,-1
1507.75 559 m 0,50,51
 1507.75 773 1507.75 773 1447.45 882 c 0,52,53
 1386.25 991 1386.25 991 1266.55 991 c 0,54,55
 1145.95 991 1145.95 991 1083.85 882 c 0,56,57
 1021.75 772 1021.75 772 1021.75 559 c 0,58,59
 1021.75 347 1021.75 347 1083.85 237 c 128,-1,60
 1145.95 127 1145.95 127 1266.55 127 c 0,61,62
 1386.25 127 1386.25 127 1447.45 236 c 0,63,64
 1507.75 345 1507.75 345 1507.75 559 c 0,50,51
EndSplineSet
EndChar
StartChar: afii10088
Encoding: 1094 1094 226
Width: 1331
Flags: HW
HStem: -426 21G<1120.85 1286.45> 0 153<415.25 1120.85> 1100 20G<250.55 416.15 955.25 1120.85>
VStem: 250.55 165.6<0 1120> 955.25 165.6<153 1120> 1120.85 165.6<-426 153>
Fore
1120.85 0 m 8,0,-1
 250.55 0 l 1,1,-1
 250.55 1120 l 1,2,-1
 416.15 1120 l 1,3,-1
 416.15 153 l 1,4,-1
 955.25 153 l 1,5,-1
 955.25 1120 l 1,6,-1
 1120.85 1120 l 1,7,-1
 1120.85 153 l 1,8,-1
 1286.45 153 l 1,9,-1
 1286.45 -426 l 1,10,-1
 1120.85 -426 l 1,11,-1
 1120.85 0 l 8,0,-1
EndSplineSet
EndChar
StartChar: afii10089
Encoding: 1095 1095 227
Width: 1147
Flags: HW
HStem: 0 21G<814.7 980.3> 521 153<524 814.7> 1100 20G<193.7 359.3 814.7 980.3>
VStem: 193.7 165.6<879 1120> 814.7 165.6<0 1120>
Fore
814.7 0 m 17,0,-1
 814.7 521 l 1,1,-1
 506 521 l 2,2,3
 368.725 521 368.725 521 276.5 616 c 0,4,5
 193.7 702 193.7 702 193.7 886 c 2,6,-1
 193.7 1120 l 1,7,-1
 359.3 1120 l 1,8,-1
 359.3 909 l 2,9,10
 359.3 792 359.3 792 406.1 733 c 0,11,12
 453.8 674 453.8 674 547.4 674 c 2,13,-1
 814.7 674 l 9,14,-1
 814.7 1120 l 17,15,-1
 980.3 1120 l 1,16,-1
 980.3 0 l 9,17,-1
 814.7 0 l 17,0,-1
EndSplineSet
EndChar
StartChar: afii10090
Encoding: 1096 1096 228
Width: 1697
Flags: HW
HStem: 0 153<427.75 1523.95> 1100 20G<263.05 428.65 1358.35 1523.95>
VStem: 263.05 165.6<0 1120> 810.25 165.6<153 1061> 1358.35 165.6<153 1120>
Fore
975.85 153 m 9,0,-1
 1358.35 153 l 1,1,-1
 1358.35 1120 l 1,2,-1
 1523.95 1120 l 1,3,-1
 1523.95 0 l 1,4,-1
 263.05 0 l 1,5,-1
 263.05 1120 l 1,6,-1
 428.65 1120 l 1,7,-1
 428.65 153 l 1,8,-1
 810.25 153 l 1,9,-1
 810.25 1061 l 1,10,-1
 975.85 1061 l 1,11,-1
 975.85 153 l 9,0,-1
EndSplineSet
EndChar
StartChar: afii10091
Encoding: 1097 1097 229
Width: 1743
Flags: HW
HStem: -426 21G<1533.15 1698.75> 0 153<436.95 1533.15> 1100 20G<272.25 437.85 1367.55 1533.15>
VStem: 272.25 165.6<0 1120> 819.45 165.6<153 1061> 1367.55 165.6<153 1120> 1533.15 165.6<-426 153>
Fore
1533.15 0 m 17,0,-1
 272.25 0 l 1,1,-1
 272.25 1120 l 1,2,-1
 437.85 1120 l 1,3,-1
 437.85 153 l 1,4,-1
 819.45 153 l 1,5,-1
 819.45 1061 l 1,6,-1
 985.05 1061 l 1,7,-1
 985.05 153 l 9,8,-1
 1367.55 153 l 1,9,-1
 1367.55 1120 l 1,10,-1
 1533.15 1120 l 1,11,-1
 1533.15 153 l 17,12,-1
 1698.75 153 l 1,13,-1
 1698.75 -426 l 1,14,-1
 1533.15 -426 l 1,15,-1
 1533.15 0 l 17,0,-1
EndSplineSet
EndChar
StartChar: afii10092
Encoding: 1098 1098 230
Width: 1364
Flags: HW
HStem: 0 153<617.4 884.7> 514 153<617.4 884.7> 966 154<106.2 451.8>
VStem: 451.8 165.6<0 514 0 1120> 1085.4 176.4<332 353>
Fore
1085.4 332 m 24,0,1
 1085.4 425.683 1085.4 425.683 1029.6 468 c 0,2,3
 968.94 514 968.94 514 854.1 514 c 2,4,-1
 617.4 514 l 1,5,-1
 617.4 153 l 1,6,-1
 854.1 153 l 2,7,8
 970.326 153 970.326 153 1029.6 199 c 0,9,10
 1085.4 242 1085.4 242 1085.4 332 c 24,0,1
451.8 966 m 25,11,-1
 106.2 966 l 17,12,-1
 106.2 1120 l 1,13,-1
 617.4 1120 l 17,14,-1
 617.4 667 l 1,15,-1
 861.3 667 l 2,16,17
 1048.79 667 1048.79 667 1157.4 582 c 0,18,19
 1261.8 500 1261.8 500 1261.8 332 c 24,20,21
 1261.8 164 1261.8 164 1157.4 82 c 0,22,23
 1053.9 0 1053.9 0 861.3 0 c 2,24,-1
 451.8 0 l 9,25,-1
 451.8 966 l 25,11,-1
EndSplineSet
EndChar
StartChar: afii10094
Encoding: 1100 1100 232
Width: 1150
Flags: HW
HStem: 0 153<403.6 670.9> 514 153<403.6 670.9> 1100 20G<238 403.6>
VStem: 238 165.6<0 514 0 1120> 871.6 176.4<332 353>
Fore
871.6 332 m 24,0,1
 871.6 425.683 871.6 425.683 815.8 468 c 0,2,3
 755.145 514 755.145 514 640.3 514 c 2,4,-1
 403.6 514 l 1,5,-1
 403.6 153 l 1,6,-1
 640.3 153 l 2,7,8
 756.522 153 756.522 153 815.8 199 c 0,9,10
 871.6 242 871.6 242 871.6 332 c 24,0,1
238 1120 m 9,11,-1
 403.6 1120 l 17,12,-1
 403.6 667 l 1,13,-1
 647.5 667 l 2,14,15
 834.989 667 834.989 667 943.6 582 c 0,16,17
 1048 500 1048 500 1048 332 c 24,18,19
 1048 164 1048 164 943.6 82 c 0,20,21
 840.1 0 840.1 0 647.5 0 c 2,22,-1
 238 0 l 1,23,-1
 238 1120 l 9,11,-1
EndSplineSet
EndChar
StartChar: afii10095
Encoding: 1101 1101 233
Width: 1198
Flags: HW
HStem: -29 156<546.45 591.45> 487 144<313.35 922.65> 991 156<546.45 591.45>
Fore
313.35 942 m 17,0,1
 346.65 955 346.65 955 379.95 965 c 0,2,3
 469.05 991 469.05 991 564.45 991 c 0,4,5
 729.15 991 729.15 991 820.95 892 c 0,6,7
 906.45 800 906.45 800 922.65 631 c 0,8,-1
 313.35 631 l 1,9,-1
 313.35 487 l 1,10,-1
 922.65 487 l 0,11,12
 906.45 318 906.45 318 820.95 226 c 0,13,14
 729.15 127 729.15 127 564.45 127 c 0,15,16
 469.05 127 469.05 127 379.95 153 c 0,17,18
 289.95 179 289.95 179 201.75 231 c 1,19,-1
 201.75 57 l 1,20,21
 290.85 15 290.85 15 384.45 -7 c 128,-1,22
 478.05 -29 478.05 -29 574.35 -29 c 0,23,24
 815.55 -29 815.55 -29 955.95 127 c 0,25,26
 1097.25 283 1097.25 283 1097.25 559 c 128,-1,27
 1097.25 835 1097.25 835 955.95 991 c 0,28,29
 815.55 1147 815.55 1147 574.35 1147 c 0,30,31
 478.05 1147 478.05 1147 384.45 1125 c 0,32,33
 348.45 1117 348.45 1117 313.35 1105 c 1,34,35
 313.35 1025 313.35 1025 313.35 942 c 17,0,1
EndSplineSet
EndChar
StartChar: afii10096
Encoding: 1102 1102 234
Width: 1584
Flags: HW
HStem: -29 156<1021.45 1039.45> 991 156<1021.45 1039.45>
VStem: 260.95 165.6<0 521 0 1120> 260.95 472.5<0 596> 1308.55 175.5<559 596>
Fore
1021.45 991 m 0,0,1
 888.25 991 888.25 991 810.85 876 c 0,2,3
 733.45 760 733.45 760 733.45 559 c 128,-1,4
 733.45 358 733.45 358 809.95 242 c 0,5,6
 887.35 127 887.35 127 1021.45 127 c 0,7,8
 1153.75 127 1153.75 127 1231.15 243 c 128,-1,9
 1308.55 359 1308.55 359 1308.55 559 c 0,10,11
 1308.55 758 1308.55 758 1231.15 874 c 0,12,13
 1153.75 991 1153.75 991 1021.45 991 c 0,0,1
564.25 673 m 1,14,15
 581.349 863 581.349 863 682.15 991 c 0,16,17
 805 1147 805 1147 1021.45 1147 c 0,18,19
 1237.45 1147 1237.45 1147 1360.75 991 c 128,-1,20
 1484.05 835 1484.05 835 1484.05 559 c 0,21,22
 1484.05 284 1484.05 284 1360.75 128 c 0,23,24
 1237.45 -29 1237.45 -29 1021.45 -29 c 0,25,26
 804.55 -29 804.55 -29 682.15 128 c 0,27,28
 567.85 273 567.85 273 559.75 521 c 0,29,-1
 426.55 521 l 1,30,-1
 426.55 0 l 1,31,-1
 260.95 0 l 1,32,-1
 260.95 1120 l 1,33,-1
 426.55 1120 l 1,34,-1
 426.55 673 l 1,35,-1
 564.25 673 l 1,14,15
EndSplineSet
EndChar
StartChar: afii10097
Encoding: 1103 1103 235
Width: 1163
Flags: HW
HStem: 0 21G<99.45 274.95 823.05 989.55> 473 155<643.05 823.05> 965 155<616.95 823.05>
VStem: 251.55 171.9<797 817> 823.05 166.5<0 1120>
Fore
447.75 525 m 1,0,1
 352.35 552 352.35 552 301.95 622 c 128,-1,2
 251.55 692 251.55 692 251.55 797 c 0,3,4
 251.55 959 251.55 959 347.85 1040 c 0,5,6
 445.05 1120 445.05 1120 640.35 1120 c 2,7,-1
 989.55 1120 l 1,8,-1
 989.55 0 l 1,9,-1
 823.05 0 l 1,10,-1
 823.05 473 l 1,11,-1
 670.95 473 l 2,12,13
 583.65 473 583.65 473 530.55 436 c 0,14,15
 477.45 400 477.45 400 420.75 287 c 1,16,-1
 274.95 0 l 1,17,-1
 99.4502 0 l 1,18,-1
 256.05 306 l 1,19,20
 303.75 400 303.75 400 350.55 454 c 0,21,22
 398.25 508 398.25 508 447.75 525 c 1,0,1
823.05 965 m 1,23,-1
 644.85 965 l 2,24,25
 537.75 965 537.75 965 481.05 923 c 0,26,27
 423.45 881 423.45 881 423.45 797 c 0,28,29
 423.45 714 423.45 714 481.05 671 c 0,30,31
 537.75 628 537.75 628 644.85 628 c 2,32,-1
 823.05 628 l 1,33,-1
 823.05 965 l 1,23,-1
EndSplineSet
EndChar
StartChar: afii10099
Encoding: 1106 1106 238
Width: 1245
Flags: HW
HStem: -426 21G<703.85 766.85> 0 21G<232.25 398.75> 900 160<687.65 724.55> 1284 125<94.55 232.25 398.75 692.15> 1536 20G<232.25 398.75>
VStem: 232.25 166.5<0 567 0 1284 1409 1556> 910.85 165.6<-20 615>
Fore
232.25 1284 m 1,0,-1
 94.5498 1284 l 1,1,-1
 94.5498 1409 l 1,2,-1
 232.25 1409 l 1,3,-1
 232.25 1556 l 1,4,-1
 398.75 1556 l 1,5,-1
 398.75 1409 l 1,6,-1
 692.15 1409 l 1,7,-1
 692.15 1284 l 1,8,-1
 398.75 1284 l 9,9,-1
 398.75 859 l 17,10,11
 458.15 960 458.15 960 538.25 1010 c 0,12,13
 619.25 1060 619.25 1060 724.55 1060 c 0,14,15
 891.06 1060 891.06 1060 987.35 941 c 0,16,17
 1076.45 830.887 1076.45 830.887 1076.45 589 c 10,18,-1
 1076.45 -20 l 18,19,20
 1076.45 -233.988 1076.45 -233.988 1002.65 -330 c 0,21,22
 929.75 -426 929.75 -426 766.85 -426 c 2,23,-1
 703.85 -426 l 1,24,-1
 703.85 -270 l 1,25,-1
 747.95 -270 l 2,26,27
 846.997 -270 846.997 -270 876.65 -222 c 0,28,29
 910.85 -166.64 910.85 -166.64 910.85 -20 c 2,30,-1
 910.85 583 l 2,31,32
 910.85 741.999 910.85 741.999 855.05 821 c 0,33,34
 799.25 900 799.25 900 687.65 900 c 0,35,36
 548.686 900 548.686 900 476.15 805 c 0,37,38
 398.75 703.628 398.75 703.628 398.75 546 c 2,39,-1
 398.75 0 l 1,40,-1
 232.25 0 l 1,41,-1
 232.25 1284 l 1,0,-1
EndSplineSet
EndChar
StartChar: afii10101
Encoding: 1108 1108 240
Width: 1195
Flags: HW
HStem: -29 156<665.85 725.25> 487 144<337.35 946.65> 991 156<665.85 725.25>
Fore
946.65 942 m 17,0,1
 913.35 955 913.35 955 880.05 965 c 0,2,3
 790.95 991 790.95 991 695.55 991 c 0,4,5
 530.85 991 530.85 991 439.05 892 c 0,6,7
 353.55 800 353.55 800 337.35 631 c 0,8,-1
 946.65 631 l 1,9,-1
 946.65 487 l 1,10,-1
 337.35 487 l 0,11,12
 353.55 318 353.55 318 439.05 226 c 0,13,14
 530.85 127 530.85 127 695.55 127 c 0,15,16
 790.95 127 790.95 127 880.05 153 c 0,17,18
 970.05 179 970.05 179 1058.25 231 c 1,19,-1
 1058.25 57 l 1,20,21
 969.15 15 969.15 15 875.55 -7 c 128,-1,22
 781.95 -29 781.95 -29 685.65 -29 c 0,23,24
 444.45 -29 444.45 -29 304.05 127 c 0,25,26
 162.75 283 162.75 283 162.75 559 c 128,-1,27
 162.75 835 162.75 835 304.05 991 c 0,28,29
 444.45 1147 444.45 1147 685.65 1147 c 0,30,31
 781.95 1147 781.95 1147 875.55 1125 c 0,32,33
 911.55 1117 911.55 1117 946.65 1105 c 1,34,35
 946.65 1025 946.65 1025 946.65 942 c 17,0,1
EndSplineSet
EndChar
StartChar: afii10106
Encoding: 1113 1113 245
Width: 1744
Flags: HW
HStem: 0 153<1087.6 1254.1> 514 153<1087.6 1254.1> 967 153<432.4 922>
VStem: 432.4 165.6<796.678 967> 922 165.6<0 514 0 1120> 1465.6 176.4<332 356>
Fore
922 967 m 9,0,-1
 598 967 l 17,1,2
 598 833 l 2,3,4
 598 467 598 467 491.8 207 c 0,5,6
 407.2 0 407.2 0 130 -29 c 9,7,-1
 130 124 l 17,8,9
 291.1 151 291.1 151 344.2 278 c 0,10,11
 432.4 485 432.4 485 432.4 908 c 2,12,-1
 432.4 1120 l 1,13,-1
 1087.6 1120 l 17,14,-1
 1087.6 667 l 1,15,-1
 1241.5 667 l 2,16,17
 1428.93 667 1428.93 667 1537.6 582 c 0,18,19
 1642 500 1642 500 1642 332 c 24,20,21
 1642 164 1642 164 1537.6 82 c 0,22,23
 1434.1 0 1434.1 0 1241.5 0 c 10,24,-1
 922 0 l 17,25,-1
 922 967 l 9,0,-1
1465.6 332 m 24,26,27
 1465.6 426 1465.6 426 1409.8 468 c 0,28,29
 1349.5 514 1349.5 514 1234.3 514 c 2,30,-1
 1087.6 514 l 1,31,-1
 1087.6 153 l 1,32,-1
 1234.3 153 l 2,33,34
 1350.4 153 1350.4 153 1409.8 199 c 0,35,36
 1465.6 242 1465.6 242 1465.6 332 c 24,26,27
EndSplineSet
EndChar
StartChar: afii10107
Encoding: 1114 1114 246
Width: 1739
Flags: HW
HStem: 0 153<1093.05 1264.05> 514 153<435.15 927.45 1093.05 1264.05> 1100 20G<269.55 435.15 927.45 1093.05>
VStem: 269.55 165.6<0 514 0 1120> 927.45 165.6<0 514 667 1120> 1471.05 176.4<332 353>
Fore
1471.05 332 m 24,0,1
 1471.05 426.683 1471.05 426.683 1415.25 469 c 0,2,3
 1355.9 514 1355.9 514 1239.75 514 c 2,4,-1
 1093.05 514 l 1,5,-1
 1093.05 153 l 1,6,-1
 1239.75 153 l 2,7,8
 1355.97 153 1355.97 153 1415.25 199 c 0,9,10
 1471.05 242 1471.05 242 1471.05 332 c 24,0,1
927.45 0 m 17,11,-1
 927.45 514 l 1,12,-1
 435.15 514 l 1,13,-1
 435.15 0 l 1,14,-1
 269.55 0 l 1,15,-1
 269.55 1120 l 1,16,-1
 435.15 1120 l 1,17,-1
 435.15 667 l 1,18,-1
 927.45 667 l 1,19,-1
 927.45 1120 l 1,20,-1
 1093.05 1120 l 17,21,-1
 1093.05 667 l 1,22,-1
 1246.95 667 l 2,23,24
 1434.44 667 1434.44 667 1543.05 582 c 0,25,26
 1647.45 500 1647.45 500 1647.45 332 c 24,27,28
 1647.45 164 1647.45 164 1543.05 82 c 0,29,30
 1439.55 0 1439.55 0 1246.95 0 c 10,31,-1
 927.45 0 l 17,11,-1
EndSplineSet
EndChar
StartChar: afii10108
Encoding: 1115 1115 247
Width: 1233
Flags: HW
HStem: 0 21G<232.25 398.75 910.85 1076.45> 900 160<687.65 724.55> 1284 125<94.55 232.25 398.75 692.15> 1536 20G<232.25 398.75>
VStem: 232.25 166.5<0 577 0 1284 1409 1556> 910.85 165.6<0 609>
Fore
232.25 1284 m 1,0,-1
 94.5498 1284 l 1,1,-1
 94.5498 1409 l 1,2,-1
 232.25 1409 l 1,3,-1
 232.25 1556 l 1,4,-1
 398.75 1556 l 1,5,-1
 398.75 1409 l 1,6,-1
 692.15 1409 l 1,7,-1
 692.15 1284 l 1,8,-1
 398.75 1284 l 9,9,-1
 398.75 859 l 17,10,11
 458.15 960 458.15 960 538.25 1010 c 0,12,13
 619.25 1060 619.25 1060 724.55 1060 c 0,14,15
 895.044 1060 895.044 1060 987.35 941 c 0,16,17
 1076.45 826.135 1076.45 826.135 1076.45 589 c 10,18,-1
 1076.45 0 l 17,19,-1
 910.85 0 l 1,20,-1
 910.85 583 l 2,21,22
 910.85 741.998 910.85 741.998 855.05 821 c 0,23,24
 799.25 900 799.25 900 687.65 900 c 0,25,26
 551.205 900 551.205 900 476.15 805 c 0,27,28
 398.75 707.031 398.75 707.031 398.75 546 c 2,29,-1
 398.75 0 l 1,30,-1
 232.25 0 l 1,31,-1
 232.25 1284 l 1,0,-1
EndSplineSet
EndChar
StartChar: afii10193
Encoding: 1119 1119 251
Width: 1288
Flags: HW
HStem: -426 21G<592.35 757.95> 0 154<241.35 946.05> 1100 20G<241.35 406.95 946.05 1111.65>
VStem: 241.35 165.6<154 1120> 592.35 165.6<-426 0> 946.05 165.6<0 1120>
Fore
757.95 0 m 25,0,-1
 1111.65 0 l 1,1,-1
 1111.65 1120 l 1,2,-1
 946.05 1120 l 1,3,-1
 946.05 154 l 1,4,-1
 406.95 154 l 1,5,-1
 406.95 1120 l 1,6,-1
 241.35 1120 l 1,7,-1
 241.35 0 l 1,8,-1
 592.35 0 l 25,9,-1
 592.35 -426 l 25,10,-1
 757.95 -426 l 25,11,-1
 757.95 0 l 25,0,-1
EndSplineSet
EndChar
StartChar: uni2010
Encoding: 8208 8208 237
Width: 702
Flags: HW
Fore
126.95 643 m 1,0,-1
 612.05 643 l 1,1,-1
 612.05 479 l 1,2,-1
 126.95 479 l 1,3,-1
 126.95 643 l 1,0,-1
EndSplineSet
KernsSLIF: 356 -188 0 0 286 75 0 0 253 -36 0 0 221 -243 0 0 210 57 0 0 212 57 0 0 211 57 0 0 193 -45 0 0 194 -45 0 0 376 -243 0 0 255 -36 0 0 213 57 0 0 195 -45 0 0 192 -45 0 0 245 38 0 0 246 38 0 0 244 38 0 0 242 38 0 0 243 38 0 0 214 57 0 0 196 -45 0 0 121 -36 0 0 118 -55 0 0 111 38 0 0 89 -243 0 0 88 -102 0 0 87 -83 0 0 86 -120 0 0 84 -188 0 0 81 75 0 0 79 57 0 0 74 114 0 0 71 75 0 0 66 -73 0 0 65 -45 0 0
EndChar
StartChar: figuredash
Encoding: 8210 8210 239
Width: 972
Flags: HW
Fore
51.2002 633 m 1,0,-1
 972.8 633 l 1,1,-1
 972.8 489 l 1,2,-1
 51.2002 489 l 1,3,-1
 51.2002 633 l 1,0,-1
EndSplineSet
EndChar
StartChar: endash
Encoding: 8211 8211 178
Width: 972
Flags: HW
Fore
51.2002 633 m 1,0,-1
 972.8 633 l 1,1,-1
 972.8 489 l 1,2,-1
 51.2002 489 l 1,3,-1
 51.2002 633 l 1,0,-1
EndSplineSet
EndChar
StartChar: emdash
Encoding: 8212 8212 179
Width: 1945
Flags: HW
Fore
102.4 633 m 1,0,-1
 1945.6 633 l 1,1,-1
 1945.6 489 l 1,2,-1
 102.4 489 l 1,3,-1
 102.4 633 l 1,0,-1
EndSplineSet
EndChar
StartChar: afii00208
Encoding: 8213 8213 180
Width: 1945
Flags: HW
Fore
102.4 633 m 1,0,-1
 1945.6 633 l 1,1,-1
 1945.6 489 l 1,2,-1
 102.4 489 l 1,3,-1
 102.4 633 l 1,0,-1
EndSplineSet
EndChar
StartChar: quoteleft
Encoding: 8216 8216 182
Width: 617
Flags: HW
Fore
378.55 1001 m 1,0,-1
 188.65 1001 l 1,1,-1
 188.65 1174 l 1,2,-1
 336.25 1493 l 1,3,-1
 452.35 1493 l 1,4,-1
 378.55 1174 l 1,5,-1
 378.55 1001 l 1,0,-1
EndSplineSet
EndChar
StartChar: quoteright
Encoding: 8217 8217 183
Width: 618
Flags: HW
Fore
266.45 1493 m 1,0,-1
 456.35 1493 l 1,1,-1
 456.35 1341 l 1,2,-1
 308.75 1022 l 1,3,-1
 192.65 1022 l 1,4,-1
 266.45 1341 l 1,5,-1
 266.45 1493 l 1,0,-1
EndSplineSet
EndChar
StartChar: quotesinglbase
Encoding: 8218 8218 196
Width: 617
Flags: HW
Fore
262.45 254 m 1,0,-1
 452.35 254 l 1,1,-1
 452.35 82 l 1,2,-1
 304.75 -238 l 1,3,-1
 188.65 -238 l 1,4,-1
 262.45 82 l 1,5,-1
 262.45 254 l 1,0,-1
EndSplineSet
EndChar
StartChar: quotedblleft
Encoding: 8220 8220 180
Width: 1007
Flags: HW
Fore
399.05 1001 m 1,0,-1
 209.15 1001 l 1,1,-1
 209.15 1174 l 1,2,-1
 356.75 1493 l 1,3,-1
 472.85 1493 l 1,4,-1
 399.05 1174 l 1,5,-1
 399.05 1001 l 1,0,-1
768.05 1001 m 1,6,-1
 578.15 1001 l 1,7,-1
 578.15 1174 l 1,8,-1
 725.75 1493 l 1,9,-1
 841.85 1493 l 1,10,-1
 768.05 1174 l 1,11,-1
 768.05 1001 l 1,6,-1
EndSplineSet
KernsSLIF: 340 -63 0 0 242 -149 0 0 244 -149 0 0 213 -73 0 0 268 -73 0 0 270 -63 0 0 313 -63 0 0 195 -264 0 0 341 -112 0 0 286 -73 0 0 196 -264 0 0 223 -63 0 0 214 -73 0 0 262 -73 0 0 193 -264 0 0 317 -63 0 0 241 -112 0 0 253 -73 0 0 194 -264 0 0 222 -63 0 0 65 -264 0 0 381 -36 0 0 67 -73 0 0 66 -63 0 0 198 -387 0 0 68 -63 0 0 71 -73 0 0 70 -63 0 0 72 -63 0 0 75 -63 0 0 74 -63 0 0 76 -63 0 0 79 -73 0 0 345 -112 0 0 81 -73 0 0 80 -63 0 0 82 -63 0 0 88 -120 0 0 90 -36 0 0 245 -149 0 0 211 -73 0 0 102 -73 0 0 210 -73 0 0 212 -73 0 0 255 -73 0 0 344 -63 0 0 111 -149 0 0 110 -112 0 0 246 -149 0 0 119 -73 0 0 114 -112 0 0 192 -264 0 0 118 -73 0 0 121 -73 0 0 328 -112 0 0 240 -73 0 0 199 -73 0 0 243 -149 0 0
EndChar
StartChar: quotedblright
Encoding: 8221 8221 181
Width: 1007
Flags: HW
Fore
282.95 1493 m 1,0,-1
 472.85 1493 l 1,1,-1
 472.85 1321 l 1,2,-1
 325.25 1001 l 1,3,-1
 209.15 1001 l 1,4,-1
 282.95 1321 l 1,5,-1
 282.95 1493 l 1,0,-1
651.95 1493 m 1,6,-1
 841.85 1493 l 1,7,-1
 841.85 1321 l 1,8,-1
 694.25 1001 l 1,9,-1
 578.15 1001 l 1,10,-1
 651.95 1321 l 1,11,-1
 651.95 1493 l 1,6,-1
EndSplineSet
EndChar
StartChar: quotedblbase
Encoding: 8222 8222 197
Width: 1007
Flags: HW
Fore
651.95 254 m 1,0,-1
 841.85 254 l 1,1,-1
 841.85 82 l 1,2,-1
 694.25 -238 l 1,3,-1
 578.15 -238 l 1,4,-1
 651.95 82 l 1,5,-1
 651.95 254 l 1,0,-1
282.95 254 m 1,6,-1
 472.85 254 l 1,7,-1
 472.85 82 l 1,8,-1
 325.25 -238 l 1,9,-1
 209.15 -238 l 1,10,-1
 282.95 82 l 1,11,-1
 282.95 254 l 1,6,-1
EndSplineSet
KernsSLIF: 340 -73 0 0 242 -73 0 0 244 -73 0 0 213 -112 0 0 268 -112 0 0 270 -73 0 0 221 -376 0 0 313 -73 0 0 195 38 0 0 341 -73 0 0 286 -73 0 0 196 38 0 0 223 -73 0 0 214 -112 0 0 262 -112 0 0 193 38 0 0 317 -73 0 0 241 -73 0 0 253 -112 0 0 194 38 0 0 356 -282 0 0 222 -73 0 0 65 38 0 0 67 -112 0 0 66 -73 0 0 198 38 0 0 68 -73 0 0 71 -73 0 0 70 -73 0 0 72 -73 0 0 75 -73 0 0 74 47 0 0 376 -376 0 0 76 -73 0 0 79 -112 0 0 345 -73 0 0 81 -112 0 0 80 -73 0 0 82 -73 0 0 84 -282 0 0 87 -253 0 0 86 -376 0 0 89 -376 0 0 88 -73 0 0 245 -73 0 0 211 -112 0 0 102 -36 0 0 210 -112 0 0 212 -112 0 0 255 -112 0 0 344 -73 0 0 111 -73 0 0 110 -73 0 0 246 -73 0 0 119 -196 0 0 114 -73 0 0 192 38 0 0 118 -235 0 0 121 -112 0 0 328 -73 0 0 240 -73 0 0 199 -112 0 0 243 -73 0 0
EndChar
StartChar: dagger
Encoding: 8224 8224 130
Width: 972
Flags: HW
Fore
432.8 1493 m 1,0,-1
 591.2 1493 l 1,1,-1
 591.2 1073 l 1,2,-1
 921.5 1073 l 1,3,-1
 921.5 920 l 1,4,-1
 591.2 920 l 1,5,-1
 591.2 -197 l 1,6,-1
 432.8 -197 l 1,7,-1
 432.8 920 l 1,8,-1
 102.5 920 l 1,9,-1
 102.5 1073 l 1,10,-1
 432.8 1073 l 1,11,-1
 432.8 1493 l 1,0,-1
EndSplineSet
EndChar
StartChar: daggerdbl
Encoding: 8225 8225 194
Width: 972
Flags: HW
Fore
921.5 223 m 1,0,-1
 591.2 223 l 1,1,-1
 591.2 -197 l 1,2,-1
 432.8 -197 l 1,3,-1
 432.8 223 l 1,4,-1
 102.5 223 l 1,5,-1
 102.5 377 l 1,6,-1
 432.8 377 l 1,7,-1
 432.8 920 l 1,8,-1
 102.5 920 l 1,9,-1
 102.5 1073 l 1,10,-1
 432.8 1073 l 1,11,-1
 432.8 1493 l 1,12,-1
 591.2 1493 l 1,13,-1
 591.2 1073 l 1,14,-1
 921.5 1073 l 1,15,-1
 921.5 920 l 1,16,-1
 591.2 920 l 1,17,-1
 591.2 377 l 1,18,-1
 921.5 377 l 1,19,-1
 921.5 223 l 1,0,-1
EndSplineSet
EndChar
StartChar: bullet
Encoding: 8226 8226 135
Width: 1147
Flags: HW
Fore
336.7 762 m 0,0,1
 336.7 886 336.7 886 414.55 971.5 c 128,-1,2
 492.4 1057 492.4 1057 605.8 1057 c 0,3,4
 717.4 1057 717.4 1057 794.35 971.5 c 128,-1,5
 871.3 886 871.3 886 871.3 762 c 0,6,7
 871.3 637 871.3 637 793.9 551 c 128,-1,8
 716.5 465 716.5 465 604 465 c 0,9,10
 491.5 465 491.5 465 414.1 551 c 128,-1,11
 336.7 637 336.7 637 336.7 762 c 0,0,1
EndSplineSet
EndChar
StartChar: ellipsis
Encoding: 8230 8230 171
Width: 1945
Flags: HW
Fore
928.6 254 m 1,0,-1
 1119.4 254 l 1,1,-1
 1119.4 0 l 1,2,-1
 928.6 0 l 1,3,-1
 928.6 254 l 1,0,-1
1541.5 254 m 1,4,-1
 1733.2 254 l 1,5,-1
 1733.2 0 l 1,6,-1
 1541.5 0 l 1,7,-1
 1541.5 254 l 1,4,-1
314.8 254 m 1,8,-1
 506.5 254 l 1,9,-1
 506.5 0 l 1,10,-1
 314.8 0 l 1,11,-1
 314.8 254 l 1,8,-1
EndSplineSet
Ligature: 0 1 'liga' period period period
EndChar
StartChar: perthousand
Encoding: 8240 8240 198
Width: 2610
Flags: HW
Fore
2200.25 657 m 0,0,1
 2121.95 657 2121.95 657 2076.95 583 c 128,-1,2
 2031.95 509 2031.95 509 2031.95 377 c 0,3,4
 2031.95 247 2031.95 247 2076.95 172.5 c 128,-1,5
 2121.95 98 2121.95 98 2200.25 98 c 0,6,7
 2276.75 98 2276.75 98 2321.3 172.5 c 128,-1,8
 2365.85 247 2365.85 247 2365.85 377 c 0,9,10
 2365.85 508 2365.85 508 2321.3 582.5 c 128,-1,11
 2276.75 657 2276.75 657 2200.25 657 c 0,0,1
2200.25 784 m 0,12,13
 2342.45 784 2342.45 784 2426.15 674 c 128,-1,14
 2509.85 564 2509.85 564 2509.85 377 c 0,15,16
 2509.85 190 2509.85 190 2425.7 80.5 c 128,-1,17
 2341.55 -29 2341.55 -29 2200.25 -29 c 0,18,19
 2056.25 -29 2056.25 -29 1972.55 80.5 c 128,-1,20
 1888.85 190 1888.85 190 1888.85 377 c 0,21,22
 1888.85 565 1888.85 565 1973 674.5 c 128,-1,23
 2057.15 784 2057.15 784 2200.25 784 c 0,12,13
548.75 1520 m 0,24,25
 690.95 1520 690.95 1520 775.55 1410.5 c 128,-1,26
 860.15 1301 860.15 1301 860.15 1114 c 0,27,28
 860.15 925 860.15 925 776 816 c 128,-1,29
 691.85 707 691.85 707 548.75 707 c 0,30,31
 405.65 707 405.65 707 322.4 816.5 c 128,-1,32
 239.15 926 239.15 926 239.15 1114 c 0,33,34
 239.15 1300 239.15 1300 322.85 1410 c 128,-1,35
 406.55 1520 406.55 1520 548.75 1520 c 0,24,25
1361.45 1520 m 1,36,-1
 1505.45 1520 l 1,37,-1
 664.85 -29 l 1,38,-1
 520.85 -29 l 1,39,-1
 1361.45 1520 l 1,36,-1
548.75 1393 m 0,40,41
 471.35 1393 471.35 1393 426.8 1318.5 c 128,-1,42
 382.25 1244 382.25 1244 382.25 1114 c 0,43,44
 382.25 982 382.25 982 426.35 908 c 128,-1,45
 470.45 834 470.45 834 548.75 834 c 0,46,47
 627.05 834 627.05 834 671.6 908 c 128,-1,48
 716.15 982 716.15 982 716.15 1114 c 0,49,50
 716.15 1243 716.15 1243 671.15 1318 c 128,-1,51
 626.15 1393 626.15 1393 548.75 1393 c 0,40,41
1477.55 784 m 0,52,53
 1619.75 784 1619.75 784 1703.45 674 c 128,-1,54
 1787.15 564 1787.15 564 1787.15 377 c 0,55,56
 1787.15 190 1787.15 190 1703 80.5 c 128,-1,57
 1618.85 -29 1618.85 -29 1477.55 -29 c 0,58,59
 1333.55 -29 1333.55 -29 1249.85 80.5 c 128,-1,60
 1166.15 190 1166.15 190 1166.15 377 c 0,61,62
 1166.15 565 1166.15 565 1250.3 674.5 c 128,-1,63
 1334.45 784 1334.45 784 1477.55 784 c 0,52,53
1477.55 657 m 0,64,65
 1399.25 657 1399.25 657 1354.7 583 c 128,-1,66
 1310.15 509 1310.15 509 1310.15 377 c 0,67,68
 1310.15 247 1310.15 247 1354.7 172.5 c 128,-1,69
 1399.25 98 1399.25 98 1477.55 98 c 0,70,71
 1554.05 98 1554.05 98 1598.6 172.5 c 128,-1,72
 1643.15 247 1643.15 247 1643.15 377 c 0,73,74
 1643.15 508 1643.15 508 1598.6 582.5 c 128,-1,75
 1554.05 657 1554.05 657 1477.55 657 c 0,64,65
EndSplineSet
EndChar
StartChar: guilsinglleft
Encoding: 8249 8249 190
Width: 776
Flags: HW
Fore
603.55 1059 m 1,0,-1
 603.55 868 l 1,1,-1
 332.65 600 l 1,2,-1
 603.55 332 l 1,3,-1
 603.55 141 l 1,4,-1
 181.45 559 l 1,5,-1
 181.45 641 l 1,6,-1
 603.55 1059 l 1,0,-1
EndSplineSet
EndChar
StartChar: guilsinglright
Encoding: 8250 8250 191
Width: 779
Flags: HW
Fore
216.45 1059 m 1,0,-1
 638.55 641 l 1,1,-1
 638.55 559 l 1,2,-1
 216.45 141 l 1,3,-1
 216.45 332 l 1,4,-1
 487.35 600 l 1,5,-1
 216.45 868 l 1,6,-1
 216.45 1059 l 1,0,-1
EndSplineSet
EndChar
StartChar: Euro
Encoding: 8364 8364 258
Width: 1231
Flags: HW
Fore
1108.65 1378 m 1,0,-1
 1108.65 1165 l 1,1,2
 1026.75 1270 1026.75 1270 950.7 1315 c 128,-1,3
 874.65 1360 874.65 1360 782.85 1360 c 0,4,5
 641.55 1360 641.55 1360 550.65 1260 c 128,-1,6
 459.75 1160 459.75 1160 430.95 973 c 1,7,-1
 950.25 973 l 1,8,-1
 900.75 850 l 1,9,-1
 416.55 850 l 1,10,11
 414.75 826 414.75 826 414.3 803 c 128,-1,12
 413.85 780 413.85 780 413.85 745 c 0,13,14
 413.85 713 413.85 713 414.3 690 c 128,-1,15
 414.75 667 414.75 667 416.55 643 c 1,16,-1
 817.95 643 l 1,17,-1
 767.55 520 l 1,18,-1
 430.95 520 l 1,19,20
 459.75 333 459.75 333 550.65 232 c 128,-1,21
 641.55 131 641.55 131 782.85 131 c 0,22,23
 874.65 131 874.65 131 950.7 176 c 128,-1,24
 1026.75 221 1026.75 221 1108.65 326 c 1,25,-1
 1108.65 115 l 1,26,27
 1028.55 43 1028.55 43 945.3 7 c 128,-1,28
 862.05 -29 862.05 -29 775.65 -29 c 0,29,30
 562.35 -29 562.35 -29 423.3 116 c 128,-1,31
 284.25 261 284.25 261 248.25 520 c 1,32,-1
 58.3496 520 l 1,33,-1
 107.85 643 l 1,34,-1
 232.95 643 l 1,35,36
 232.95 666 232.95 666 232.5 689.5 c 128,-1,37
 232.05 713 232.05 713 232.05 745 c 0,38,39
 232.05 780 232.05 780 232.5 803.5 c 128,-1,40
 232.95 827 232.95 827 232.95 850 c 1,41,-1
 58.3496 850 l 1,42,-1
 107.85 973 l 1,43,-1
 248.25 973 l 1,44,45
 284.25 1230 284.25 1230 423.75 1375 c 128,-1,46
 563.25 1520 563.25 1520 775.65 1520 c 0,47,48
 863.85 1520 863.85 1520 947.1 1484.5 c 128,-1,49
 1030.35 1449 1030.35 1449 1108.65 1378 c 1,0,-1
EndSplineSet
EndChar
StartChar: trademark
Encoding: 8482 8482 140
Width: 1938
Flags: HW
Fore
1083.25 1493 m 1,0,-1
 1239.85 1237 l 1,1,-1
 1387.45 1493 l 1,2,-1
 1540.45 1493 l 1,3,-1
 1540.45 915 l 1,4,-1
 1438.75 915 l 1,5,-1
 1438.75 1399 l 1,6,-1
 1263.25 1096 l 1,7,-1
 1213.75 1096 l 1,8,-1
 1031.05 1399 l 1,9,-1
 1031.05 915 l 1,10,-1
 928.45 915 l 1,11,-1
 928.45 1493 l 1,12,-1
 1083.25 1493 l 1,0,-1
826.75 1493 m 1,13,-1
 826.75 1399 l 1,14,-1
 644.05 1399 l 1,15,-1
 644.05 915 l 1,16,-1
 541.45 915 l 1,17,-1
 541.45 1399 l 1,18,-1
 360.55 1399 l 1,19,-1
 360.55 1493 l 1,20,-1
 826.75 1493 l 1,13,-1
EndSplineSet
Ligature: 0 1 'liga' T M
EndChar
StartChar: partialdiff
Encoding: 8706 8706 152
Width: 1006
Flags: HW
Fore
733.65 621 m 1,0,1
 747.15 708 747.15 708 753.9 789.5 c 128,-1,2
 760.65 871 760.65 871 760.65 946 c 0,3,4
 760.65 1075 760.65 1075 727.8 1140.5 c 128,-1,5
 694.95 1206 694.95 1206 630.15 1206 c 0,6,7
 580.65 1206 580.65 1206 515.85 1148 c 128,-1,8
 451.05 1090 451.05 1090 418.65 1090 c 0,9,10
 386.25 1090 386.25 1090 364.65 1112 c 128,-1,11
 343.05 1134 343.05 1134 343.05 1165 c 0,12,13
 343.05 1227 343.05 1227 407.85 1276 c 128,-1,14
 472.65 1325 472.65 1325 563.55 1325 c 0,15,16
 725.55 1325 725.55 1325 821.85 1170 c 128,-1,17
 918.15 1015 918.15 1015 918.15 752 c 0,18,19
 918.15 417 918.15 417 788.1 196 c 128,-1,20
 658.05 -25 658.05 -25 466.35 -25 c 0,21,22
 329.55 -25 329.55 -25 238.2 83 c 128,-1,23
 146.85 191 146.85 191 146.85 354 c 0,24,25
 146.85 552 146.85 552 246.3 680.5 c 128,-1,26
 345.75 809 345.75 809 491.55 809 c 0,27,28
 582.45 809 582.45 809 640.95 763.5 c 128,-1,29
 699.45 718 699.45 718 733.65 621 c 1,0,1
689.55 494 m 0,30,31
 689.55 610 689.55 610 650.4 672.5 c 128,-1,32
 611.25 735 611.25 735 540.15 735 c 0,33,34
 442.05 735 442.05 735 378.6 606 c 128,-1,35
 315.15 477 315.15 477 315.15 270 c 0,36,37
 315.15 154 315.15 154 353.85 92.5 c 128,-1,38
 392.55 31 392.55 31 464.55 31 c 0,39,40
 562.65 31 562.65 31 626.1 161 c 128,-1,41
 689.55 291 689.55 291 689.55 494 c 0,30,31
EndSplineSet
EndChar
StartChar: Delta
Encoding: 8710 8710 168
Width: 1301
Flags: HW
Fore
684.1 1262 m 1,0,-1
 307.9 178 l 1,1,-1
 1060.3 178 l 1,2,-1
 684.1 1262 l 1,0,-1
584.2 1473 m 1,3,-1
 785.8 1473 l 1,4,-1
 1306.9 0 l 1,5,-1
 63.0996 0 l 1,6,-1
 584.2 1473 l 1,3,-1
EndSplineSet
EndChar
StartChar: product
Encoding: 8719 8719 154
Width: 1472
Flags: HW
Fore
217.85 1473 m 1,0,-1
 1331.15 1473 l 1,1,-1
 1331.15 -393 l 1,2,-1
 1115.15 -393 l 1,3,-1
 1115.15 1268 l 1,4,-1
 432.95 1268 l 1,5,-1
 432.95 -393 l 1,6,-1
 217.85 -393 l 1,7,-1
 217.85 1473 l 1,0,-1
EndSplineSet
EndChar
StartChar: summation
Encoding: 8721 8721 153
Width: 1310
Flags: HW
Fore
117.7 1473 m 1,0,-1
 1249.9 1473 l 1,1,-1
 1249.9 1280 l 1,2,-1
 386.8 1280 l 1,3,-1
 991.6 563 l 1,4,-1
 367 -201 l 1,5,-1
 1273.3 -201 l 1,6,-1
 1273.3 -393 l 1,7,-1
 90.7002 -393 l 1,8,-1
 90.7002 -244 l 1,9,-1
 743.2 557 l 1,10,-1
 117.7 1296 l 1,11,-1
 117.7 1473 l 1,0,-1
EndSplineSet
EndChar
StartChar: minus
Encoding: 8722 8722 238
Width: 1630
Flags: HW
Fore
281.1 727 m 1,0,-1
 1434.9 727 l 1,1,-1
 1434.9 557 l 1,2,-1
 281.1 557 l 1,3,-1
 281.1 727 l 1,0,-1
EndSplineSet
EndChar
StartChar: fraction
Encoding: 8725 8725 188
Width: 324
Flags: HW
Fore
518.4 1520 m 1,0,-1
 662.4 1520 l 1,1,-1
 -176.4 -29 l 1,2,-1
 -320.4 -29 l 1,3,-1
 518.4 1520 l 1,0,-1
EndSplineSet
EndChar
StartChar: periodcentered
Encoding: 8729 8729 257
Width: 618
Flags: HW
Fore
229.55 838 m 1,0,-1
 419.45 838 l 1,1,-1
 419.45 584 l 1,2,-1
 229.55 584 l 1,3,-1
 229.55 838 l 1,0,-1
EndSplineSet
EndChar
StartChar: radical
Encoding: 8730 8730 165
Width: 1242
Flags: HW
Fore
1072.7 1661 m 1,0,-1
 1242.8 1661 l 1,1,-1
 1242.8 1565 l 1,2,-1
 1139.3 1565 l 1,3,-1
 604.7 -41 l 1,4,-1
 545.3 -41 l 1,5,-1
 258.2 842 l 1,6,-1
 145.7 797 l 1,7,-1
 123.2 877 l 1,8,-1
 377.9 975 l 1,9,-1
 608.3 266 l 1,10,-1
 1072.7 1661 l 1,0,-1
EndSplineSet
EndChar
StartChar: infinity
Encoding: 8734 8734 146
Width: 1620
Flags: HW
Fore
908.9 559 m 1,0,1
 953 471 953 471 1013.3 426 c 128,-1,2
 1073.6 381 1073.6 381 1149.2 381 c 0,3,4
 1240.1 381 1240.1 381 1297.7 448.5 c 128,-1,5
 1355.3 516 1355.3 516 1355.3 621 c 0,6,7
 1355.3 722 1355.3 722 1302.2 789 c 128,-1,8
 1249.1 856 1249.1 856 1169 856 c 0,9,10
 1095.2 856 1095.2 856 1035.35 788.5 c 128,-1,11
 975.5 721 975.5 721 908.9 559 c 1,0,1
799.1 666 m 1,12,13
 755 754 755 754 695.15 798 c 128,-1,14
 635.3 842 635.3 842 558.8 842 c 0,15,16
 467 842 467 842 409.85 776 c 128,-1,17
 352.7 710 352.7 710 352.7 604 c 0,18,19
 352.7 503 352.7 503 405.8 436 c 128,-1,20
 458.9 369 458.9 369 539 369 c 0,21,22
 612.8 369 612.8 369 673.1 437 c 128,-1,23
 733.4 505 733.4 505 799.1 666 c 1,12,13
863 483 m 1,24,25
 800 348 800 348 729.35 284.5 c 128,-1,26
 658.7 221 658.7 221 574.1 221 c 0,27,28
 451.7 221 451.7 221 368 332.5 c 128,-1,29
 284.3 444 284.3 444 284.3 610 c 0,30,31
 284.3 785 284.3 785 359.45 893 c 128,-1,32
 434.6 1001 434.6 1001 555.2 1001 c 0,33,34
 640.7 1001 640.7 1001 709.55 938 c 128,-1,35
 778.4 875 778.4 875 843.2 737 c 1,36,37
 904.4 875 904.4 875 975.5 940.5 c 128,-1,38
 1046.6 1006 1046.6 1006 1133.9 1006 c 0,39,40
 1254.5 1006 1254.5 1006 1339.1 893.5 c 128,-1,41
 1423.7 781 1423.7 781 1423.7 614 c 0,42,43
 1423.7 439 1423.7 439 1348.55 332 c 128,-1,44
 1273.4 225 1273.4 225 1152.8 225 c 0,45,46
 1068.2 225 1068.2 225 1001.15 284.5 c 128,-1,47
 934.1 344 934.1 344 863 483 c 1,24,25
EndSplineSet
EndChar
StartChar: integral
Encoding: 8747 8747 156
Width: 1013
Flags: HW
Fore
333.15 -262 m 0,0,1
 428.55 -262 428.55 -262 441.15 426 c 0,2,3
 442.95 534 442.95 534 443.85 591 c 0,4,5
 454.65 1106 454.65 1106 540.15 1328 c 128,-1,6
 625.65 1550 625.65 1550 807.45 1550 c 0,7,8
 879.45 1550 879.45 1550 924.45 1508 c 128,-1,9
 969.45 1466 969.45 1466 969.45 1401 c 0,10,11
 969.45 1347 969.45 1347 940.65 1315.5 c 128,-1,12
 911.85 1284 911.85 1284 862.35 1284 c 0,13,14
 824.55 1284 824.55 1284 799.35 1303 c 128,-1,15
 774.15 1322 774.15 1322 763.35 1357 c 0,16,17
 757.95 1372 757.95 1372 753.9 1408 c 128,-1,18
 749.85 1444 749.85 1444 735.45 1444 c 0,19,20
 639.15 1444 639.15 1444 626.55 825 c 0,21,22
 622.95 632 622.95 632 619.35 522 c 0,23,24
 604.05 43 604.05 43 519 -164 c 128,-1,25
 433.95 -371 433.95 -371 257.55 -371 c 0,26,27
 186.45 -371 186.45 -371 141 -329.5 c 128,-1,28
 95.5498 -288 95.5498 -288 95.5498 -223 c 0,29,30
 95.5498 -167 95.5498 -167 126.15 -135.5 c 128,-1,31
 156.75 -104 156.75 -104 211.65 -104 c 0,32,33
 241.35 -104 241.35 -104 262.95 -118.5 c 128,-1,34
 284.55 -133 284.55 -133 298.05 -161 c 0,35,36
 307.05 -179 307.05 -179 311.55 -220.5 c 128,-1,37
 316.05 -262 316.05 -262 333.15 -262 c 0,0,1
EndSplineSet
EndChar
StartChar: approxequal
Encoding: 8776 8776 167
Width: 1630
Flags: HW
Fore
1434.9 623 m 1,0,-1
 1434.9 444 l 1,1,2
 1340.4 366 1340.4 366 1259.85 331.5 c 128,-1,3
 1179.3 297 1179.3 297 1092 297 c 0,4,5
 993 297 993 297 861.6 356 c 0,6,7
 852.6 360 852.6 360 846.3 363 c 0,8,9
 840.9 365 840.9 365 827.4 371 c 0,10,11
 687.9 432 687.9 432 603.3 432 c 0,12,13
 524.1 432 524.1 432 446.7 394 c 128,-1,14
 369.3 356 369.3 356 281.1 272 c 1,15,-1
 281.1 451 l 1,16,17
 375.6 529 375.6 529 456.15 563.5 c 128,-1,18
 536.7 598 536.7 598 624 598 c 0,19,20
 723 598 723 598 855.3 539 c 0,21,22
 865.2 534 865.2 534 869.7 532 c 0,23,24
 875.1 530 875.1 530 888.6 524 c 0,25,26
 1028.1 463 1028.1 463 1112.7 463 c 0,27,28
 1190.1 463 1190.1 463 1266.15 500.5 c 128,-1,29
 1342.2 538 1342.2 538 1434.9 623 c 1,0,-1
1434.9 1012 m 1,30,-1
 1434.9 834 l 1,31,32
 1340.4 755 1340.4 755 1259.85 720.5 c 128,-1,33
 1179.3 686 1179.3 686 1092 686 c 0,34,35
 993 686 993 686 861.6 745 c 0,36,37
 852.6 749 852.6 749 846.3 752 c 0,38,39
 840.9 754 840.9 754 827.4 760 c 0,40,41
 687.9 821 687.9 821 603.3 821 c 0,42,43
 524.1 821 524.1 821 446.7 783 c 128,-1,44
 369.3 745 369.3 745 281.1 662 c 1,45,-1
 281.1 840 l 1,46,47
 375.6 918 375.6 918 456.15 952.5 c 128,-1,48
 536.7 987 536.7 987 624 987 c 0,49,50
 723 987 723 987 855.3 928 c 0,51,52
 864.3 924 864.3 924 868.8 922 c 0,53,54
 875.1 919 875.1 919 888.6 913 c 0,55,56
 1028.1 852 1028.1 852 1112.7 852 c 0,57,58
 1190.1 852 1190.1 852 1266.15 889.5 c 128,-1,59
 1342.2 927 1342.2 927 1434.9 1012 c 1,30,-1
EndSplineSet
EndChar
StartChar: notequal
Encoding: 8800 8800 143
Width: 1630
Flags: HW
Fore
281.1 930 m 1,0,-1
 975.9 930 l 1,1,-1
 1206.3 1245 l 1,2,-1
 1318.8 1143 l 1,3,-1
 1162.2 930 l 1,4,-1
 1434.9 930 l 1,5,-1
 1434.9 762 l 1,6,-1
 1038.9 762 l 1,7,-1
 863.4 522 l 1,8,-1
 1434.9 522 l 1,9,-1
 1434.9 352 l 1,10,-1
 738.3 352 l 1,11,-1
 506.1 39 l 1,12,-1
 393.6 141 l 1,13,-1
 550.2 352 l 1,14,-1
 281.1 352 l 1,15,-1
 281.1 522 l 1,16,-1
 675.3 522 l 1,17,-1
 850.8 762 l 1,18,-1
 281.1 762 l 1,19,-1
 281.1 930 l 1,0,-1
EndSplineSet
Ligature: 0 1 'liga' equal uni0338
EndChar
StartChar: lessequal
Encoding: 8804 8804 148
Width: 1630
Flags: HW
Fore
1434.9 1016 m 1,0,-1
 570.9 739 l 1,1,-1
 1434.9 465 l 1,2,-1
 1434.9 287 l 1,3,-1
 281.1 655 l 1,4,-1
 281.1 825 l 1,5,-1
 1434.9 1192 l 1,6,-1
 1434.9 1016 l 1,0,-1
281.1 170 m 1,7,-1
 1434.9 170 l 1,8,-1
 1434.9 0 l 1,9,-1
 281.1 0 l 1,10,-1
 281.1 170 l 1,7,-1
EndSplineSet
EndChar
StartChar: greaterequal
Encoding: 8805 8805 149
Width: 1630
Flags: HW
Fore
281.1 1016 m 1,0,-1
 281.1 1192 l 1,1,-1
 1434.9 825 l 1,2,-1
 1434.9 655 l 1,3,-1
 281.1 287 l 1,4,-1
 281.1 465 l 1,5,-1
 1146 739 l 1,6,-1
 281.1 1016 l 1,0,-1
1434.9 170 m 1,7,-1
 1434.9 0 l 1,8,-1
 281.1 0 l 1,9,-1
 281.1 170 l 1,10,-1
 1434.9 170 l 1,7,-1
EndSplineSet
EndChar
StartChar: uni2423
Encoding: 9251 9251 150
Width: 1235
Flags: HMW
HStem: -466 170<347.6 952.4>
VStem: 196.4 151.2<-296 208> 952.4 151.2<-296 208>
Fore
347.6 -296 m 1,1,-1
 952.4 -296 l 1,4,-1
 952.4 208 l 1,3,-1
 1103.6 208 l 1,2,-1
 1103.6 -466 l 1,1,-1
 196.4 -466 l 1,0,-1
 196.4 208 l 1,3,-1
 347.6 208 l 1,2,-1
 347.6 -296 l 1,1,-1
EndSplineSet
EndChar
StartChar: lozenge
Encoding: 9674 9674 185
Width: 961
Flags: HW
Fore
506 1409 m 1,0,-1
 159.5 592 l 1,1,-1
 506 -233 l 1,2,-1
 852.5 592 l 1,3,-1
 506 1409 l 1,0,-1
506 1653 m 1,4,-1
 956 592 l 1,5,-1
 506 -477 l 1,6,-1
 56 592 l 1,7,-1
 506 1653 l 1,4,-1
EndSplineSet
EndChar
StartChar: fi
Encoding: 64257 64257 192
Width: 1218
Flags: HW
Fore
1045.45 1120 m 1,0,-1
 1045.45 0 l 1,1,-1
 878.95 0 l 1,2,-1
 878.95 977 l 1,3,-1
 424.45 977 l 1,4,-1
 424.45 0 l 1,5,-1
 257.95 0 l 1,6,-1
 257.95 977 l 1,7,-1
 99.5498 977 l 1,8,-1
 99.5498 1120 l 1,9,-1
 257.95 1120 l 1,10,-1
 257.95 1198 l 2,11,12
 257.95 1381 257.95 1381 335.8 1468.5 c 128,-1,13
 413.65 1556 413.65 1556 574.75 1556 c 2,14,-1
 741.25 1556 l 1,15,-1
 741.25 1403 l 1,16,-1
 582.85 1403 l 2,17,18
 493.75 1403 493.75 1403 459.1 1363 c 128,-1,19
 424.45 1323 424.45 1323 424.45 1219 c 2,20,-1
 424.45 1120 l 1,21,-1
 1045.45 1120 l 1,0,-1
878.95 1554 m 1,22,-1
 1045.45 1554 l 1,23,-1
 1045.45 1321 l 1,24,-1
 878.95 1321 l 1,25,-1
 878.95 1554 l 1,22,-1
EndSplineSet
Ligature: 0 0 'liga' f i
EndChar
StartChar: fl
Encoding: 64258 64258 193
Width: 1218
Flags: HW
Fore
584.65 1556 m 2,0,-1
 1045.45 1556 l 1,1,-1
 1045.45 0 l 1,2,-1
 878.95 0 l 1,3,-1
 878.95 1403 l 1,4,-1
 582.85 1403 l 2,5,6
 493.75 1403 493.75 1403 459.1 1363 c 128,-1,7
 424.45 1323 424.45 1323 424.45 1219 c 2,8,-1
 424.45 1120 l 1,9,-1
 697.15 1120 l 1,10,-1
 697.15 977 l 1,11,-1
 424.45 977 l 1,12,-1
 424.45 0 l 1,13,-1
 257.95 0 l 1,14,-1
 257.95 977 l 1,15,-1
 99.5498 977 l 1,16,-1
 99.5498 1120 l 1,17,-1
 257.95 1120 l 1,18,-1
 257.95 1198 l 2,19,20
 257.95 1385 257.95 1385 336.25 1470.5 c 128,-1,21
 414.55 1556 414.55 1556 584.65 1556 c 2,0,-1
EndSplineSet
Ligature: 0 0 'liga' f l
EndChar
StartChar: dlLtcaron
Encoding: 65537 -1 194
Width: 1306
Flags: HW
Fore
1306.4 1554 m 1,0,-1
 1485.5 1554 l 1,1,-1
 1380.2 1178 l 1,2,-1
 1242.5 1178 l 1,3,-1
 1306.4 1554 l 1,0,-1
EndSplineSet
EndChar
StartChar: Dieresis
Encoding: 65538 -1 259
Width: 972
Flags: HW
Fore
596.6 1497 m 1,0,-1
 779.3 1497 l 1,1,-1
 779.3 1294 l 1,2,-1
 596.6 1294 l 1,3,-1
 596.6 1497 l 1,0,-1
244.7 1497 m 1,4,-1
 427.4 1497 l 1,5,-1
 427.4 1294 l 1,6,-1
 244.7 1294 l 1,7,-1
 244.7 1497 l 1,4,-1
EndSplineSet
EndChar
StartChar: Acute
Encoding: 65539 -1 260
Width: 977
Flags: HW
Fore
566.45 1526 m 1,0,-1
 732.95 1526 l 1,1,-1
 527.75 1262 l 1,2,-1
 390.05 1262 l 1,3,-1
 566.45 1526 l 1,0,-1
EndSplineSet
EndChar
StartChar: Tilde
Encoding: 65540 -1 261
Width: 972
Flags: HW
Fore
508.4 1337 m 1,0,-1
 457.1 1370 l 2,1,2
 434.6 1384 434.6 1384 420.65 1389.5 c 128,-1,3
 406.7 1395 406.7 1395 395.9 1395 c 0,4,5
 363.5 1395 363.5 1395 345.5 1370 c 128,-1,6
 327.5 1345 327.5 1345 327.5 1300 c 2,7,-1
 327.5 1294 l 1,8,-1
 215 1294 l 1,9,10
 215 1395 215 1395 261.35 1454 c 128,-1,11
 307.7 1513 307.7 1513 385.1 1513 c 0,12,13
 417.5 1513 417.5 1513 444.95 1505 c 128,-1,14
 472.4 1497 472.4 1497 515.6 1470 c 2,15,-1
 566.9 1440 l 2,16,17
 587.6 1427 587.6 1427 602.9 1421 c 128,-1,18
 618.2 1415 618.2 1415 631.7 1415 c 0,19,20
 660.5 1415 660.5 1415 678.5 1440.5 c 128,-1,21
 696.5 1466 696.5 1466 696.5 1507 c 2,22,-1
 696.5 1513 l 1,23,-1
 809 1513 l 1,24,25
 807.2 1413 807.2 1413 760.85 1353.5 c 128,-1,26
 714.5 1294 714.5 1294 638.9 1294 c 0,27,28
 608.3 1294 608.3 1294 581.75 1302 c 128,-1,29
 555.2 1310 555.2 1310 508.4 1337 c 1,0,-1
EndSplineSet
EndChar
StartChar: Grave
Encoding: 65541 -1 262
Width: 967
Flags: HW
Fore
455.45 1526 m 1,0,-1
 631.85 1262 l 1,1,-1
 494.15 1262 l 1,2,-1
 287.15 1526 l 1,3,-1
 455.45 1526 l 1,0,-1
EndSplineSet
EndChar
StartChar: Circumflex
Encoding: 65542 -1 263
Width: 972
Flags: HW
Fore
427.4 1528 m 1,0,-1
 596.6 1528 l 1,1,-1
 786.5 1262 l 1,2,-1
 661.4 1262 l 1,3,-1
 512 1440 l 1,4,-1
 362.6 1262 l 1,5,-1
 237.5 1262 l 1,6,-1
 427.4 1528 l 1,0,-1
EndSplineSet
EndChar
StartChar: Caron
Encoding: 65543 -1 264
Width: 972
Flags: HW
Fore
427.4 1262 m 1,0,-1
 237.5 1528 l 1,1,-1
 362.6 1528 l 1,2,-1
 512 1350 l 1,3,-1
 661.4 1528 l 1,4,-1
 786.5 1528 l 1,5,-1
 596.6 1262 l 1,6,-1
 427.4 1262 l 1,0,-1
EndSplineSet
EndChar
StartChar: c6467
Encoding: 65544 -1 265
Width: 779
Flags: HW
Fore
470.25 1382 m 1,0,-1
 192.15 963 l 1,1,-1
 470.25 963 l 1,2,-1
 470.25 1382 l 1,0,-1
450.45 1503 m 1,3,-1
 599.85 1503 l 1,4,-1
 599.85 963 l 1,5,-1
 721.35 963 l 1,6,-1
 721.35 854 l 1,7,-1
 599.85 854 l 1,8,-1
 599.85 668 l 1,9,-1
 470.25 668 l 1,10,-1
 470.25 854 l 1,11,-1
 97.6504 854 l 1,12,-1
 97.6504 975 l 1,13,-1
 450.45 1503 l 1,3,-1
EndSplineSet
EndChar
StartChar: Breve
Encoding: 65545 -1 266
Width: 972
Flags: HW
Fore
230.3 1528 m 1,0,-1
 336.5 1528 l 1,1,2
 348.2 1474 348.2 1474 392.75 1445.5 c 128,-1,3
 437.3 1417 437.3 1417 512 1417 c 0,4,5
 585.8 1417 585.8 1417 629.45 1444.5 c 128,-1,6
 673.1 1472 673.1 1472 687.5 1528 c 1,7,-1
 793.7 1528 l 1,8,9
 784.7 1409 784.7 1409 712.7 1347.5 c 128,-1,10
 640.7 1286 640.7 1286 512 1286 c 0,11,12
 382.4 1286 382.4 1286 310.85 1347 c 128,-1,13
 239.3 1408 239.3 1408 230.3 1528 c 1,0,-1
EndSplineSet
EndChar
StartChar: Dotaccent
Encoding: 65546 -1 267
Width: 972
Flags: HW
Fore
420.2 1499 m 1,0,-1
 603.8 1499 l 1,1,-1
 603.8 1294 l 1,2,-1
 420.2 1294 l 1,3,-1
 420.2 1499 l 1,0,-1
EndSplineSet
EndChar
StartChar: Hungarumlaut
Encoding: 65547 -1 268
Width: 980
Flags: HW
Fore
743.7 1526 m 1,0,-1
 910.2 1526 l 1,1,-1
 705 1262 l 1,2,-1
 567.3 1262 l 1,3,-1
 743.7 1526 l 1,0,-1
442.2 1526 m 1,0,-1
 608.7 1526 l 1,1,-1
 403.5 1262 l 1,2,-1
 265.8 1262 l 1,3,-1
 442.2 1526 l 1,0,-1
EndSplineSet
EndChar
StartChar: Doubleacute
Encoding: 65548 -1 269
Width: 965
Flags: HW
Fore
280.3 1526 m 1,0,-1
 113.8 1526 l 1,1,-1
 319 1262 l 1,2,-1
 456.7 1262 l 1,3,-1
 280.3 1526 l 1,0,-1
581.8 1526 m 1,0,-1
 415.3 1526 l 1,1,-1
 620.5 1262 l 1,2,-1
 758.2 1262 l 1,3,-1
 581.8 1526 l 1,0,-1
EndSplineSet
EndChar
